Asap-Bold Italic.ufo
<glyph name="dollar" format="1">
  <advance width="496"/>
  <unicode hex="0024"/>
  <outline>
    <contour>
      <point x="297" y="765" type="line" smooth="yes"/>
      <point x="283" y="765"/>
      <point x="276" y="759"/>
      <point x="275" y="745" type="curve" smooth="yes"/>
      <point x="271" y="706" type="line"/>
      <point x="158" y="695"/>
      <point x="47" y="633"/>
      <point x="47" y="483" type="curve" smooth="yes"/>
      <point x="47" y="363"/>
      <point x="146" y="323"/>
      <point x="227" y="289" type="curve"/>
      <point x="209" y="123" type="line"/>
      <point x="119" y="123"/>
      <point x="68" y="181"/>
      <point x="50" y="181" type="curve" smooth="yes"/>
      <point x="39" y="181"/>
      <point x="24" y="171"/>
      <point x="24" y="70" type="curve" smooth="yes"/>
      <point x="24" y="17"/>
      <point x="128" y="-4"/>
      <point x="196" y="-7" type="curve"/>
      <point x="194" y="-23"/>
      <point x="191" y="-50"/>
      <point x="191" y="-55" type="curve" smooth="yes"/>
      <point x="191" y="-69"/>
      <point x="194" y="-75"/>
      <point x="209" y="-75" type="curve" smooth="yes"/>
      <point x="226" y="-75" type="line" smooth="yes"/>
      <point x="238" y="-75"/>
      <point x="246" y="-69"/>
      <point x="248" y="-55" type="curve" smooth="yes"/>
      <point x="253" y="-6" type="line"/>
      <point x="355" y="5"/>
      <point x="466" y="65"/>
      <point x="466" y="233" type="curve" smooth="yes"/>
      <point x="466" y="345"/>
      <point x="374" y="385"/>
      <point x="298" y="420" type="curve"/>
      <point x="314" y="576" type="line"/>
      <point x="376" y="574"/>
      <point x="403" y="551"/>
      <point x="416" y="551" type="curve" smooth="yes"/>
      <point x="440" y="551"/>
      <point x="480" y="614"/>
      <point x="480" y="640" type="curve" smooth="yes"/>
      <point x="480" y="670"/>
      <point x="420" y="703"/>
      <point x="328" y="707" type="curve"/>
      <point x="329" y="720"/>
      <point x="332" y="742"/>
      <point x="332" y="745" type="curve" smooth="yes"/>
      <point x="332" y="759"/>
      <point x="328" y="765"/>
      <point x="314" y="765" type="curve" smooth="yes"/>
    </contour>
    <contour>
      <point x="302" y="245"/>
      <point x="317" y="227"/>
      <point x="317" y="203" type="curve" smooth="yes"/>
      <point x="317" y="164"/>
      <point x="295" y="143"/>
      <point x="267" y="133" type="curve"/>
      <point x="281" y="260" type="line"/>
    </contour>
    <contour>
      <point x="243" y="447" type="line"/>
      <point x="215" y="463"/>
      <point x="196" y="482"/>
      <point x="196" y="510" type="curve" smooth="yes"/>
      <point x="196" y="527"/>
      <point x="203" y="559"/>
      <point x="256" y="571" type="curve"/>
    </contour>
  </outline>
</glyph>
<glyph name="quotesingle" format="1">
  <advance width="183"/>
  <unicode hex="0027"/>
  <outline>
    <contour>
      <point x="104" y="702" type="line" smooth="yes"/>
      <point x="62" y="702"/>
      <point x="41" y="691"/>
      <point x="41" y="670" type="curve" smooth="yes"/>
      <point x="41" y="494" type="line" smooth="yes"/>
      <point x="41" y="473"/>
      <point x="54" y="464"/>
      <point x="75" y="464" type="curve" smooth="yes"/>
      <point x="90" y="464" type="line" smooth="yes"/>
      <point x="111" y="464"/>
      <point x="122" y="473"/>
      <point x="127" y="494" type="curve"/>
      <point x="141" y="553"/>
      <point x="168" y="664"/>
      <point x="168" y="670" type="curve" smooth="yes"/>
      <point x="168" y="691"/>
      <point x="154" y="702"/>
      <point x="111" y="702" type="curve" smooth="yes"/>
    </contour>
  </outline>
</glyph>
<glyph name="plus" format="1">
  <advance width="560"/>
  <unicode hex="002B"/>
  <outline>
    <contour>
      <point x="296" y="473" type="line" smooth="yes"/>
      <point x="261" y="473"/>
      <point x="245" y="464"/>
      <point x="243" y="443" type="curve" smooth="yes"/>
      <point x="227" y="289" type="line"/>
      <point x="76" y="289" type="line" smooth="yes"/>
      <point x="42" y="289"/>
      <point x="39" y="240"/>
      <point x="39" y="216" type="curve" smooth="yes"/>
      <point x="39" y="192"/>
      <point x="47" y="182"/>
      <point x="65" y="182" type="curve" smooth="yes"/>
      <point x="216" y="182" type="line"/>
      <point x="200" y="30" type="line"/>
      <point x="200" y="9"/>
      <point x="210" y="0"/>
      <point x="247" y="0" type="curve" smooth="yes"/>
      <point x="261" y="0" type="line" smooth="yes"/>
      <point x="296" y="0"/>
      <point x="312" y="9"/>
      <point x="314" y="30" type="curve" smooth="yes"/>
      <point x="330" y="182" type="line"/>
      <point x="483" y="182" type="line" smooth="yes"/>
      <point x="519" y="182"/>
      <point x="520" y="228"/>
      <point x="520" y="253" type="curve" smooth="yes"/>
      <point x="520" y="278"/>
      <point x="512" y="289"/>
      <point x="494" y="289" type="curve" smooth="yes"/>
      <point x="341" y="289" type="line"/>
      <point x="357" y="443" type="line"/>
      <point x="357" y="464"/>
      <point x="347" y="473"/>
      <point x="310" y="473" type="curve" smooth="yes"/>
    </contour>
  </outline>
</glyph>
<glyph name="slash" format="1">
  <advance width="370"/>
  <unicode hex="002F"/>
  <outline>
    <contour>
      <point x="367" y="702" type="line" smooth="yes"/>
      <point x="336" y="702"/>
      <point x="313" y="694"/>
      <point x="302" y="672" type="curve" smooth="yes"/>
      <point x="-63" y="-49" type="line" smooth="yes"/>
      <point x="-67" y="-56"/>
      <point x="-69" y="-61"/>
      <point x="-69" y="-64" type="curve" smooth="yes"/>
      <point x="-69" y="-73"/>
      <point x="-56" y="-79"/>
      <point x="-28" y="-79" type="curve" smooth="yes"/>
      <point x="-4" y="-79" type="line" smooth="yes"/>
      <point x="25" y="-79"/>
      <point x="49" y="-71"/>
      <point x="60" y="-49" type="curve" smooth="yes"/>
      <point x="426" y="672" type="line" smooth="yes"/>
      <point x="429" y="678"/>
      <point x="431" y="683"/>
      <point x="431" y="687" type="curve" smooth="yes"/>
      <point x="431" y="696"/>
      <point x="419" y="702"/>
      <point x="391" y="702" type="curve" smooth="yes"/>
    </contour>
  </outline>
</glyph>
<glyph name="three" format="1">
  <advance width="535"/>
  <unicode hex="0033"/>
  <outline>
    <contour>
      <point x="188" y="708"/>
      <point x="86" y="684"/>
      <point x="86" y="632" type="curve" smooth="yes"/>
      <point x="86" y="604"/>
      <point x="109" y="559"/>
      <point x="128" y="559" type="curve" smooth="yes"/>
      <point x="146" y="559"/>
      <point x="174" y="590"/>
      <point x="250" y="590" type="curve" smooth="yes"/>
      <point x="299" y="590"/>
      <point x="323" y="563"/>
      <point x="323" y="522" type="curve" smooth="yes"/>
      <point x="323" y="465"/>
      <point x="281" y="426"/>
      <point x="210" y="426" type="curve" smooth="yes"/>
      <point x="191" y="426" type="line" smooth="yes"/>
      <point x="161" y="426"/>
      <point x="152" y="391"/>
      <point x="152" y="345" type="curve" smooth="yes"/>
      <point x="152" y="320"/>
      <point x="160" y="309"/>
      <point x="178" y="309" type="curve" smooth="yes"/>
      <point x="207" y="309" type="line" smooth="yes"/>
      <point x="283" y="309"/>
      <point x="314" y="278"/>
      <point x="314" y="224" type="curve" smooth="yes"/>
      <point x="314" y="151"/>
      <point x="269" y="109"/>
      <point x="204" y="109" type="curve" smooth="yes"/>
      <point x="120" y="109"/>
      <point x="78" y="149"/>
      <point x="65" y="149" type="curve" smooth="yes"/>
      <point x="54" y="149"/>
      <point x="41" y="127"/>
      <point x="41" y="55" type="curve" smooth="yes"/>
      <point x="41" y="-2"/>
      <point x="163" y="-8"/>
      <point x="215" y="-8" type="curve" smooth="yes"/>
      <point x="355" y="-8"/>
      <point x="464" y="82"/>
      <point x="464" y="231" type="curve" smooth="yes"/>
      <point x="464" y="301"/>
      <point x="433" y="356"/>
      <point x="366" y="383" type="curve"/>
      <point x="366" y="387" type="line"/>
      <point x="431" y="413"/>
      <point x="476" y="475"/>
      <point x="476" y="554" type="curve" smooth="yes"/>
      <point x="476" y="649"/>
      <point x="405" y="708"/>
      <point x="288" y="708" type="curve" smooth="yes"/>
    </contour>
  </outline>
</glyph>
<glyph name="four" format="1">
  <advance width="535"/>
  <unicode hex="0034"/>
  <outline>
    <contour>
      <point x="407" y="702" type="line" smooth="yes"/>
      <point x="378" y="702"/>
      <point x="357" y="700"/>
      <point x="344" y="683" type="curve" smooth="yes"/>
      <point x="2" y="246" type="line" smooth="yes"/>
      <point x="0" y="244"/>
      <point x="-1" y="235"/>
      <point x="-1" y="228" type="curve" smooth="yes"/>
      <point x="-1" y="199"/>
      <point x="10" y="142"/>
      <point x="26" y="142" type="curve" smooth="yes"/>
      <point x="288" y="142" type="line"/>
      <point x="276" y="30" type="line"/>
      <point x="276" y="9"/>
      <point x="290" y="-2"/>
      <point x="333" y="-2" type="curve" smooth="yes"/>
      <point x="361" y="-2" type="line" smooth="yes"/>
      <point x="403" y="-2"/>
      <point x="422" y="9"/>
      <point x="424" y="30" type="curve" smooth="yes"/>
      <point x="436" y="142" type="line"/>
      <point x="474" y="142" type="line" smooth="yes"/>
      <point x="504" y="142"/>
      <point x="513" y="177"/>
      <point x="513" y="223" type="curve" smooth="yes"/>
      <point x="513" y="248"/>
      <point x="505" y="259"/>
      <point x="487" y="259" type="curve" smooth="yes"/>
      <point x="448" y="259" type="line"/>
      <point x="491" y="670" type="line"/>
      <point x="491" y="691"/>
      <point x="477" y="702"/>
      <point x="434" y="702" type="curve" smooth="yes"/>
    </contour>
    <contour>
      <point x="324" y="488" type="line"/>
      <point x="300" y="259" type="line"/>
      <point x="150" y="259" type="line"/>
      <point x="320" y="489" type="line"/>
    </contour>
  </outline>
</glyph>
<glyph name="six" format="1">
  <advance width="535"/>
  <unicode hex="0036"/>
  <outline>
    <contour>
      <point x="389" y="704"/>
      <point x="20" y="595"/>
      <point x="20" y="209" type="curve" smooth="yes"/>
      <point x="20" y="49"/>
      <point x="127" y="-8"/>
      <point x="231" y="-8" type="curve" smooth="yes"/>
      <point x="348" y="-8"/>
      <point x="492" y="62"/>
      <point x="492" y="246" type="curve" smooth="yes"/>
      <point x="492" y="384"/>
      <point x="384" y="428"/>
      <point x="315" y="428" type="curve" smooth="yes"/>
      <point x="286" y="428"/>
      <point x="253" y="424"/>
      <point x="212" y="403" type="curve"/>
      <point x="254" y="497"/>
      <point x="345" y="568"/>
      <point x="450" y="600" type="curve" smooth="yes"/>
      <point x="462" y="603"/>
      <point x="465" y="608"/>
      <point x="465" y="627" type="curve" smooth="yes"/>
      <point x="465" y="651"/>
      <point x="455" y="704"/>
      <point x="424" y="704" type="curve" smooth="yes"/>
    </contour>
    <contour>
      <point x="312" y="311"/>
      <point x="341" y="280"/>
      <point x="341" y="229" type="curve" smooth="yes"/>
      <point x="341" y="159"/>
      <point x="296" y="109"/>
      <point x="244" y="109" type="curve" smooth="yes"/>
      <point x="202" y="109"/>
      <point x="170" y="135"/>
      <point x="170" y="209" type="curve" smooth="yes"/>
      <point x="170" y="233"/>
      <point x="174" y="261"/>
      <point x="178" y="287" type="curve"/>
      <point x="205" y="301"/>
      <point x="233" y="311"/>
      <point x="260" y="311" type="curve" smooth="yes"/>
    </contour>
  </outline>
</glyph>
<glyph name="seven" format="1">
  <advance width="535"/>
  <unicode hex="0037"/>
  <outline>
    <contour>
      <point x="104" y="700" type="line" smooth="yes"/>
      <point x="74" y="700"/>
      <point x="65" y="665"/>
      <point x="65" y="619" type="curve" smooth="yes"/>
      <point x="65" y="594"/>
      <point x="73" y="583"/>
      <point x="92" y="583" type="curve"/>
      <point x="353" y="583" type="line"/>
      <point x="48" y="36" type="line" smooth="yes"/>
      <point x="43" y="28"/>
      <point x="41" y="22"/>
      <point x="41" y="17" type="curve" smooth="yes"/>
      <point x="41" y="-2"/>
      <point x="72" y="-2"/>
      <point x="97" y="-2" type="curve" smooth="yes"/>
      <point x="139" y="-2" type="line" smooth="yes"/>
      <point x="168" y="-2"/>
      <point x="190" y="2"/>
      <point x="199" y="18" type="curve" smooth="yes"/>
      <point x="518" y="597" type="line" smooth="yes"/>
      <point x="520" y="602"/>
      <point x="521" y="611"/>
      <point x="521" y="620" type="curve" smooth="yes"/>
      <point x="521" y="652"/>
      <point x="510" y="700"/>
      <point x="500" y="700" type="curve" smooth="yes"/>
    </contour>
  </outline>
</glyph>
<glyph name="nine" format="1">
  <advance width="535"/>
  <unicode hex="0039"/>
  <outline>
    <contour>
      <point x="184" y="708"/>
      <point x="40" y="638"/>
      <point x="40" y="454" type="curve" smooth="yes"/>
      <point x="40" y="316"/>
      <point x="148" y="272"/>
      <point x="217" y="272" type="curve" smooth="yes"/>
      <point x="246" y="272"/>
      <point x="279" y="276"/>
      <point x="320" y="297" type="curve"/>
      <point x="278" y="203"/>
      <point x="187" y="132"/>
      <point x="82" y="100" type="curve" smooth="yes"/>
      <point x="70" y="97"/>
      <point x="67" y="92"/>
      <point x="67" y="73" type="curve" smooth="yes"/>
      <point x="67" y="49"/>
      <point x="77" y="-4"/>
      <point x="108" y="-4" type="curve" smooth="yes"/>
      <point x="143" y="-4"/>
      <point x="512" y="105"/>
      <point x="512" y="491" type="curve" smooth="yes"/>
      <point x="512" y="651"/>
      <point x="405" y="708"/>
      <point x="301" y="708" type="curve" smooth="yes"/>
    </contour>
    <contour>
      <point x="330" y="591"/>
      <point x="362" y="565"/>
      <point x="362" y="491" type="curve" smooth="yes"/>
      <point x="362" y="467"/>
      <point x="358" y="439"/>
      <point x="354" y="413" type="curve"/>
      <point x="327" y="399"/>
      <point x="299" y="389"/>
      <point x="272" y="389" type="curve" smooth="yes"/>
      <point x="220" y="389"/>
      <point x="191" y="420"/>
      <point x="191" y="471" type="curve" smooth="yes"/>
      <point x="191" y="541"/>
      <point x="236" y="591"/>
      <point x="288" y="591" type="curve" smooth="yes"/>
    </contour>
  </outline>
</glyph>
<glyph name="semicolon" format="1">
  <advance width="198"/>
  <unicode hex="003B"/>
  <outline>
    <contour>
      <point x="115" y="525" type="line" smooth="yes"/>
      <point x="73" y="525"/>
      <point x="53" y="514"/>
      <point x="52" y="493" type="curve"/>
      <point x="42" y="401" type="line"/>
      <point x="42" y="380"/>
      <point x="56" y="369"/>
      <point x="99" y="369" type="curve" smooth="yes"/>
      <point x="131" y="369" type="line" smooth="yes"/>
      <point x="173" y="369"/>
      <point x="192" y="380"/>
      <point x="194" y="401" type="curve" smooth="yes"/>
      <point x="204" y="493" type="line"/>
      <point x="204" y="514"/>
      <point x="190" y="525"/>
      <point x="147" y="525" type="curve" smooth="yes"/>
    </contour>
    <component base="comma" xOffset="-20"/>
  </outline>
</glyph>
<glyph name="less" format="1">
  <advance width="560"/>
  <unicode hex="003C"/>
  <outline>
    <contour>
      <point x="517" y="478"/>
      <point x="513" y="477"/>
      <point x="509" y="476" type="curve" smooth="yes"/>
      <point x="71" y="297" type="line" smooth="yes"/>
      <point x="44" y="286"/>
      <point x="36" y="254"/>
      <point x="36" y="227" type="curve" smooth="yes"/>
      <point x="36" y="210"/>
      <point x="44" y="201"/>
      <point x="60" y="194" type="curve" smooth="yes"/>
      <point x="461" y="14" type="line" smooth="yes"/>
      <point x="465" y="12"/>
      <point x="468" y="11"/>
      <point x="471" y="11" type="curve" smooth="yes"/>
      <point x="496" y="11"/>
      <point x="498" y="65"/>
      <point x="498" y="82" type="curve" smooth="yes"/>
      <point x="498" y="105"/>
      <point x="491" y="121"/>
      <point x="473" y="129" type="curve" smooth="yes"/>
      <point x="193" y="245" type="line"/>
      <point x="497" y="361" type="line" smooth="yes"/>
      <point x="531" y="374"/>
      <point x="536" y="424"/>
      <point x="536" y="453" type="curve" smooth="yes"/>
      <point x="536" y="470"/>
      <point x="531" y="478"/>
      <point x="520" y="478" type="curve" smooth="yes"/>
    </contour>
  </outline>
</glyph>
<glyph name="equal" format="1">
  <advance width="560"/>
  <unicode hex="003D"/>
  <outline>
    <contour>
      <point x="84" y="374" type="line" smooth="yes"/>
      <point x="50" y="374"/>
      <point x="47" y="325"/>
      <point x="47" y="301" type="curve" smooth="yes"/>
      <point x="47" y="277"/>
      <point x="55" y="267"/>
      <point x="73" y="267" type="curve" smooth="yes"/>
      <point x="493" y="267" type="line" smooth="yes"/>
      <point x="526" y="267"/>
      <point x="530" y="317"/>
      <point x="530" y="340" type="curve" smooth="yes"/>
      <point x="530" y="363"/>
      <point x="521" y="374"/>
      <point x="504" y="374" type="curve" smooth="yes"/>
    </contour>
    <contour>
      <point x="65" y="193" type="line" smooth="yes"/>
      <point x="31" y="193"/>
      <point x="28" y="144"/>
      <point x="28" y="120" type="curve" smooth="yes"/>
      <point x="28" y="96"/>
      <point x="36" y="86"/>
      <point x="54" y="86" type="curve" smooth="yes"/>
      <point x="474" y="86" type="line" smooth="yes"/>
      <point x="507" y="86"/>
      <point x="511" y="136"/>
      <point x="511" y="159" type="curve" smooth="yes"/>
      <point x="511" y="182"/>
      <point x="502" y="193"/>
      <point x="485" y="193" type="curve" smooth="yes"/>
    </contour>
  </outline>
</glyph>
<glyph name="greater" format="1">
  <advance width="560"/>
  <unicode hex="003E"/>
  <outline>
    <contour>
      <point x="57" y="479"/>
      <point x="55" y="425"/>
      <point x="55" y="408" type="curve" smooth="yes"/>
      <point x="55" y="385"/>
      <point x="62" y="368"/>
      <point x="80" y="361" type="curve" smooth="yes"/>
      <point x="360" y="245" type="line"/>
      <point x="56" y="129" type="line" smooth="yes"/>
      <point x="22" y="116"/>
      <point x="17" y="66"/>
      <point x="17" y="37" type="curve" smooth="yes"/>
      <point x="17" y="20"/>
      <point x="22" y="12"/>
      <point x="33" y="12" type="curve" smooth="yes"/>
      <point x="36" y="12"/>
      <point x="40" y="13"/>
      <point x="44" y="14" type="curve" smooth="yes"/>
      <point x="482" y="193" type="line" smooth="yes"/>
      <point x="509" y="204"/>
      <point x="517" y="236"/>
      <point x="517" y="263" type="curve" smooth="yes"/>
      <point x="517" y="280"/>
      <point x="509" y="289"/>
      <point x="493" y="296" type="curve" smooth="yes"/>
      <point x="92" y="476" type="line" smooth="yes"/>
      <point x="88" y="478"/>
      <point x="85" y="479"/>
      <point x="82" y="479" type="curve" smooth="yes"/>
    </contour>
  </outline>
</glyph>
<glyph name="D" format="1">
  <advance width="695"/>
  <unicode hex="0044"/>
  <outline>
    <contour>
      <point x="149" y="700" type="line" smooth="yes"/>
      <point x="121" y="700"/>
      <point x="108" y="688"/>
      <point x="105" y="660" type="curve" smooth="yes"/>
      <point x="83" y="451"/>
      <point x="40" y="45"/>
      <point x="40" y="33" type="curve" smooth="yes"/>
      <point x="40" y="9"/>
      <point x="49" y="0"/>
      <point x="76" y="0" type="curve" smooth="yes"/>
      <point x="300" y="0" type="line" smooth="yes"/>
      <point x="519" y="0"/>
      <point x="660" y="146"/>
      <point x="660" y="411" type="curve" smooth="yes"/>
      <point x="660" y="598"/>
      <point x="560" y="700"/>
      <point x="373" y="700" type="curve" smooth="yes"/>
    </contour>
    <contour>
      <point x="454" y="569"/>
      <point x="501" y="509"/>
      <point x="501" y="397" type="curve" smooth="yes"/>
      <point x="501" y="225"/>
      <point x="428" y="131"/>
      <point x="313" y="131" type="curve" smooth="yes"/>
      <point x="204" y="131" type="line"/>
      <point x="251" y="569" type="line"/>
      <point x="360" y="569" type="line" smooth="yes"/>
    </contour>
    <contour>
      <point x="348" y="350" type="move" name="center"/>
    </contour>
    <contour>
      <point x="291" y="0" type="move" name="bottom"/>
    </contour>
    <contour>
      <point x="348" y="700" type="move" name="top"/>
    </contour>
  </outline>
</glyph>
<glyph name="E" format="1">
  <advance width="546"/>
  <unicode hex="0045"/>
  <outline>
    <contour>
      <point x="149" y="700" type="line" smooth="yes"/>
      <point x="121" y="700"/>
      <point x="108" y="688"/>
      <point x="105" y="660" type="curve"/>
      <point x="105" y="660"/>
      <point x="40" y="38"/>
      <point x="40" y="32" type="curve" smooth="yes"/>
      <point x="40" y="8"/>
      <point x="49" y="0"/>
      <point x="76" y="0" type="curve" smooth="yes"/>
      <point x="444" y="0" type="line" smooth="yes"/>
      <point x="473" y="0"/>
      <point x="482" y="39"/>
      <point x="482" y="91" type="curve" smooth="yes"/>
      <point x="482" y="119"/>
      <point x="474" y="131"/>
      <point x="456" y="131" type="curve" smooth="yes"/>
      <point x="204" y="131" type="line"/>
      <point x="222" y="293" type="line"/>
      <point x="447" y="293" type="line" smooth="yes"/>
      <point x="476" y="293"/>
      <point x="485" y="332"/>
      <point x="485" y="384" type="curve" smooth="yes"/>
      <point x="485" y="412"/>
      <point x="477" y="424"/>
      <point x="459" y="424" type="curve" smooth="yes"/>
      <point x="235" y="424" type="line"/>
      <point x="251" y="569" type="line"/>
      <point x="503" y="569" type="line" smooth="yes"/>
      <point x="532" y="569"/>
      <point x="541" y="608"/>
      <point x="541" y="660" type="curve" smooth="yes"/>
      <point x="541" y="688"/>
      <point x="533" y="700"/>
      <point x="515" y="700" type="curve" smooth="yes"/>
    </contour>
    <contour>
      <point x="444" y="0" type="move" name="ogonek"/>
    </contour>
    <contour>
      <point x="253" y="0" type="move" name="bottom"/>
    </contour>
    <contour>
      <point x="328" y="700" type="move" name="top"/>
    </contour>
  </outline>
</glyph>
<glyph name="F" format="1">
  <advance width="503"/>
  <unicode hex="0046"/>
  <outline>
    <contour>
      <point x="152" y="700" type="line" smooth="yes"/>
      <point x="124" y="700"/>
      <point x="111" y="688"/>
      <point x="108" y="660" type="curve"/>
      <point x="86" y="450"/>
      <point x="64" y="239"/>
      <point x="42" y="29" type="curve"/>
      <point x="42" y="0"/>
      <point x="82" y="-2"/>
      <point x="99" y="-2" type="curve" smooth="yes"/>
      <point x="134" y="-2" type="line" smooth="yes"/>
      <point x="173" y="-2"/>
      <point x="195" y="9"/>
      <point x="197" y="30" type="curve" smooth="yes"/>
      <point x="225" y="292" type="line"/>
      <point x="439" y="292" type="line" smooth="yes"/>
      <point x="468" y="292"/>
      <point x="477" y="331"/>
      <point x="477" y="383" type="curve" smooth="yes"/>
      <point x="477" y="411"/>
      <point x="469" y="423"/>
      <point x="451" y="423" type="curve" smooth="yes"/>
      <point x="238" y="423" type="line"/>
      <point x="254" y="569" type="line"/>
      <point x="475" y="569" type="line" smooth="yes"/>
      <point x="504" y="569"/>
      <point x="513" y="608"/>
      <point x="513" y="660" type="curve" smooth="yes"/>
      <point x="513" y="688"/>
      <point x="505" y="700"/>
      <point x="487" y="700" type="curve" smooth="yes"/>
    </contour>
  </outline>
</glyph>
<glyph name="I" format="1">
  <advance width="282"/>
  <unicode hex="0049"/>
  <outline>
    <contour>
      <point x="160" y="702" type="line" smooth="yes"/>
      <point x="121" y="702"/>
      <point x="99" y="691"/>
      <point x="97" y="670" type="curve" smooth="yes"/>
      <point x="30" y="29" type="line"/>
      <point x="30" y="0"/>
      <point x="70" y="-2"/>
      <point x="87" y="-2" type="curve" smooth="yes"/>
      <point x="122" y="-2" type="line" smooth="yes"/>
      <point x="161" y="-2"/>
      <point x="183" y="9"/>
      <point x="185" y="30" type="curve" smooth="yes"/>
      <point x="252" y="671" type="line"/>
      <point x="252" y="700"/>
      <point x="212" y="702"/>
      <point x="195" y="702" type="curve" smooth="yes"/>
    </contour>
    <contour>
      <point x="142" y="0" type="move" name="ogonek"/>
    </contour>
    <contour>
      <point x="103" y="0" type="move" name="bottom"/>
    </contour>
    <contour>
      <point x="181" y="700" type="move" name="top"/>
    </contour>
  </outline>
</glyph>
<glyph name="L" format="1">
  <advance width="484"/>
  <unicode hex="004C"/>
  <outline>
    <contour>
      <point x="166" y="702" type="line" smooth="yes"/>
      <point x="127" y="702"/>
      <point x="105" y="691"/>
      <point x="103" y="670" type="curve" smooth="yes"/>
      <point x="36" y="32" type="line"/>
      <point x="36" y="8"/>
      <point x="45" y="0"/>
      <point x="72" y="0" type="curve" smooth="yes"/>
      <point x="412" y="0" type="line" smooth="yes"/>
      <point x="441" y="0"/>
      <point x="450" y="39"/>
      <point x="450" y="91" type="curve" smooth="yes"/>
      <point x="450" y="119"/>
      <point x="442" y="131"/>
      <point x="424" y="131" type="curve" smooth="yes"/>
      <point x="201" y="131" type="line"/>
      <point x="258" y="671" type="line"/>
      <point x="258" y="700"/>
      <point x="218" y="702"/>
      <point x="201" y="702" type="curve" smooth="yes"/>
    </contour>
    <contour>
      <point x="330" y="335" type="move" name="center"/>
    </contour>
    <contour>
      <point x="281" y="700" type="move" name="caron"/>
    </contour>
    <contour>
      <point x="184" y="700" type="move" name="top"/>
    </contour>
    <contour>
      <point x="218" y="0" type="move" name="bottom"/>
    </contour>
  </outline>
</glyph>
<glyph name="M" format="1">
  <advance width="843"/>
  <unicode hex="004D"/>
  <outline>
    <contour>
      <point x="704" y="702" type="line" smooth="yes"/>
      <point x="675" y="702"/>
      <point x="652" y="695"/>
      <point x="639" y="675" type="curve" smooth="yes"/>
      <point x="449" y="394" type="line"/>
      <point x="428" y="362" type="line"/>
      <point x="417" y="386" type="line"/>
      <point x="285" y="675" type="line" smooth="yes"/>
      <point x="276" y="695"/>
      <point x="253" y="702"/>
      <point x="224" y="702" type="curve" smooth="yes"/>
      <point x="171" y="702" type="line" smooth="yes"/>
      <point x="129" y="702"/>
      <point x="110" y="691"/>
      <point x="108" y="670" type="curve" smooth="yes"/>
      <point x="41" y="30" type="line"/>
      <point x="41" y="9"/>
      <point x="55" y="-2"/>
      <point x="98" y="-2" type="curve" smooth="yes"/>
      <point x="127" y="-2" type="line" smooth="yes"/>
      <point x="169" y="-2"/>
      <point x="188" y="9"/>
      <point x="190" y="30" type="curve" smooth="yes"/>
      <point x="233" y="444" type="line"/>
      <point x="237" y="445" type="line"/>
      <point x="355" y="186" type="line"/>
      <point x="363" y="174"/>
      <point x="374" y="167"/>
      <point x="393" y="167" type="curve" smooth="yes"/>
      <point x="422" y="167" type="line" smooth="yes"/>
      <point x="441" y="167"/>
      <point x="454" y="174"/>
      <point x="464" y="186" type="curve"/>
      <point x="636" y="445" type="line"/>
      <point x="640" y="444" type="line"/>
      <point x="597" y="30" type="line"/>
      <point x="597" y="9"/>
      <point x="611" y="-2"/>
      <point x="654" y="-2" type="curve" smooth="yes"/>
      <point x="683" y="-2" type="line" smooth="yes"/>
      <point x="725" y="-2"/>
      <point x="744" y="9"/>
      <point x="746" y="30" type="curve" smooth="yes"/>
      <point x="813" y="670" type="line"/>
      <point x="813" y="691"/>
      <point x="799" y="702"/>
      <point x="756" y="702" type="curve" smooth="yes"/>
    </contour>
  </outline>
</glyph>
<glyph name="O" format="1">
  <advance width="731"/>
  <unicode hex="004F"/>
  <outline>
    <contour>
      <point x="140" y="708"/>
      <point x="41" y="496"/>
      <point x="41" y="284" type="curve" smooth="yes"/>
      <point x="41" y="95"/>
      <point x="142" y="-8"/>
      <point x="328" y="-8" type="curve" smooth="yes"/>
      <point x="562" y="-8"/>
      <point x="689" y="143"/>
      <point x="689" y="414" type="curve" smooth="yes"/>
      <point x="689" y="604"/>
      <point x="589" y="708"/>
      <point x="403" y="708" type="curve" smooth="yes"/>
    </contour>
    <contour>
      <point x="483" y="576"/>
      <point x="531" y="515"/>
      <point x="531" y="400" type="curve" smooth="yes"/>
      <point x="531" y="221"/>
      <point x="456" y="123"/>
      <point x="342" y="123" type="curve" smooth="yes"/>
      <point x="248" y="123"/>
      <point x="200" y="184"/>
      <point x="200" y="298" type="curve" smooth="yes"/>
      <point x="200" y="478"/>
      <point x="273" y="576"/>
      <point x="389" y="576" type="curve" smooth="yes"/>
    </contour>
    <contour>
      <point x="423" y="0" type="move" name="ogonek"/>
    </contour>
    <contour>
      <point x="396" y="700" type="move" name="top"/>
    </contour>
    <contour>
      <point x="517" y="682" type="move" name="horn"/>
    </contour>
    <contour>
      <point x="327" y="0" type="move" name="bottom"/>
    </contour>
  </outline>
</glyph>
<glyph name="S" format="1">
  <advance width="500"/>
  <unicode hex="0053"/>
  <outline>
    <contour>
      <point x="182" y="708"/>
      <point x="49" y="650"/>
      <point x="49" y="504" type="curve" smooth="yes"/>
      <point x="49" y="390"/>
      <point x="130" y="347"/>
      <point x="201" y="309" type="curve" smooth="yes"/>
      <point x="257" y="280"/>
      <point x="307" y="253"/>
      <point x="307" y="198" type="curve" smooth="yes"/>
      <point x="307" y="138"/>
      <point x="249" y="123"/>
      <point x="204" y="123" type="curve" smooth="yes"/>
      <point x="145" y="123"/>
      <point x="105" y="149"/>
      <point x="79" y="166" type="curve" smooth="yes"/>
      <point x="66" y="175"/>
      <point x="57" y="181"/>
      <point x="50" y="181" type="curve" smooth="yes"/>
      <point x="41" y="181"/>
      <point x="26" y="169"/>
      <point x="26" y="70" type="curve" smooth="yes"/>
      <point x="26" y="12"/>
      <point x="153" y="-8"/>
      <point x="220" y="-8" type="curve" smooth="yes"/>
      <point x="330" y="-8"/>
      <point x="468" y="45"/>
      <point x="468" y="208" type="curve" smooth="yes"/>
      <point x="468" y="338"/>
      <point x="379" y="382"/>
      <point x="306" y="418" type="curve" smooth="yes"/>
      <point x="254" y="443"/>
      <point x="210" y="465"/>
      <point x="210" y="511" type="curve" smooth="yes"/>
      <point x="210" y="535"/>
      <point x="222" y="576"/>
      <point x="309" y="576" type="curve" smooth="yes"/>
      <point x="355" y="576"/>
      <point x="383" y="564"/>
      <point x="400" y="557" type="curve" smooth="yes"/>
      <point x="408" y="554"/>
      <point x="414" y="551"/>
      <point x="419" y="551" type="curve" smooth="yes"/>
      <point x="442" y="551"/>
      <point x="482" y="615"/>
      <point x="482" y="640" type="curve" smooth="yes"/>
      <point x="482" y="672"/>
      <point x="413" y="708"/>
      <point x="311" y="708" type="curve" smooth="yes"/>
    </contour>
    <contour>
      <point x="289" y="700" type="move" name="top"/>
    </contour>
    <contour>
      <point x="233" y="0" type="move" name="bottom"/>
    </contour>
  </outline>
</glyph>
<glyph name="U" format="1">
  <advance width="712"/>
  <unicode hex="0055"/>
  <outline>
    <contour>
      <point x="589" y="702" type="line" smooth="yes"/>
      <point x="548" y="702"/>
      <point x="527" y="691"/>
      <point x="525" y="670" type="curve" smooth="yes"/>
      <point x="481" y="244" type="line" smooth="yes"/>
      <point x="474" y="174"/>
      <point x="411" y="123"/>
      <point x="331" y="123" type="curve" smooth="yes"/>
      <point x="256" y="123"/>
      <point x="207" y="167"/>
      <point x="207" y="229" type="curve" smooth="yes"/>
      <point x="207" y="234"/>
      <point x="207" y="239"/>
      <point x="252" y="670" type="curve"/>
      <point x="252" y="690"/>
      <point x="239" y="702"/>
      <point x="196" y="702" type="curve" smooth="yes"/>
      <point x="162" y="702" type="line" smooth="yes"/>
      <point x="121" y="702"/>
      <point x="100" y="691"/>
      <point x="98" y="670" type="curve" smooth="yes"/>
      <point x="52" y="222"/>
      <point x="51" y="221"/>
      <point x="51" y="201" type="curve" smooth="yes"/>
      <point x="51" y="67"/>
      <point x="148" y="-8"/>
      <point x="317" y="-8" type="curve" smooth="yes"/>
      <point x="499" y="-8"/>
      <point x="617" y="80"/>
      <point x="633" y="234" type="curve" smooth="yes"/>
      <point x="678" y="670" type="line"/>
      <point x="678" y="690"/>
      <point x="665" y="702"/>
      <point x="622" y="702" type="curve" smooth="yes"/>
    </contour>
    <contour>
      <point x="405" y="0" type="move" name="ogonek"/>
    </contour>
    <contour>
      <point x="396" y="700" type="move" name="top"/>
    </contour>
    <contour>
      <point x="589" y="702" type="move" name="horn"/>
    </contour>
    <contour>
      <point x="317" y="0" type="move" name="bottom"/>
    </contour>
  </outline>
</glyph>
<glyph name="V" format="1">
  <advance width="617"/>
  <unicode hex="0056"/>
  <outline>
    <contour>
      <point x="553" y="702" type="line" smooth="yes"/>
      <point x="525" y="702"/>
      <point x="500" y="694"/>
      <point x="491" y="673" type="curve" smooth="yes"/>
      <point x="308" y="242" type="line"/>
      <point x="292" y="205" type="line"/>
      <point x="288" y="205" type="line"/>
      <point x="281" y="241" type="line"/>
      <point x="191" y="673" type="line" smooth="yes"/>
      <point x="186" y="695"/>
      <point x="164" y="702"/>
      <point x="135" y="702" type="curve" smooth="yes"/>
      <point x="102" y="702" type="line" smooth="yes"/>
      <point x="74" y="702"/>
      <point x="39" y="699"/>
      <point x="39" y="673" type="curve" smooth="yes"/>
      <point x="39" y="670"/>
      <point x="40" y="668"/>
      <point x="190" y="19" type="curve" smooth="yes"/>
      <point x="194" y="3"/>
      <point x="214" y="-2"/>
      <point x="244" y="-2" type="curve" smooth="yes"/>
      <point x="296" y="-2" type="line" smooth="yes"/>
      <point x="325" y="-2"/>
      <point x="347" y="3"/>
      <point x="354" y="19" type="curve" smooth="yes"/>
      <point x="637" y="662" type="line" smooth="yes"/>
      <point x="640" y="668"/>
      <point x="641" y="673"/>
      <point x="641" y="678" type="curve" smooth="yes"/>
      <point x="641" y="701"/>
      <point x="607" y="702"/>
      <point x="584" y="702" type="curve" smooth="yes"/>
    </contour>
  </outline>
</glyph>
<glyph name="W" format="1">
  <advance width="882"/>
  <unicode hex="0057"/>
  <outline>
    <contour>
      <point x="849" y="702" type="line" smooth="yes"/>
      <point x="810" y="702"/>
      <point x="786" y="692"/>
      <point x="779" y="671" type="curve" smooth="yes"/>
      <point x="667" y="349" type="line"/>
      <point x="618" y="198" type="line"/>
      <point x="612" y="248"/>
      <point x="605" y="299"/>
      <point x="599" y="349" type="curve"/>
      <point x="555" y="681" type="line" smooth="yes"/>
      <point x="553" y="697"/>
      <point x="534" y="702"/>
      <point x="502" y="702" type="curve" smooth="yes"/>
      <point x="464" y="702" type="line" smooth="yes"/>
      <point x="432" y="702"/>
      <point x="413" y="697"/>
      <point x="407" y="681" type="curve" smooth="yes"/>
      <point x="290" y="349" type="line"/>
      <point x="241" y="205" type="line"/>
      <point x="236" y="253"/>
      <point x="230" y="301"/>
      <point x="225" y="349" type="curve"/>
      <point x="184" y="671" type="line" smooth="yes"/>
      <point x="181" y="692"/>
      <point x="159" y="702"/>
      <point x="120" y="702" type="curve" smooth="yes"/>
      <point x="94" y="702" type="line" smooth="yes"/>
      <point x="43" y="702"/>
      <point x="29" y="689"/>
      <point x="29" y="669" type="curve"/>
      <point x="121" y="19" type="line"/>
      <point x="122" y="5"/>
      <point x="142" y="-2"/>
      <point x="174" y="-2" type="curve" smooth="yes"/>
      <point x="246" y="-2" type="line" smooth="yes"/>
      <point x="274" y="-2"/>
      <point x="297" y="5"/>
      <point x="303" y="19" type="curve"/>
      <point x="416" y="343" type="line"/>
      <point x="448" y="433" type="line"/>
      <point x="460" y="346" type="line"/>
      <point x="503" y="19" type="line" smooth="yes"/>
      <point x="505" y="5"/>
      <point x="527" y="-2"/>
      <point x="556" y="-2" type="curve" smooth="yes"/>
      <point x="629" y="-2" type="line" smooth="yes"/>
      <point x="656" y="-2"/>
      <point x="681" y="5"/>
      <point x="686" y="19" type="curve" smooth="yes"/>
      <point x="916" y="662"/>
      <point x="920" y="668"/>
      <point x="920" y="677" type="curve" smooth="yes"/>
      <point x="920" y="692"/>
      <point x="902" y="702"/>
      <point x="860" y="702" type="curve" smooth="yes"/>
    </contour>
    <contour>
      <point x="483" y="700" type="move" name="top"/>
    </contour>
  </outline>
</glyph>
<glyph name="Z" format="1">
  <advance width="616"/>
  <unicode hex="005A"/>
  <outline>
    <contour>
      <point x="119" y="700" type="line" smooth="yes"/>
      <point x="90" y="700"/>
      <point x="81" y="661"/>
      <point x="81" y="609" type="curve" smooth="yes"/>
      <point x="81" y="581"/>
      <point x="89" y="569"/>
      <point x="107" y="569" type="curve" smooth="yes"/>
      <point x="385" y="569" type="line"/>
      <point x="4" y="102" type="line" smooth="yes"/>
      <point x="2" y="100"/>
      <point x="1" y="95"/>
      <point x="1" y="87" type="curve" smooth="yes"/>
      <point x="1" y="59"/>
      <point x="14" y="0"/>
      <point x="33" y="0" type="curve" smooth="yes"/>
      <point x="512" y="0" type="line" smooth="yes"/>
      <point x="541" y="0"/>
      <point x="550" y="39"/>
      <point x="550" y="91" type="curve" smooth="yes"/>
      <point x="550" y="119"/>
      <point x="542" y="131"/>
      <point x="524" y="131" type="curve" smooth="yes"/>
      <point x="219" y="131" type="line"/>
      <point x="601" y="598" type="line" smooth="yes"/>
      <point x="603" y="600"/>
      <point x="604" y="605"/>
      <point x="604" y="613" type="curve" smooth="yes"/>
      <point x="604" y="641"/>
      <point x="591" y="700"/>
      <point x="572" y="700" type="curve" smooth="yes"/>
    </contour>
    <contour>
      <point x="332" y="700" type="move" name="top"/>
    </contour>
    <contour>
      <point x="273" y="0" type="move" name="bottom"/>
    </contour>
  </outline>
</glyph>
<glyph name="bracketleft" format="1">
  <advance width="291"/>
  <unicode hex="005B"/>
  <outline>
    <contour>
      <point x="153" y="768" type="line" smooth="yes"/>
      <point x="125" y="768"/>
      <point x="112" y="756"/>
      <point x="109" y="728" type="curve"/>
      <point x="80" y="450"/>
      <point x="22" y="-93"/>
      <point x="22" y="-106" type="curve" smooth="yes"/>
      <point x="22" y="-130"/>
      <point x="31" y="-138"/>
      <point x="58" y="-138" type="curve" smooth="yes"/>
      <point x="184" y="-138" type="line" smooth="yes"/>
      <point x="217" y="-138"/>
      <point x="221" y="-94"/>
      <point x="221" y="-73" type="curve" smooth="yes"/>
      <point x="221" y="-53"/>
      <point x="212" y="-43"/>
      <point x="195" y="-43" type="curve" smooth="yes"/>
      <point x="143" y="-43" type="line"/>
      <point x="218" y="673" type="line"/>
      <point x="269" y="673" type="line" smooth="yes"/>
      <point x="302" y="673"/>
      <point x="306" y="717"/>
      <point x="306" y="738" type="curve" smooth="yes"/>
      <point x="306" y="758"/>
      <point x="297" y="768"/>
      <point x="280" y="768" type="curve" smooth="yes"/>
    </contour>
  </outline>
</glyph>
<glyph name="bracketright" format="1">
  <advance width="291"/>
  <unicode hex="005D"/>
  <outline>
    <contour>
      <point x="108" y="768" type="line" smooth="yes"/>
      <point x="75" y="768"/>
      <point x="71" y="724"/>
      <point x="71" y="703" type="curve" smooth="yes"/>
      <point x="71" y="683"/>
      <point x="80" y="673"/>
      <point x="97" y="673" type="curve" smooth="yes"/>
      <point x="149" y="673" type="line"/>
      <point x="74" y="-43" type="line"/>
      <point x="23" y="-43" type="line" smooth="yes"/>
      <point x="-10" y="-43"/>
      <point x="-14" y="-87"/>
      <point x="-14" y="-108" type="curve" smooth="yes"/>
      <point x="-14" y="-128"/>
      <point x="-5" y="-138"/>
      <point x="12" y="-138" type="curve" smooth="yes"/>
      <point x="139" y="-138" type="line" smooth="yes"/>
      <point x="167" y="-138"/>
      <point x="180" y="-126"/>
      <point x="183" y="-98" type="curve"/>
      <point x="212" y="180"/>
      <point x="270" y="714"/>
      <point x="270" y="736" type="curve" smooth="yes"/>
      <point x="270" y="760"/>
      <point x="261" y="768"/>
      <point x="234" y="768" type="curve" smooth="yes"/>
    </contour>
  </outline>
</glyph>
<glyph name="asciicircum" format="1">
  <advance width="450"/>
  <unicode hex="005E"/>
  <outline>
    <contour>
      <point x="229" y="686" type="line" smooth="yes"/>
      <point x="208" y="686"/>
      <point x="194" y="676"/>
      <point x="184" y="656" type="curve" smooth="yes"/>
      <point x="22" y="348" type="line" smooth="yes"/>
      <point x="18" y="341"/>
      <point x="17" y="336"/>
      <point x="17" y="332" type="curve" smooth="yes"/>
      <point x="17" y="323"/>
      <point x="26" y="318"/>
      <point x="47" y="318" type="curve" smooth="yes"/>
      <point x="68" y="318" type="line" smooth="yes"/>
      <point x="94" y="318"/>
      <point x="111" y="327"/>
      <point x="122" y="348" type="curve" smooth="yes"/>
      <point x="230" y="555" type="line"/>
      <point x="294" y="348" type="line" smooth="yes"/>
      <point x="300" y="327"/>
      <point x="317" y="318"/>
      <point x="343" y="318" type="curve" smooth="yes"/>
      <point x="364" y="318" type="line" smooth="yes"/>
      <point x="386" y="318"/>
      <point x="397" y="324"/>
      <point x="398" y="333" type="curve" smooth="yes"/>
      <point x="398" y="337"/>
      <point x="398" y="342"/>
      <point x="395" y="348" type="curve"/>
      <point x="299" y="656" type="line" smooth="yes"/>
      <point x="293" y="676"/>
      <point x="279" y="686"/>
      <point x="260" y="686" type="curve" smooth="yes"/>
    </contour>
  </outline>
</glyph>
<glyph name="underscore" format="1">
  <advance width="534"/>
  <unicode hex="005F"/>
  <outline>
    <contour>
      <point x="16" y="-36" type="line" smooth="yes"/>
      <point x="-18" y="-36"/>
      <point x="-21" y="-85"/>
      <point x="-21" y="-109" type="curve" smooth="yes"/>
      <point x="-21" y="-133"/>
      <point x="-13" y="-143"/>
      <point x="5" y="-143" type="curve" smooth="yes"/>
      <point x="520" y="-143" type="line" smooth="yes"/>
      <point x="553" y="-143"/>
      <point x="557" y="-93"/>
      <point x="557" y="-70" type="curve" smooth="yes"/>
      <point x="557" y="-47"/>
      <point x="548" y="-36"/>
      <point x="531" y="-36" type="curve" smooth="yes"/>
    </contour>
  </outline>
</glyph>
<glyph name="grave" format="1">
  <advance width="320"/>
  <unicode hex="0060"/>
  <outline>
    <contour>
      <point x="80" y="734"/>
      <point x="60" y="731"/>
      <point x="60" y="718" type="curve" smooth="yes"/>
      <point x="60" y="708"/>
      <point x="70" y="700"/>
      <point x="152" y="600" type="curve" smooth="yes"/>
      <point x="162" y="588"/>
      <point x="177" y="575"/>
      <point x="224" y="575" type="curve" smooth="yes"/>
      <point x="248" y="575"/>
      <point x="257" y="579"/>
      <point x="257" y="591" type="curve" smooth="yes"/>
      <point x="257" y="602"/>
      <point x="241" y="628"/>
      <point x="204" y="707" type="curve" smooth="yes"/>
      <point x="194" y="728"/>
      <point x="162" y="734"/>
      <point x="122" y="734" type="curve" smooth="yes"/>
    </contour>
    <contour>
      <point x="210" y="700" type="move" name="top"/>
    </contour>
    <contour>
      <point x="192" y="523" type="move" name="_top"/>
    </contour>
  </outline>
</glyph>
<glyph name="a" format="1">
  <advance width="545"/>
  <unicode hex="0061"/>
  <outline>
    <contour>
      <point x="115" y="530"/>
      <point x="24" y="400"/>
      <point x="24" y="208" type="curve" smooth="yes"/>
      <point x="24" y="67"/>
      <point x="89" y="-9"/>
      <point x="186" y="-9" type="curve" smooth="yes"/>
      <point x="260" y="-9"/>
      <point x="320" y="45"/>
      <point x="341" y="105" type="curve"/>
      <point x="317" y="123" type="line"/>
      <point x="317" y="114" type="line"/>
      <point x="317" y="27"/>
      <point x="361" y="-8"/>
      <point x="437" y="-8" type="curve" smooth="yes"/>
      <point x="472" y="-8"/>
      <point x="519" y="7"/>
      <point x="525" y="44" type="curve" smooth="yes"/>
      <point x="531" y="79"/>
      <point x="532" y="102"/>
      <point x="532" y="104" type="curve" smooth="yes"/>
      <point x="532" y="113"/>
      <point x="530" y="115"/>
      <point x="524" y="115" type="curve" smooth="yes"/>
      <point x="520" y="115"/>
      <point x="509" y="109"/>
      <point x="495" y="109" type="curve" smooth="yes"/>
      <point x="474" y="109"/>
      <point x="465" y="118"/>
      <point x="465" y="141" type="curve" smooth="yes"/>
      <point x="465" y="158"/>
      <point x="502" y="495"/>
      <point x="502" y="499" type="curve" smooth="yes"/>
      <point x="502" y="515"/>
      <point x="484" y="524"/>
      <point x="444" y="524" type="curve" smooth="yes"/>
      <point x="432" y="524" type="line" smooth="yes"/>
      <point x="381" y="523"/>
      <point x="378" y="513"/>
      <point x="367" y="477" type="curve"/>
      <point x="346" y="497"/>
      <point x="303" y="530"/>
      <point x="246" y="530" type="curve" smooth="yes"/>
    </contour>
    <contour>
      <point x="308" y="413"/>
      <point x="329" y="401"/>
      <point x="346" y="386" type="curve"/>
      <point x="341" y="360"/>
      <point x="338" y="348"/>
      <point x="336" y="335" type="curve" smooth="yes"/>
      <point x="332" y="313"/>
      <point x="325" y="217"/>
      <point x="320" y="170" type="curve"/>
      <point x="300" y="139"/>
      <point x="274" y="112"/>
      <point x="242" y="112" type="curve" smooth="yes"/>
      <point x="196" y="112"/>
      <point x="174" y="148"/>
      <point x="174" y="217" type="curve" smooth="yes"/>
      <point x="174" y="345"/>
      <point x="213" y="413"/>
      <point x="280" y="413" type="curve" smooth="yes"/>
    </contour>
    <contour>
      <point x="478" y="0" type="move" name="ogonek"/>
    </contour>
    <contour>
      <point x="231" y="0" type="move" name="bottom"/>
    </contour>
    <contour>
      <point x="295" y="523" type="move" name="top"/>
    </contour>
  </outline>
</glyph>
<glyph name="c" format="1">
  <advance width="485"/>
  <unicode hex="0063"/>
  <outline>
    <contour>
      <point x="102" y="531"/>
      <point x="33" y="378"/>
      <point x="33" y="204" type="curve" smooth="yes"/>
      <point x="33" y="61"/>
      <point x="107" y="-8"/>
      <point x="260" y="-8" type="curve" smooth="yes"/>
      <point x="312" y="-8"/>
      <point x="405" y="8"/>
      <point x="423" y="58" type="curve"/>
      <point x="428" y="75"/>
      <point x="431" y="131"/>
      <point x="431" y="135" type="curve" smooth="yes"/>
      <point x="431" y="149"/>
      <point x="428" y="149"/>
      <point x="424" y="149" type="curve" smooth="yes"/>
      <point x="420" y="149"/>
      <point x="413" y="146"/>
      <point x="403" y="141" type="curve" smooth="yes"/>
      <point x="379" y="129"/>
      <point x="337" y="109"/>
      <point x="279" y="109" type="curve" smooth="yes"/>
      <point x="214" y="109"/>
      <point x="186" y="145"/>
      <point x="186" y="219" type="curve" smooth="yes"/>
      <point x="186" y="349"/>
      <point x="229" y="414"/>
      <point x="318" y="414" type="curve" smooth="yes"/>
      <point x="362" y="414"/>
      <point x="385" y="401"/>
      <point x="400" y="393" type="curve" smooth="yes"/>
      <point x="407" y="389"/>
      <point x="411" y="386"/>
      <point x="416" y="386" type="curve" smooth="yes"/>
      <point x="437" y="386"/>
      <point x="471" y="443"/>
      <point x="471" y="462" type="curve" smooth="yes"/>
      <point x="470" y="520"/>
      <point x="361" y="531"/>
      <point x="313" y="531" type="curve" smooth="yes"/>
    </contour>
    <contour>
      <point x="297" y="523" type="move" name="top"/>
    </contour>
    <contour>
      <point x="243" y="0" type="move" name="bottom"/>
    </contour>
  </outline>
</glyph>
<glyph name="f" format="1">
  <advance width="325"/>
  <unicode hex="0066"/>
  <outline>
    <contour>
      <point x="168" y="760"/>
      <point x="109" y="700"/>
      <point x="100" y="598" type="curve" smooth="yes"/>
      <point x="93" y="523" type="line"/>
      <point x="72" y="523" type="line" smooth="yes"/>
      <point x="43" y="523"/>
      <point x="34" y="488"/>
      <point x="34" y="442" type="curve" smooth="yes"/>
      <point x="34" y="417"/>
      <point x="42" y="406"/>
      <point x="60" y="406" type="curve" smooth="yes"/>
      <point x="80" y="406" type="line"/>
      <point x="41" y="29" type="line"/>
      <point x="41" y="13"/>
      <point x="58" y="-2"/>
      <point x="98" y="-2" type="curve" smooth="yes"/>
      <point x="126" y="-2" type="line" smooth="yes"/>
      <point x="165" y="-2"/>
      <point x="187" y="9"/>
      <point x="189" y="30" type="curve" smooth="yes"/>
      <point x="228" y="406" type="line"/>
      <point x="258" y="406" type="line" smooth="yes"/>
      <point x="297" y="406"/>
      <point x="316" y="466"/>
      <point x="316" y="503" type="curve" smooth="yes"/>
      <point x="316" y="517"/>
      <point x="314" y="523"/>
      <point x="300" y="523" type="curve" smooth="yes"/>
      <point x="240" y="523" type="line"/>
      <point x="249" y="600" type="line" smooth="yes"/>
      <point x="252" y="629"/>
      <point x="263" y="643"/>
      <point x="289" y="643" type="curve" smooth="yes"/>
      <point x="309" y="643"/>
      <point x="314" y="638"/>
      <point x="322" y="638" type="curve" smooth="yes"/>
      <point x="339" y="638"/>
      <point x="359" y="697"/>
      <point x="359" y="714" type="curve" smooth="yes"/>
      <point x="359" y="752"/>
      <point x="311" y="760"/>
      <point x="263" y="760" type="curve" smooth="yes"/>
    </contour>
  </outline>
</glyph>
<glyph name="i" format="1">
  <advance width="265"/>
  <unicode hex="0069"/>
  <outline>
    <contour>
      <point x="130" y="525" type="line" smooth="yes"/>
      <point x="91" y="525"/>
      <point x="69" y="514"/>
      <point x="67" y="493" type="curve"/>
      <point x="67" y="493"/>
      <point x="29" y="147"/>
      <point x="29" y="119" type="curve" smooth="yes"/>
      <point x="29" y="29"/>
      <point x="72" y="-8"/>
      <point x="150" y="-8" type="curve" smooth="yes"/>
      <point x="185" y="-8"/>
      <point x="232" y="7"/>
      <point x="238" y="44" type="curve" smooth="yes"/>
      <point x="244" y="79"/>
      <point x="245" y="102"/>
      <point x="245" y="104" type="curve" smooth="yes"/>
      <point x="245" y="113"/>
      <point x="243" y="115"/>
      <point x="237" y="115" type="curve" smooth="yes"/>
      <point x="233" y="115"/>
      <point x="222" y="109"/>
      <point x="208" y="109" type="curve" smooth="yes"/>
      <point x="187" y="109"/>
      <point x="178" y="119"/>
      <point x="178" y="142" type="curve" smooth="yes"/>
      <point x="178" y="152"/>
      <point x="215" y="494"/>
      <point x="215" y="494" type="curve"/>
      <point x="215" y="510"/>
      <point x="198" y="525"/>
      <point x="158" y="525" type="curve" smooth="yes"/>
    </contour>
    <contour>
      <point x="154" y="754" type="line" smooth="yes"/>
      <point x="115" y="754"/>
      <point x="93" y="743"/>
      <point x="91" y="722" type="curve" smooth="yes"/>
      <point x="82" y="640" type="line"/>
      <point x="82" y="624"/>
      <point x="99" y="609"/>
      <point x="139" y="609" type="curve" smooth="yes"/>
      <point x="167" y="609" type="line" smooth="yes"/>
      <point x="206" y="609"/>
      <point x="228" y="620"/>
      <point x="230" y="641" type="curve" smooth="yes"/>
      <point x="239" y="723" type="line"/>
      <point x="239" y="739"/>
      <point x="222" y="754"/>
      <point x="182" y="754" type="curve" smooth="yes"/>
    </contour>
    <contour>
      <point x="101" y="0" type="move" name="bottom"/>
    </contour>
  </outline>
</glyph>
<glyph name="l" format="1">
  <advance width="297"/>
  <unicode hex="006C"/>
  <outline>
    <contour>
      <point x="148" y="755" type="line" smooth="yes"/>
      <point x="111" y="755"/>
      <point x="99" y="745"/>
      <point x="96" y="725" type="curve"/>
      <point x="96" y="725"/>
      <point x="33" y="150"/>
      <point x="33" y="119" type="curve" smooth="yes"/>
      <point x="33" y="29"/>
      <point x="76" y="-8"/>
      <point x="154" y="-8" type="curve" smooth="yes"/>
      <point x="189" y="-8"/>
      <point x="236" y="7"/>
      <point x="242" y="44" type="curve" smooth="yes"/>
      <point x="248" y="79"/>
      <point x="249" y="102"/>
      <point x="249" y="104" type="curve" smooth="yes"/>
      <point x="249" y="113"/>
      <point x="247" y="115"/>
      <point x="241" y="115" type="curve" smooth="yes"/>
      <point x="237" y="115"/>
      <point x="226" y="109"/>
      <point x="212" y="109" type="curve" smooth="yes"/>
      <point x="191" y="109"/>
      <point x="182" y="119"/>
      <point x="182" y="142" type="curve" smooth="yes"/>
      <point x="182" y="146"/>
      <point x="243" y="728"/>
      <point x="243" y="728" type="curve"/>
      <point x="243" y="744"/>
      <point x="232" y="755"/>
      <point x="196" y="755" type="curve" smooth="yes"/>
    </contour>
    <contour>
      <point x="305" y="335" type="move" name="center"/>
    </contour>
    <contour>
      <point x="223" y="752" type="move" name="caron"/>
    </contour>
    <contour>
      <point x="176" y="720" type="move" name="top"/>
    </contour>
    <contour>
      <point x="149" y="0" type="move" name="bottom"/>
    </contour>
  </outline>
</glyph>
<glyph name="o" format="1">
  <advance width="569"/>
  <unicode hex="006F"/>
  <outline>
    <contour>
      <point x="98" y="531"/>
      <point x="33" y="374"/>
      <point x="33" y="211" type="curve" smooth="yes"/>
      <point x="33" y="69"/>
      <point x="107" y="-8"/>
      <point x="250" y="-8" type="curve" smooth="yes"/>
      <point x="419" y="-8"/>
      <point x="524" y="106"/>
      <point x="524" y="311" type="curve" smooth="yes"/>
      <point x="524" y="454"/>
      <point x="450" y="531"/>
      <point x="307" y="531" type="curve" smooth="yes"/>
    </contour>
    <contour>
      <point x="349" y="414"/>
      <point x="373" y="377"/>
      <point x="373" y="304" type="curve" smooth="yes"/>
      <point x="373" y="177"/>
      <point x="331" y="109"/>
      <point x="262" y="109" type="curve" smooth="yes"/>
      <point x="208" y="109"/>
      <point x="183" y="146"/>
      <point x="183" y="218" type="curve" smooth="yes"/>
      <point x="183" y="346"/>
      <point x="225" y="414"/>
      <point x="295" y="414" type="curve" smooth="yes"/>
    </contour>
    <contour>
      <point x="313" y="0" type="move" name="ogonek"/>
    </contour>
    <contour>
      <point x="294" y="523" type="move" name="top"/>
    </contour>
    <contour>
      <point x="402" y="505" type="move" name="horn"/>
    </contour>
    <contour>
      <point x="251" y="0" type="move" name="bottom"/>
    </contour>
  </outline>
</glyph>
<glyph name="s" format="1">
  <advance width="413"/>
  <unicode hex="0073"/>
  <outline>
    <contour>
      <point x="127" y="531"/>
      <point x="42" y="470"/>
      <point x="42" y="362" type="curve" smooth="yes"/>
      <point x="42" y="270"/>
      <point x="104" y="240"/>
      <point x="155" y="215" type="curve" smooth="yes"/>
      <point x="190" y="198"/>
      <point x="220" y="184"/>
      <point x="220" y="153" type="curve" smooth="yes"/>
      <point x="220" y="127"/>
      <point x="198" y="109"/>
      <point x="154" y="109" type="curve" smooth="yes"/>
      <point x="114" y="109"/>
      <point x="81" y="125"/>
      <point x="63" y="134" type="curve" smooth="yes"/>
      <point x="54" y="139"/>
      <point x="47" y="143"/>
      <point x="44" y="143" type="curve" smooth="yes"/>
      <point x="38" y="143"/>
      <point x="22" y="140"/>
      <point x="22" y="53" type="curve" smooth="yes"/>
      <point x="22" y="-1"/>
      <point x="133" y="-8"/>
      <point x="171" y="-8" type="curve" smooth="yes"/>
      <point x="284" y="-8"/>
      <point x="372" y="54"/>
      <point x="372" y="165" type="curve" smooth="yes"/>
      <point x="372" y="261"/>
      <point x="307" y="292"/>
      <point x="255" y="316" type="curve" smooth="yes"/>
      <point x="222" y="332"/>
      <point x="194" y="345"/>
      <point x="194" y="371" type="curve" smooth="yes"/>
      <point x="194" y="396"/>
      <point x="211" y="415"/>
      <point x="248" y="415" type="curve" smooth="yes"/>
      <point x="272" y="415"/>
      <point x="296" y="407"/>
      <point x="313" y="401" type="curve" smooth="yes"/>
      <point x="322" y="397"/>
      <point x="329" y="395"/>
      <point x="333" y="395" type="curve" smooth="yes"/>
      <point x="353" y="395"/>
      <point x="386" y="451"/>
      <point x="386" y="470" type="curve" smooth="yes"/>
      <point x="386" y="518"/>
      <point x="294" y="531"/>
      <point x="241" y="531" type="curve" smooth="yes"/>
    </contour>
    <contour>
      <point x="227" y="523" type="move" name="top"/>
    </contour>
    <contour>
      <point x="187" y="0" type="move" name="bottom"/>
    </contour>
  </outline>
</glyph>
<glyph name="t" format="1">
  <advance width="342"/>
  <unicode hex="0074"/>
  <outline>
    <contour>
      <point x="170" y="650" type="line" smooth="yes"/>
      <point x="131" y="650"/>
      <point x="109" y="639"/>
      <point x="107" y="618" type="curve" smooth="yes"/>
      <point x="97" y="523" type="line"/>
      <point x="77" y="523" type="line" smooth="yes"/>
      <point x="48" y="523"/>
      <point x="39" y="488"/>
      <point x="39" y="442" type="curve" smooth="yes"/>
      <point x="39" y="417"/>
      <point x="47" y="406"/>
      <point x="65" y="406" type="curve" smooth="yes"/>
      <point x="85" y="406" type="line"/>
      <point x="85" y="406"/>
      <point x="56" y="147"/>
      <point x="56" y="125" type="curve" smooth="yes"/>
      <point x="56" y="32"/>
      <point x="106" y="-8"/>
      <point x="186" y="-8" type="curve" smooth="yes"/>
      <point x="221" y="-8"/>
      <point x="268" y="7"/>
      <point x="274" y="44" type="curve" smooth="yes"/>
      <point x="280" y="79"/>
      <point x="281" y="102"/>
      <point x="281" y="104" type="curve" smooth="yes"/>
      <point x="281" y="113"/>
      <point x="279" y="115"/>
      <point x="273" y="115" type="curve" smooth="yes"/>
      <point x="268" y="115"/>
      <point x="254" y="109"/>
      <point x="235" y="109" type="curve" smooth="yes"/>
      <point x="214" y="109"/>
      <point x="205" y="119"/>
      <point x="205" y="142" type="curve" smooth="yes"/>
      <point x="205" y="145"/>
      <point x="233" y="406"/>
      <point x="233" y="406" type="curve"/>
      <point x="262" y="406" type="line" smooth="yes"/>
      <point x="301" y="406"/>
      <point x="320" y="466"/>
      <point x="320" y="503" type="curve" smooth="yes"/>
      <point x="320" y="517"/>
      <point x="318" y="523"/>
      <point x="304" y="523" type="curve" smooth="yes"/>
      <point x="245" y="523" type="line"/>
      <point x="255" y="619" type="line"/>
      <point x="255" y="635"/>
      <point x="238" y="650"/>
      <point x="198" y="650" type="curve" smooth="yes"/>
    </contour>
    <contour>
      <point x="241" y="752" type="move" name="caron"/>
    </contour>
    <contour>
      <point x="161" y="0" type="move" name="bottom"/>
    </contour>
    <contour>
      <point x="156" y="292" type="move" name="center"/>
    </contour>
  </outline>
</glyph>
<glyph name="w" format="1">
  <advance width="747"/>
  <unicode hex="0077"/>
  <outline>
    <contour>
      <point x="649" y="525"/>
      <point x="629" y="518"/>
      <point x="624" y="504" type="curve" smooth="yes"/>
      <point x="511" y="196" type="line"/>
      <point x="469" y="504" type="line" smooth="yes"/>
      <point x="467" y="518"/>
      <point x="444" y="525"/>
      <point x="416" y="525" type="curve" smooth="yes"/>
      <point x="392" y="525" type="line" smooth="yes"/>
      <point x="359" y="525"/>
      <point x="340" y="518"/>
      <point x="335" y="504" type="curve" smooth="yes"/>
      <point x="227" y="196" type="line"/>
      <point x="180" y="504" type="line" smooth="yes"/>
      <point x="178" y="518"/>
      <point x="154" y="525"/>
      <point x="127" y="525" type="curve" smooth="yes"/>
      <point x="103" y="525" type="line" smooth="yes"/>
      <point x="60" y="525"/>
      <point x="40" y="515"/>
      <point x="38" y="499" type="curve" smooth="yes"/>
      <point x="38" y="485"/>
      <point x="41" y="470"/>
      <point x="116" y="19" type="curve" smooth="yes"/>
      <point x="118" y="5"/>
      <point x="136" y="-2"/>
      <point x="169" y="-2" type="curve" smooth="yes"/>
      <point x="218" y="-2" type="line" smooth="yes"/>
      <point x="247" y="-2"/>
      <point x="270" y="5"/>
      <point x="275" y="19" type="curve" smooth="yes"/>
      <point x="373" y="300" type="line"/>
      <point x="415" y="19" type="line"/>
      <point x="418" y="5"/>
      <point x="436" y="-2"/>
      <point x="468" y="-2" type="curve" smooth="yes"/>
      <point x="517" y="-2" type="line" smooth="yes"/>
      <point x="545" y="-2"/>
      <point x="569" y="5"/>
      <point x="574" y="19" type="curve" smooth="yes"/>
      <point x="741" y="484" type="line" smooth="yes"/>
      <point x="743" y="491"/>
      <point x="744" y="497"/>
      <point x="744" y="501" type="curve" smooth="yes"/>
      <point x="744" y="516"/>
      <point x="726" y="525"/>
      <point x="685" y="525" type="curve" smooth="yes"/>
    </contour>
    <contour>
      <point x="404" y="523" type="move" name="top"/>
    </contour>
  </outline>
</glyph>
<glyph name="y" format="1">
  <advance width="481"/>
  <unicode hex="0079"/>
  <outline>
    <contour>
      <point x="413" y="525" type="line" smooth="yes"/>
      <point x="383" y="525"/>
      <point x="362" y="520"/>
      <point x="355" y="504" type="curve" smooth="yes"/>
      <point x="276" y="319" type="line" smooth="yes"/>
      <point x="267" y="297"/>
      <point x="249" y="241"/>
      <point x="236" y="198" type="curve"/>
      <point x="232" y="198" type="line"/>
      <point x="227" y="241"/>
      <point x="221" y="296"/>
      <point x="216" y="319" type="curve" smooth="yes"/>
      <point x="177" y="504" type="line" smooth="yes"/>
      <point x="173" y="520"/>
      <point x="150" y="525"/>
      <point x="123" y="525" type="curve" smooth="yes"/>
      <point x="91" y="525" type="line" smooth="yes"/>
      <point x="43" y="525"/>
      <point x="27" y="515"/>
      <point x="27" y="499" type="curve" smooth="yes"/>
      <point x="27" y="495"/>
      <point x="28" y="490"/>
      <point x="144" y="0" type="curve"/>
      <point x="63" y="-167" type="line" smooth="yes"/>
      <point x="59" y="-174"/>
      <point x="57" y="-181"/>
      <point x="57" y="-186" type="curve" smooth="yes"/>
      <point x="57" y="-199"/>
      <point x="75" y="-206"/>
      <point x="115" y="-206" type="curve" smooth="yes"/>
      <point x="132" y="-206" type="line" smooth="yes"/>
      <point x="161" y="-206"/>
      <point x="183" y="-201"/>
      <point x="190" y="-185" type="curve" smooth="yes"/>
      <point x="490" y="485" type="line" smooth="yes"/>
      <point x="493" y="492"/>
      <point x="495" y="499"/>
      <point x="495" y="504" type="curve" smooth="yes"/>
      <point x="495" y="517"/>
      <point x="478" y="525"/>
      <point x="437" y="525" type="curve" smooth="yes"/>
    </contour>
    <contour>
      <point x="261" y="523" type="move" name="top"/>
    </contour>
    <contour>
      <point x="341" y="-36" type="move" name="bottom"/>
    </contour>
  </outline>
</glyph>
<glyph name="exclamdown" format="1">
  <advance width="294"/>
  <unicode hex="00A1"/>
  <outline>
    <contour>
      <point x="161" y="301" type="line" smooth="yes"/>
      <point x="120" y="301"/>
      <point x="112" y="290"/>
      <point x="107" y="269" type="curve"/>
      <point x="75" y="129"/>
      <point x="12" y="-125"/>
      <point x="12" y="-150" type="curve"/>
      <point x="12" y="-168"/>
      <point x="30" y="-179"/>
      <point x="70" y="-179" type="curve" smooth="yes"/>
      <point x="113" y="-179" type="line" smooth="yes"/>
      <point x="155" y="-179"/>
      <point x="174" y="-168"/>
      <point x="176" y="-147" type="curve" smooth="yes"/>
      <point x="220" y="269" type="line"/>
      <point x="220" y="291"/>
      <point x="215" y="301"/>
      <point x="172" y="301" type="curve" smooth="yes"/>
    </contour>
    <contour>
      <point x="174" y="525" type="line" smooth="yes"/>
      <point x="132" y="525"/>
      <point x="113" y="514"/>
      <point x="111" y="493" type="curve" smooth="yes"/>
      <point x="101" y="401" type="line"/>
      <point x="101" y="380"/>
      <point x="115" y="369"/>
      <point x="158" y="369" type="curve" smooth="yes"/>
      <point x="190" y="369" type="line" smooth="yes"/>
      <point x="232" y="369"/>
      <point x="251" y="380"/>
      <point x="253" y="401" type="curve" smooth="yes"/>
      <point x="263" y="493" type="line"/>
      <point x="263" y="514"/>
      <point x="249" y="525"/>
      <point x="206" y="525" type="curve" smooth="yes"/>
    </contour>
  </outline>
</glyph>
<glyph name="cent" format="1">
  <advance width="486"/>
  <unicode hex="00A2"/>
  <outline>
    <contour>
      <point x="318" y="591" type="line" smooth="yes"/>
      <point x="303" y="591"/>
      <point x="298" y="585"/>
      <point x="296" y="571" type="curve" smooth="yes"/>
      <point x="291" y="530" type="line"/>
      <point x="101" y="520"/>
      <point x="38" y="372"/>
      <point x="38" y="204" type="curve" smooth="yes"/>
      <point x="38" y="69"/>
      <point x="102" y="0"/>
      <point x="235" y="-7" type="curve"/>
      <point x="233" y="-23"/>
      <point x="230" y="-52"/>
      <point x="230" y="-55" type="curve"/>
      <point x="230" y="-69"/>
      <point x="233" y="-75"/>
      <point x="248" y="-75" type="curve" smooth="yes"/>
      <point x="265" y="-75" type="line" smooth="yes"/>
      <point x="278" y="-75"/>
      <point x="285" y="-69"/>
      <point x="287" y="-55" type="curve" smooth="yes"/>
      <point x="292" y="-6" type="line"/>
      <point x="343" y="-1"/>
      <point x="407" y="15"/>
      <point x="420" y="58" type="curve" smooth="yes"/>
      <point x="425" y="74"/>
      <point x="428" y="131"/>
      <point x="428" y="135" type="curve" smooth="yes"/>
      <point x="428" y="149"/>
      <point x="424" y="149"/>
      <point x="420" y="149" type="curve" smooth="yes"/>
      <point x="407" y="149"/>
      <point x="369" y="117"/>
      <point x="304" y="110" type="curve"/>
      <point x="336" y="413" type="line"/>
      <point x="384" y="408"/>
      <point x="400" y="386"/>
      <point x="413" y="386" type="curve" smooth="yes"/>
      <point x="434" y="386"/>
      <point x="468" y="443"/>
      <point x="468" y="462" type="curve" smooth="yes"/>
      <point x="468" y="508"/>
      <point x="400" y="524"/>
      <point x="348" y="529" type="curve"/>
      <point x="350" y="543"/>
      <point x="353" y="567"/>
      <point x="353" y="571" type="curve" smooth="yes"/>
      <point x="353" y="585"/>
      <point x="349" y="591"/>
      <point x="335" y="591" type="curve" smooth="yes"/>
    </contour>
    <contour>
      <point x="247" y="113" type="line"/>
      <point x="207" y="124"/>
      <point x="189" y="159"/>
      <point x="189" y="219" type="curve" smooth="yes"/>
      <point x="189" y="327"/>
      <point x="219" y="390"/>
      <point x="279" y="408" type="curve"/>
    </contour>
  </outline>
</glyph>
<glyph name="yen" format="1">
  <advance width="559"/>
  <unicode hex="00A5"/>
  <outline>
    <contour>
      <point x="483" y="333" type="line"/>
      <point x="516" y="333"/>
      <point x="520" y="368"/>
      <point x="520" y="384" type="curve" smooth="yes"/>
      <point x="520" y="400"/>
      <point x="511" y="408"/>
      <point x="494" y="408" type="curve"/>
      <point x="78" y="408" type="line"/>
      <point x="44" y="408"/>
      <point x="41" y="374"/>
      <point x="41" y="357" type="curve" smooth="yes"/>
      <point x="41" y="340"/>
      <point x="49" y="333"/>
      <point x="67" y="333" type="curve"/>
    </contour>
    <contour>
      <point x="468" y="195" type="line"/>
      <point x="501" y="195"/>
      <point x="505" y="230"/>
      <point x="505" y="246" type="curve" smooth="yes"/>
      <point x="505" y="262"/>
      <point x="496" y="270"/>
      <point x="479" y="270" type="curve"/>
      <point x="63" y="270" type="line"/>
      <point x="29" y="270"/>
      <point x="26" y="236"/>
      <point x="26" y="219" type="curve" smooth="yes"/>
      <point x="26" y="202"/>
      <point x="34" y="195"/>
      <point x="52" y="195" type="curve"/>
    </contour>
    <component base="Y"/>
  </outline>
</glyph>
<glyph name="brokenbar" format="1">
  <advance width="250"/>
  <unicode hex="00A6"/>
  <outline>
    <contour>
      <point x="165" y="770" type="line" smooth="yes"/>
      <point x="130" y="770"/>
      <point x="114" y="759"/>
      <point x="112" y="738" type="curve"/>
      <point x="100" y="628"/>
      <point x="77" y="415"/>
      <point x="77" y="407" type="curve" smooth="yes"/>
      <point x="77" y="389"/>
      <point x="92" y="380"/>
      <point x="124" y="380" type="curve" smooth="yes"/>
      <point x="139" y="380" type="line" smooth="yes"/>
      <point x="173" y="380"/>
      <point x="191" y="391"/>
      <point x="193" y="412" type="curve" smooth="yes"/>
      <point x="204" y="521"/>
      <point x="227" y="728"/>
      <point x="227" y="738" type="curve" smooth="yes"/>
      <point x="227" y="758"/>
      <point x="217" y="770"/>
      <point x="180" y="770" type="curve" smooth="yes"/>
    </contour>
    <contour>
      <point x="111" y="250" type="line" smooth="yes"/>
      <point x="76" y="250"/>
      <point x="59" y="239"/>
      <point x="57" y="218" type="curve" smooth="yes"/>
      <point x="46" y="109"/>
      <point x="23" y="-97"/>
      <point x="23" y="-108" type="curve" smooth="yes"/>
      <point x="23" y="-129"/>
      <point x="33" y="-140"/>
      <point x="70" y="-140" type="curve" smooth="yes"/>
      <point x="85" y="-140" type="line" smooth="yes"/>
      <point x="120" y="-140"/>
      <point x="136" y="-129"/>
      <point x="138" y="-108" type="curve" smooth="yes"/>
      <point x="149" y="1"/>
      <point x="172" y="206"/>
      <point x="172" y="218" type="curve" smooth="yes"/>
      <point x="172" y="239"/>
      <point x="162" y="250"/>
      <point x="126" y="250" type="curve" smooth="yes"/>
    </contour>
  </outline>
</glyph>
<glyph name="section" format="1">
  <advance width="429"/>
  <unicode hex="00A7"/>
  <outline>
    <contour>
      <point x="142" y="708"/>
      <point x="61" y="642"/>
      <point x="61" y="534" type="curve" smooth="yes"/>
      <point x="61" y="499"/>
      <point x="72" y="476"/>
      <point x="90" y="459" type="curve"/>
      <point x="59" y="426"/>
      <point x="40" y="380"/>
      <point x="40" y="329" type="curve" smooth="yes"/>
      <point x="40" y="180"/>
      <point x="219" y="203"/>
      <point x="219" y="143" type="curve" smooth="yes"/>
      <point x="219" y="120"/>
      <point x="199" y="109"/>
      <point x="162" y="109" type="curve" smooth="yes"/>
      <point x="108" y="109"/>
      <point x="70" y="137"/>
      <point x="62" y="137" type="curve" smooth="yes"/>
      <point x="56" y="137"/>
      <point x="40" y="134"/>
      <point x="40" y="47" type="curve" smooth="yes"/>
      <point x="40" y="-3"/>
      <point x="141" y="-7"/>
      <point x="170" y="-7" type="curve" smooth="yes"/>
      <point x="289" y="-7"/>
      <point x="371" y="59"/>
      <point x="371" y="166" type="curve" smooth="yes"/>
      <point x="371" y="200"/>
      <point x="359" y="224"/>
      <point x="342" y="242" type="curve"/>
      <point x="376" y="279"/>
      <point x="392" y="325"/>
      <point x="392" y="372" type="curve" smooth="yes"/>
      <point x="392" y="521"/>
      <point x="213" y="498"/>
      <point x="213" y="558" type="curve" smooth="yes"/>
      <point x="213" y="581"/>
      <point x="232" y="592"/>
      <point x="270" y="592" type="curve" smooth="yes"/>
      <point x="321" y="592"/>
      <point x="338" y="572"/>
      <point x="351" y="572" type="curve" smooth="yes"/>
      <point x="371" y="572"/>
      <point x="404" y="628"/>
      <point x="404" y="647" type="curve" smooth="yes"/>
      <point x="404" y="695"/>
      <point x="317" y="708"/>
      <point x="262" y="708" type="curve" smooth="yes"/>
    </contour>
    <contour>
      <point x="226" y="395"/>
      <point x="259" y="380"/>
      <point x="259" y="341" type="curve" smooth="yes"/>
      <point x="259" y="321"/>
      <point x="252" y="304"/>
      <point x="245" y="292" type="curve"/>
      <point x="205" y="306"/>
      <point x="173" y="321"/>
      <point x="173" y="359" type="curve" smooth="yes"/>
      <point x="173" y="373"/>
      <point x="177" y="394"/>
      <point x="187" y="409" type="curve"/>
    </contour>
  </outline>
</glyph>
<glyph name="dieresis" format="1">
  <advance width="320"/>
  <unicode hex="00A8"/>
  <outline>
    <contour>
      <point x="215" y="702"/>
      <point x="196" y="691"/>
      <point x="194" y="670" type="curve" smooth="yes"/>
      <point x="187" y="610" type="line"/>
      <point x="187" y="589"/>
      <point x="201" y="578"/>
      <point x="244" y="578" type="curve" smooth="yes"/>
      <point x="284" y="578"/>
      <point x="304" y="589"/>
      <point x="307" y="610" type="curve" smooth="yes"/>
      <point x="314" y="670" type="line"/>
      <point x="314" y="691"/>
      <point x="300" y="702"/>
      <point x="257" y="702" type="curve" smooth="yes"/>
    </contour>
    <contour>
      <point x="35" y="702"/>
      <point x="16" y="691"/>
      <point x="14" y="670" type="curve" smooth="yes"/>
      <point x="7" y="610" type="line"/>
      <point x="7" y="589"/>
      <point x="21" y="578"/>
      <point x="64" y="578" type="curve" smooth="yes"/>
      <point x="104" y="578"/>
      <point x="124" y="589"/>
      <point x="127" y="610" type="curve" smooth="yes"/>
      <point x="134" y="670" type="line"/>
      <point x="134" y="691"/>
      <point x="120" y="702"/>
      <point x="77" y="702" type="curve" smooth="yes"/>
    </contour>
    <contour>
      <point x="170" y="700" type="move" name="top"/>
    </contour>
    <contour>
      <point x="147" y="523" type="move" name="_top"/>
    </contour>
  </outline>
</glyph>
<glyph name="ordfeminine" format="1">
  <advance width="319"/>
  <unicode hex="00AA"/>
  <outline>
    <contour>
      <point x="69" y="707"/>
      <point x="24" y="643"/>
      <point x="24" y="548" type="curve" smooth="yes"/>
      <point x="24" y="478"/>
      <point x="56" y="440"/>
      <point x="104" y="440" type="curve" smooth="yes"/>
      <point x="149" y="440"/>
      <point x="182" y="479"/>
      <point x="188" y="518" type="curve"/>
      <point x="170" y="502" type="line"/>
      <point x="170" y="496" type="line"/>
      <point x="170" y="457"/>
      <point x="192" y="441"/>
      <point x="228" y="441" type="curve" smooth="yes"/>
      <point x="250" y="441"/>
      <point x="267" y="448"/>
      <point x="271" y="460" type="curve" smooth="yes"/>
      <point x="274" y="469"/>
      <point x="275" y="480"/>
      <point x="275" y="496" type="curve" smooth="yes"/>
      <point x="275" y="501"/>
      <point x="275" y="502"/>
      <point x="272" y="502" type="curve" smooth="yes"/>
      <point x="270" y="502"/>
      <point x="264" y="499"/>
      <point x="257" y="499" type="curve" smooth="yes"/>
      <point x="247" y="499"/>
      <point x="242" y="503"/>
      <point x="242" y="514" type="curve" smooth="yes"/>
      <point x="242" y="523"/>
      <point x="261" y="690"/>
      <point x="261" y="692" type="curve" smooth="yes"/>
      <point x="261" y="700"/>
      <point x="252" y="704"/>
      <point x="232" y="704" type="curve" smooth="yes"/>
      <point x="226" y="704" type="line" smooth="yes"/>
      <point x="201" y="704"/>
      <point x="199" y="699"/>
      <point x="194" y="681" type="curve"/>
      <point x="183" y="691"/>
      <point x="162" y="707"/>
      <point x="134" y="707" type="curve" smooth="yes"/>
    </contour>
    <contour>
      <point x="165" y="649"/>
      <point x="175" y="643"/>
      <point x="183" y="636" type="curve"/>
      <point x="177" y="600"/>
      <point x="178" y="613"/>
      <point x="171" y="529" type="curve"/>
      <point x="161" y="513"/>
      <point x="148" y="500"/>
      <point x="132" y="500" type="curve" smooth="yes"/>
      <point x="109" y="500"/>
      <point x="98" y="518"/>
      <point x="98" y="552" type="curve" smooth="yes"/>
      <point x="98" y="615"/>
      <point x="118" y="649"/>
      <point x="151" y="649" type="curve" smooth="yes"/>
    </contour>
  </outline>
</glyph>
<glyph name="guillemotleft" format="1">
  <advance width="471"/>
  <unicode hex="00AB"/>
  <outline>
    <contour>
      <point x="408" y="469"/>
      <point x="399" y="465"/>
      <point x="389" y="455" type="curve" smooth="yes"/>
      <point x="246" y="302" type="line" smooth="yes"/>
      <point x="230" y="285"/>
      <point x="225" y="271"/>
      <point x="225" y="247" type="curve" smooth="yes"/>
      <point x="225" y="234"/>
      <point x="229" y="225"/>
      <point x="237" y="214" type="curve" smooth="yes"/>
      <point x="348" y="61" type="line" smooth="yes"/>
      <point x="355" y="51"/>
      <point x="364" y="46"/>
      <point x="373" y="46" type="curve" smooth="yes"/>
      <point x="399" y="46"/>
      <point x="437" y="79"/>
      <point x="437" y="99" type="curve" smooth="yes"/>
      <point x="437" y="105"/>
      <point x="435" y="111"/>
      <point x="431" y="118" type="curve" smooth="yes"/>
      <point x="336" y="258" type="line"/>
      <point x="460" y="398" type="line" smooth="yes"/>
      <point x="467" y="406"/>
      <point x="472" y="414"/>
      <point x="472" y="422" type="curve" smooth="yes"/>
      <point x="472" y="444"/>
      <point x="436" y="469"/>
      <point x="418" y="469" type="curve" smooth="yes"/>
    </contour>
    <contour>
      <point x="209" y="469"/>
      <point x="200" y="465"/>
      <point x="190" y="455" type="curve" smooth="yes"/>
      <point x="47" y="302" type="line" smooth="yes"/>
      <point x="31" y="285"/>
      <point x="26" y="271"/>
      <point x="26" y="247" type="curve" smooth="yes"/>
      <point x="26" y="235"/>
      <point x="29" y="225"/>
      <point x="38" y="214" type="curve"/>
      <point x="149" y="61" type="line" smooth="yes"/>
      <point x="156" y="51"/>
      <point x="165" y="46"/>
      <point x="174" y="46" type="curve" smooth="yes"/>
      <point x="200" y="46"/>
      <point x="238" y="79"/>
      <point x="238" y="99" type="curve" smooth="yes"/>
      <point x="238" y="105"/>
      <point x="236" y="111"/>
      <point x="232" y="118" type="curve" smooth="yes"/>
      <point x="137" y="258" type="line"/>
      <point x="261" y="398" type="line" smooth="yes"/>
      <point x="268" y="406"/>
      <point x="273" y="414"/>
      <point x="273" y="422" type="curve" smooth="yes"/>
      <point x="273" y="444"/>
      <point x="237" y="469"/>
      <point x="219" y="469" type="curve" smooth="yes"/>
    </contour>
  </outline>
</glyph>
<glyph name="logicalnot" format="1">
  <advance width="560"/>
  <unicode hex="00AC"/>
  <outline>
    <contour>
      <point x="74" y="349" type="line" smooth="yes"/>
      <point x="40" y="349"/>
      <point x="37" y="300"/>
      <point x="37" y="276" type="curve" smooth="yes"/>
      <point x="37" y="252"/>
      <point x="45" y="242"/>
      <point x="63" y="242" type="curve" smooth="yes"/>
      <point x="433" y="242" type="line"/>
      <point x="418" y="104" type="line"/>
      <point x="418" y="83"/>
      <point x="425" y="72"/>
      <point x="455" y="72" type="curve" smooth="yes"/>
      <point x="475" y="72" type="line" smooth="yes"/>
      <point x="503" y="72"/>
      <point x="516" y="83"/>
      <point x="518" y="104" type="curve" smooth="yes"/>
      <point x="540" y="309" type="line"/>
      <point x="540" y="336"/>
      <point x="533" y="349"/>
      <point x="504" y="349" type="curve" smooth="yes"/>
    </contour>
  </outline>
</glyph>
<glyph name="macron" format="1">
  <advance width="320"/>
  <unicode hex="00AF"/>
  <outline>
    <contour>
      <point x="55" y="692" type="line" smooth="yes"/>
      <point x="21" y="692"/>
      <point x="18" y="648"/>
      <point x="18" y="627" type="curve" smooth="yes"/>
      <point x="18" y="606"/>
      <point x="26" y="597"/>
      <point x="44" y="597" type="curve" smooth="yes"/>
      <point x="260" y="597" type="line" smooth="yes"/>
      <point x="293" y="597"/>
      <point x="297" y="641"/>
      <point x="297" y="662" type="curve" smooth="yes"/>
      <point x="297" y="682"/>
      <point x="288" y="692"/>
      <point x="271" y="692" type="curve" smooth="yes"/>
    </contour>
    <contour>
      <point x="170" y="700" type="move" name="top"/>
    </contour>
    <contour>
      <point x="141" y="523" type="move" name="_top"/>
    </contour>
  </outline>
</glyph>
<glyph name="degree" format="1">
  <advance width="345"/>
  <unicode hex="00B0"/>
  <outline>
    <contour>
      <point x="92" y="708"/>
      <point x="36" y="635"/>
      <point x="36" y="562" type="curve" smooth="yes"/>
      <point x="36" y="495"/>
      <point x="87" y="443"/>
      <point x="156" y="443" type="curve" smooth="yes"/>
      <point x="244" y="443"/>
      <point x="303" y="510"/>
      <point x="303" y="589" type="curve" smooth="yes"/>
      <point x="303" y="656"/>
      <point x="251" y="708"/>
      <point x="183" y="708" type="curve" smooth="yes"/>
    </contour>
    <contour>
      <point x="211" y="646"/>
      <point x="237" y="619"/>
      <point x="237" y="584" type="curve" smooth="yes"/>
      <point x="237" y="541"/>
      <point x="209" y="505"/>
      <point x="162" y="505" type="curve" smooth="yes"/>
      <point x="127" y="505"/>
      <point x="101" y="532"/>
      <point x="101" y="567" type="curve" smooth="yes"/>
      <point x="101" y="608"/>
      <point x="129" y="646"/>
      <point x="177" y="646" type="curve" smooth="yes"/>
    </contour>
  </outline>
</glyph>
<glyph name="plusminus" format="1">
  <advance width="560"/>
  <unicode hex="00B1"/>
  <outline>
    <contour>
      <point x="303" y="604" type="line" smooth="yes"/>
      <point x="268" y="604"/>
      <point x="252" y="595"/>
      <point x="250" y="574" type="curve" smooth="yes"/>
      <point x="234" y="420" type="line"/>
      <point x="83" y="420" type="line" smooth="yes"/>
      <point x="49" y="420"/>
      <point x="46" y="371"/>
      <point x="46" y="347" type="curve" smooth="yes"/>
      <point x="46" y="323"/>
      <point x="54" y="313"/>
      <point x="72" y="313" type="curve" smooth="yes"/>
      <point x="223" y="313" type="line"/>
      <point x="207" y="161" type="line"/>
      <point x="207" y="140"/>
      <point x="217" y="131"/>
      <point x="254" y="131" type="curve" smooth="yes"/>
      <point x="268" y="131" type="line" smooth="yes"/>
      <point x="303" y="131"/>
      <point x="319" y="140"/>
      <point x="321" y="161" type="curve" smooth="yes"/>
      <point x="337" y="313" type="line"/>
      <point x="490" y="313" type="line" smooth="yes"/>
      <point x="526" y="313"/>
      <point x="527" y="359"/>
      <point x="527" y="384" type="curve" smooth="yes"/>
      <point x="527" y="409"/>
      <point x="519" y="420"/>
      <point x="501" y="420" type="curve" smooth="yes"/>
      <point x="348" y="420" type="line"/>
      <point x="364" y="574" type="line"/>
      <point x="364" y="595"/>
      <point x="354" y="604"/>
      <point x="317" y="604" type="curve" smooth="yes"/>
    </contour>
    <contour>
      <point x="51" y="107" type="line" smooth="yes"/>
      <point x="17" y="107"/>
      <point x="14" y="58"/>
      <point x="14" y="34" type="curve" smooth="yes"/>
      <point x="14" y="10"/>
      <point x="22" y="0"/>
      <point x="40" y="0" type="curve" smooth="yes"/>
      <point x="457" y="0" type="line" smooth="yes"/>
      <point x="490" y="0"/>
      <point x="494" y="50"/>
      <point x="494" y="73" type="curve" smooth="yes"/>
      <point x="494" y="96"/>
      <point x="485" y="107"/>
      <point x="468" y="107" type="curve" smooth="yes"/>
    </contour>
  </outline>
</glyph>
<glyph name="uni00B2" format="1">
  <advance width="320"/>
  <unicode hex="00B2"/>
  <outline>
    <contour>
      <point x="129" y="708"/>
      <point x="57" y="691"/>
      <point x="57" y="651" type="curve" smooth="yes"/>
      <point x="57" y="636"/>
      <point x="70" y="614"/>
      <point x="87" y="614" type="curve" smooth="yes"/>
      <point x="97" y="614"/>
      <point x="116" y="639"/>
      <point x="157" y="639" type="curve" smooth="yes"/>
      <point x="187" y="639"/>
      <point x="207" y="625"/>
      <point x="207" y="597" type="curve" smooth="yes"/>
      <point x="207" y="576"/>
      <point x="194" y="552"/>
      <point x="179" y="536" type="curve" smooth="yes"/>
      <point x="12" y="354" type="line" smooth="yes"/>
      <point x="11" y="352"/>
      <point x="10" y="348"/>
      <point x="10" y="344" type="curve" smooth="yes"/>
      <point x="10" y="326"/>
      <point x="18" y="294"/>
      <point x="26" y="294" type="curve" smooth="yes"/>
      <point x="253" y="294" type="line" smooth="yes"/>
      <point x="270" y="294"/>
      <point x="276" y="314"/>
      <point x="276" y="341" type="curve" smooth="yes"/>
      <point x="276" y="356"/>
      <point x="271" y="362"/>
      <point x="260" y="362" type="curve" smooth="yes"/>
      <point x="121" y="362" type="line"/>
      <point x="234" y="484" type="line"/>
      <point x="281" y="539"/>
      <point x="295" y="568"/>
      <point x="295" y="608" type="curve" smooth="yes"/>
      <point x="295" y="662"/>
      <point x="250" y="708"/>
      <point x="175" y="708" type="curve" smooth="yes"/>
    </contour>
  </outline>
</glyph>
<glyph name="uni00B3" format="1">
  <advance width="320"/>
  <unicode hex="00B3"/>
  <outline>
    <contour>
      <point x="110" y="708"/>
      <point x="51" y="694"/>
      <point x="51" y="664" type="curve" smooth="yes"/>
      <point x="51" y="648"/>
      <point x="64" y="621"/>
      <point x="75" y="621" type="curve" smooth="yes"/>
      <point x="86" y="621"/>
      <point x="102" y="639"/>
      <point x="147" y="639" type="curve" smooth="yes"/>
      <point x="175" y="639"/>
      <point x="189" y="624"/>
      <point x="189" y="600" type="curve" smooth="yes"/>
      <point x="189" y="566"/>
      <point x="165" y="543"/>
      <point x="123" y="543" type="curve" smooth="yes"/>
      <point x="112" y="543" type="line" smooth="yes"/>
      <point x="94" y="543"/>
      <point x="89" y="523"/>
      <point x="89" y="496" type="curve" smooth="yes"/>
      <point x="89" y="481"/>
      <point x="94" y="475"/>
      <point x="104" y="475" type="curve" smooth="yes"/>
      <point x="121" y="475" type="line" smooth="yes"/>
      <point x="166" y="475"/>
      <point x="184" y="457"/>
      <point x="184" y="425" type="curve" smooth="yes"/>
      <point x="184" y="383"/>
      <point x="158" y="358"/>
      <point x="120" y="358" type="curve" smooth="yes"/>
      <point x="70" y="358"/>
      <point x="46" y="381"/>
      <point x="38" y="381" type="curve" smooth="yes"/>
      <point x="32" y="381"/>
      <point x="24" y="369"/>
      <point x="24" y="326" type="curve" smooth="yes"/>
      <point x="24" y="293"/>
      <point x="96" y="290"/>
      <point x="126" y="290" type="curve" smooth="yes"/>
      <point x="208" y="290"/>
      <point x="272" y="342"/>
      <point x="272" y="429" type="curve" smooth="yes"/>
      <point x="272" y="470"/>
      <point x="254" y="501"/>
      <point x="214" y="516" type="curve"/>
      <point x="214" y="521" type="line"/>
      <point x="252" y="536"/>
      <point x="279" y="572"/>
      <point x="279" y="618" type="curve" smooth="yes"/>
      <point x="279" y="674"/>
      <point x="237" y="708"/>
      <point x="169" y="708" type="curve" smooth="yes"/>
    </contour>
  </outline>
</glyph>
<glyph name="acute" format="1">
  <advance width="320"/>
  <unicode hex="00B4"/>
  <outline>
    <contour>
      <point x="172" y="734"/>
      <point x="138" y="728"/>
      <point x="124" y="707" type="curve" smooth="yes"/>
      <point x="66" y="619"/>
      <point x="47" y="599"/>
      <point x="47" y="588" type="curve" smooth="yes"/>
      <point x="47" y="578"/>
      <point x="54" y="575"/>
      <point x="76" y="575" type="curve" smooth="yes"/>
      <point x="123" y="575"/>
      <point x="142" y="588"/>
      <point x="154" y="600" type="curve" smooth="yes"/>
      <point x="266" y="710"/>
      <point x="270" y="708"/>
      <point x="270" y="721" type="curve" smooth="yes"/>
      <point x="270" y="731"/>
      <point x="250" y="734"/>
      <point x="212" y="734" type="curve" smooth="yes"/>
    </contour>
    <contour>
      <point x="140" y="700" type="move" name="top"/>
    </contour>
    <contour>
      <point x="104" y="523" type="move" name="_top"/>
    </contour>
  </outline>
</glyph>
<glyph name="periodcentered" format="1">
  <advance width="267"/>
  <unicode hex="00B7"/>
  <outline>
    <contour>
      <point x="97" y="429"/>
      <point x="70" y="388"/>
      <point x="70" y="350" type="curve" smooth="yes"/>
      <point x="70" y="315"/>
      <point x="97" y="289"/>
      <point x="133" y="289" type="curve" smooth="yes"/>
      <point x="179" y="289"/>
      <point x="211" y="324"/>
      <point x="211" y="366" type="curve" smooth="yes"/>
      <point x="211" y="402"/>
      <point x="184" y="429"/>
      <point x="148" y="429" type="curve" smooth="yes"/>
    </contour>
    <contour>
      <point x="140" y="335" type="move" name="_center"/>
    </contour>
  </outline>
</glyph>
<glyph name="uni00B9" format="1">
  <advance width="217"/>
  <unicode hex="00B9"/>
  <outline>
    <contour>
      <point x="36" y="678" type="line" smooth="yes"/>
      <point x="20" y="675"/>
      <point x="18" y="664"/>
      <point x="18" y="647" type="curve" smooth="yes"/>
      <point x="18" y="631"/>
      <point x="21" y="611"/>
      <point x="33" y="611" type="curve"/>
      <point x="113" y="624" type="line"/>
      <point x="80" y="312" type="line"/>
      <point x="80" y="300"/>
      <point x="88" y="293"/>
      <point x="113" y="293" type="curve" smooth="yes"/>
      <point x="129" y="293" type="line" smooth="yes"/>
      <point x="153" y="293"/>
      <point x="165" y="300"/>
      <point x="166" y="312" type="curve" smooth="yes"/>
      <point x="206" y="690" type="line"/>
      <point x="206" y="697"/>
      <point x="193" y="704"/>
      <point x="184" y="704" type="curve"/>
    </contour>
  </outline>
</glyph>
<glyph name="onequarter" format="1">
  <advance width="671"/>
  <unicode hex="00BC"/>
  <outline>
    <contour>
      <point x="558" y="700" type="line" smooth="yes"/>
      <point x="538" y="700"/>
      <point x="522" y="692"/>
      <point x="510" y="674" type="curve" smooth="yes"/>
      <point x="83" y="26" type="line" smooth="yes"/>
      <point x="78" y="19"/>
      <point x="76" y="14"/>
      <point x="76" y="9" type="curve" smooth="yes"/>
      <point x="76" y="2"/>
      <point x="83" y="0"/>
      <point x="96" y="0" type="curve" smooth="yes"/>
      <point x="113" y="0" type="line" smooth="yes"/>
      <point x="133" y="0"/>
      <point x="147" y="7"/>
      <point x="160" y="26" type="curve" smooth="yes"/>
      <point x="587" y="674" type="line"/>
      <point x="592" y="680"/>
      <point x="595" y="686"/>
      <point x="595" y="690" type="curve" smooth="yes"/>
      <point x="595" y="696"/>
      <point x="588" y="700"/>
      <point x="575" y="700" type="curve" smooth="yes"/>
    </contour>
    <contour>
      <point x="64" y="678" type="line" smooth="yes"/>
      <point x="48" y="675"/>
      <point x="46" y="664"/>
      <point x="46" y="647" type="curve" smooth="yes"/>
      <point x="46" y="631"/>
      <point x="49" y="611"/>
      <point x="61" y="611" type="curve"/>
      <point x="141" y="624" type="line"/>
      <point x="108" y="312" type="line"/>
      <point x="108" y="300"/>
      <point x="116" y="293"/>
      <point x="141" y="293" type="curve" smooth="yes"/>
      <point x="157" y="293" type="line" smooth="yes"/>
      <point x="181" y="293"/>
      <point x="193" y="300"/>
      <point x="194" y="312" type="curve" smooth="yes"/>
      <point x="234" y="690" type="line"/>
      <point x="234" y="697"/>
      <point x="221" y="704"/>
      <point x="212" y="704" type="curve"/>
    </contour>
    <contour>
      <point x="564" y="410" type="line" smooth="yes"/>
      <point x="547" y="410"/>
      <point x="535" y="409"/>
      <point x="527" y="399" type="curve" smooth="yes"/>
      <point x="327" y="143" type="line" smooth="yes"/>
      <point x="326" y="142"/>
      <point x="326" y="137"/>
      <point x="326" y="133" type="curve" smooth="yes"/>
      <point x="326" y="116"/>
      <point x="332" y="82"/>
      <point x="341" y="82" type="curve" smooth="yes"/>
      <point x="495" y="82" type="line"/>
      <point x="488" y="17" type="line"/>
      <point x="488" y="5"/>
      <point x="496" y="-2"/>
      <point x="521" y="-2" type="curve" smooth="yes"/>
      <point x="537" y="-2" type="line" smooth="yes"/>
      <point x="562" y="-2"/>
      <point x="573" y="5"/>
      <point x="574" y="17" type="curve" smooth="yes"/>
      <point x="581" y="82" type="line"/>
      <point x="604" y="82" type="line" smooth="yes"/>
      <point x="621" y="82"/>
      <point x="626" y="103"/>
      <point x="626" y="130" type="curve" smooth="yes"/>
      <point x="626" y="144"/>
      <point x="622" y="151"/>
      <point x="611" y="151" type="curve" smooth="yes"/>
      <point x="588" y="151" type="line"/>
      <point x="613" y="391" type="line"/>
      <point x="613" y="403"/>
      <point x="605" y="410"/>
      <point x="580" y="410" type="curve" smooth="yes"/>
    </contour>
    <contour>
      <point x="511" y="236" type="line"/>
      <point x="502" y="151" type="line"/>
      <point x="414" y="151" type="line"/>
      <point x="519" y="291" type="line"/>
      <point x="523" y="291" type="line"/>
    </contour>
  </outline>
</glyph>
<glyph name="onehalf" format="1">
  <advance width="746"/>
  <unicode hex="00BD"/>
  <outline>
    <contour>
      <point x="558" y="700" type="line" smooth="yes"/>
      <point x="538" y="700"/>
      <point x="522" y="692"/>
      <point x="510" y="674" type="curve" smooth="yes"/>
      <point x="83" y="26" type="line" smooth="yes"/>
      <point x="78" y="19"/>
      <point x="76" y="14"/>
      <point x="76" y="9" type="curve" smooth="yes"/>
      <point x="76" y="2"/>
      <point x="83" y="0"/>
      <point x="96" y="0" type="curve" smooth="yes"/>
      <point x="113" y="0" type="line" smooth="yes"/>
      <point x="133" y="0"/>
      <point x="147" y="7"/>
      <point x="160" y="26" type="curve" smooth="yes"/>
      <point x="587" y="674" type="line"/>
      <point x="592" y="680"/>
      <point x="595" y="686"/>
      <point x="595" y="690" type="curve" smooth="yes"/>
      <point x="595" y="696"/>
      <point x="588" y="700"/>
      <point x="575" y="700" type="curve" smooth="yes"/>
    </contour>
    <contour>
      <point x="64" y="678" type="line" smooth="yes"/>
      <point x="48" y="675"/>
      <point x="46" y="664"/>
      <point x="46" y="647" type="curve" smooth="yes"/>
      <point x="46" y="631"/>
      <point x="49" y="611"/>
      <point x="61" y="611" type="curve"/>
      <point x="141" y="624" type="line"/>
      <point x="108" y="312" type="line"/>
      <point x="108" y="300"/>
      <point x="116" y="293"/>
      <point x="141" y="293" type="curve" smooth="yes"/>
      <point x="157" y="293" type="line" smooth="yes"/>
      <point x="181" y="293"/>
      <point x="193" y="300"/>
      <point x="194" y="312" type="curve" smooth="yes"/>
      <point x="234" y="690" type="line"/>
      <point x="234" y="697"/>
      <point x="221" y="704"/>
      <point x="212" y="704" type="curve"/>
    </contour>
    <contour>
      <point x="523" y="414"/>
      <point x="451" y="397"/>
      <point x="451" y="357" type="curve" smooth="yes"/>
      <point x="451" y="342"/>
      <point x="464" y="320"/>
      <point x="481" y="320" type="curve" smooth="yes"/>
      <point x="491" y="320"/>
      <point x="510" y="345"/>
      <point x="551" y="345" type="curve" smooth="yes"/>
      <point x="581" y="345"/>
      <point x="601" y="331"/>
      <point x="601" y="303" type="curve" smooth="yes"/>
      <point x="601" y="282"/>
      <point x="588" y="258"/>
      <point x="573" y="242" type="curve" smooth="yes"/>
      <point x="406" y="60" type="line" smooth="yes"/>
      <point x="405" y="58"/>
      <point x="404" y="54"/>
      <point x="404" y="50" type="curve" smooth="yes"/>
      <point x="404" y="32"/>
      <point x="412" y="0"/>
      <point x="420" y="0" type="curve" smooth="yes"/>
      <point x="647" y="0" type="line" smooth="yes"/>
      <point x="664" y="0"/>
      <point x="670" y="20"/>
      <point x="670" y="47" type="curve" smooth="yes"/>
      <point x="670" y="62"/>
      <point x="665" y="68"/>
      <point x="654" y="68" type="curve" smooth="yes"/>
      <point x="515" y="68" type="line"/>
      <point x="614" y="175" type="line"/>
      <point x="672" y="240"/>
      <point x="689" y="271"/>
      <point x="689" y="314" type="curve" smooth="yes"/>
      <point x="689" y="368"/>
      <point x="644" y="414"/>
      <point x="569" y="414" type="curve" smooth="yes"/>
    </contour>
  </outline>
</glyph>
<glyph name="threequarters" format="1">
  <advance width="738"/>
  <unicode hex="00BE"/>
  <outline>
    <contour>
      <point x="598" y="700" type="line" smooth="yes"/>
      <point x="578" y="700"/>
      <point x="562" y="692"/>
      <point x="550" y="674" type="curve" smooth="yes"/>
      <point x="123" y="26" type="line" smooth="yes"/>
      <point x="118" y="19"/>
      <point x="116" y="14"/>
      <point x="116" y="9" type="curve" smooth="yes"/>
      <point x="116" y="2"/>
      <point x="123" y="0"/>
      <point x="136" y="0" type="curve" smooth="yes"/>
      <point x="153" y="0" type="line" smooth="yes"/>
      <point x="173" y="0"/>
      <point x="187" y="7"/>
      <point x="200" y="26" type="curve" smooth="yes"/>
      <point x="627" y="674" type="line"/>
      <point x="632" y="680"/>
      <point x="635" y="686"/>
      <point x="635" y="690" type="curve" smooth="yes"/>
      <point x="635" y="696"/>
      <point x="628" y="700"/>
      <point x="615" y="700" type="curve" smooth="yes"/>
    </contour>
    <contour>
      <point x="131" y="708"/>
      <point x="72" y="694"/>
      <point x="72" y="664" type="curve" smooth="yes"/>
      <point x="72" y="648"/>
      <point x="85" y="621"/>
      <point x="96" y="621" type="curve" smooth="yes"/>
      <point x="107" y="621"/>
      <point x="123" y="639"/>
      <point x="168" y="639" type="curve" smooth="yes"/>
      <point x="196" y="639"/>
      <point x="210" y="624"/>
      <point x="210" y="600" type="curve" smooth="yes"/>
      <point x="210" y="566"/>
      <point x="186" y="543"/>
      <point x="144" y="543" type="curve" smooth="yes"/>
      <point x="133" y="543" type="line" smooth="yes"/>
      <point x="115" y="543"/>
      <point x="110" y="523"/>
      <point x="110" y="496" type="curve" smooth="yes"/>
      <point x="110" y="481"/>
      <point x="115" y="475"/>
      <point x="125" y="475" type="curve" smooth="yes"/>
      <point x="142" y="475" type="line" smooth="yes"/>
      <point x="187" y="475"/>
      <point x="205" y="457"/>
      <point x="205" y="425" type="curve" smooth="yes"/>
      <point x="205" y="383"/>
      <point x="179" y="358"/>
      <point x="141" y="358" type="curve" smooth="yes"/>
      <point x="91" y="358"/>
      <point x="67" y="381"/>
      <point x="59" y="381" type="curve" smooth="yes"/>
      <point x="53" y="381"/>
      <point x="45" y="369"/>
      <point x="45" y="326" type="curve" smooth="yes"/>
      <point x="45" y="293"/>
      <point x="117" y="290"/>
      <point x="147" y="290" type="curve" smooth="yes"/>
      <point x="229" y="290"/>
      <point x="293" y="342"/>
      <point x="293" y="429" type="curve" smooth="yes"/>
      <point x="293" y="470"/>
      <point x="275" y="501"/>
      <point x="235" y="516" type="curve"/>
      <point x="235" y="521" type="line"/>
      <point x="273" y="536"/>
      <point x="300" y="572"/>
      <point x="300" y="618" type="curve" smooth="yes"/>
      <point x="300" y="674"/>
      <point x="258" y="708"/>
      <point x="190" y="708" type="curve" smooth="yes"/>
    </contour>
    <contour>
      <point x="604" y="410" type="line" smooth="yes"/>
      <point x="587" y="410"/>
      <point x="575" y="409"/>
      <point x="567" y="399" type="curve" smooth="yes"/>
      <point x="367" y="143" type="line" smooth="yes"/>
      <point x="366" y="142"/>
      <point x="366" y="137"/>
      <point x="366" y="133" type="curve" smooth="yes"/>
      <point x="366" y="116"/>
      <point x="372" y="82"/>
      <point x="381" y="82" type="curve" smooth="yes"/>
      <point x="535" y="82" type="line"/>
      <point x="528" y="17" type="line"/>
      <point x="528" y="5"/>
      <point x="536" y="-2"/>
      <point x="561" y="-2" type="curve" smooth="yes"/>
      <point x="577" y="-2" type="line" smooth="yes"/>
      <point x="602" y="-2"/>
      <point x="613" y="5"/>
      <point x="614" y="17" type="curve" smooth="yes"/>
      <point x="621" y="82" type="line"/>
      <point x="644" y="82" type="line" smooth="yes"/>
      <point x="661" y="82"/>
      <point x="666" y="103"/>
      <point x="666" y="130" type="curve" smooth="yes"/>
      <point x="666" y="144"/>
      <point x="662" y="151"/>
      <point x="651" y="151" type="curve" smooth="yes"/>
      <point x="628" y="151" type="line"/>
      <point x="653" y="391" type="line"/>
      <point x="653" y="403"/>
      <point x="645" y="410"/>
      <point x="620" y="410" type="curve" smooth="yes"/>
    </contour>
    <contour>
      <point x="551" y="236" type="line"/>
      <point x="542" y="151" type="line"/>
      <point x="454" y="151" type="line"/>
      <point x="559" y="291" type="line"/>
      <point x="563" y="291" type="line"/>
    </contour>
  </outline>
</glyph>
<glyph name="AE" format="1">
  <advance width="915"/>
  <unicode hex="00C6"/>
  <outline>
    <contour>
      <point x="406" y="700" type="line" smooth="yes"/>
      <point x="385" y="700"/>
      <point x="372" y="692"/>
      <point x="360" y="673" type="curve" smooth="yes"/>
      <point x="-27" y="38" type="line" smooth="yes"/>
      <point x="-32" y="31"/>
      <point x="-35" y="25"/>
      <point x="-35" y="20" type="curve" smooth="yes"/>
      <point x="-35" y="0"/>
      <point x="1" y="-2"/>
      <point x="25" y="-2" type="curve" smooth="yes"/>
      <point x="62" y="-2" type="line" smooth="yes"/>
      <point x="86" y="-2"/>
      <point x="101" y="5"/>
      <point x="110" y="19" type="curve" smooth="yes"/>
      <point x="183" y="141" type="line"/>
      <point x="426" y="141" type="line"/>
      <point x="435" y="30" type="line" smooth="yes"/>
      <point x="437" y="9"/>
      <point x="445" y="0"/>
      <point x="467" y="0" type="curve" smooth="yes"/>
      <point x="801" y="0" type="line" smooth="yes"/>
      <point x="830" y="0"/>
      <point x="839" y="39"/>
      <point x="839" y="91" type="curve" smooth="yes"/>
      <point x="839" y="119"/>
      <point x="831" y="131"/>
      <point x="813" y="131" type="curve" smooth="yes"/>
      <point x="579" y="131" type="line"/>
      <point x="565" y="293" type="line"/>
      <point x="804" y="293" type="line" smooth="yes"/>
      <point x="833" y="293"/>
      <point x="842" y="332"/>
      <point x="842" y="384" type="curve" smooth="yes"/>
      <point x="842" y="412"/>
      <point x="834" y="424"/>
      <point x="816" y="424" type="curve" smooth="yes"/>
      <point x="552" y="424" type="line"/>
      <point x="540" y="569" type="line"/>
      <point x="860" y="569" type="line" smooth="yes"/>
      <point x="889" y="569"/>
      <point x="898" y="608"/>
      <point x="898" y="660" type="curve" smooth="yes"/>
      <point x="898" y="688"/>
      <point x="890" y="700"/>
      <point x="872" y="700" type="curve" smooth="yes"/>
    </contour>
    <contour>
      <point x="402" y="454" type="line"/>
      <point x="416" y="273" type="line"/>
      <point x="262" y="273" type="line"/>
      <point x="370" y="455" type="line"/>
      <point x="406" y="537" type="line"/>
      <point x="410" y="537" type="line"/>
    </contour>
    <contour>
      <point x="458" y="700" type="move" name="top"/>
    </contour>
  </outline>
</glyph>
<glyph name="Eth" format="1">
  <advance width="696"/>
  <unicode hex="00D0"/>
  <outline>
    <contour>
      <point x="280" y="290" type="line"/>
      <point x="309" y="290"/>
      <point x="318" y="329"/>
      <point x="318" y="381" type="curve" smooth="yes"/>
      <point x="318" y="409"/>
      <point x="310" y="421"/>
      <point x="292" y="421" type="curve"/>
      <point x="47" y="421" type="line"/>
      <point x="18" y="421"/>
      <point x="9" y="382"/>
      <point x="9" y="330" type="curve" smooth="yes"/>
      <point x="9" y="302"/>
      <point x="17" y="290"/>
      <point x="35" y="290" type="curve"/>
    </contour>
    <component base="D"/>
  </outline>
</glyph>
<glyph name="multiply" format="1">
  <advance width="560"/>
  <unicode hex="00D7"/>
  <outline>
    <contour>
      <point x="455" y="474"/>
      <point x="449" y="471"/>
      <point x="443" y="465" type="curve" smooth="yes"/>
      <point x="279" y="318" type="line"/>
      <point x="148" y="465" type="line" smooth="yes"/>
      <point x="143" y="471"/>
      <point x="137" y="474"/>
      <point x="131" y="474" type="curve" smooth="yes"/>
      <point x="120" y="474"/>
      <point x="107" y="466"/>
      <point x="90" y="451" type="curve" smooth="yes"/>
      <point x="85" y="446" type="line" smooth="yes"/>
      <point x="66" y="429"/>
      <point x="58" y="416"/>
      <point x="58" y="405" type="curve" smooth="yes"/>
      <point x="58" y="399"/>
      <point x="61" y="394"/>
      <point x="65" y="390" type="curve" smooth="yes"/>
      <point x="196" y="242" type="line"/>
      <point x="34" y="95" type="line" smooth="yes"/>
      <point x="26" y="88"/>
      <point x="23" y="81"/>
      <point x="23" y="75" type="curve" smooth="yes"/>
      <point x="23" y="64"/>
      <point x="30" y="53"/>
      <point x="42" y="39" type="curve" smooth="yes"/>
      <point x="47" y="34" type="line" smooth="yes"/>
      <point x="60" y="19"/>
      <point x="71" y="11"/>
      <point x="82" y="11" type="curve" smooth="yes"/>
      <point x="88" y="11"/>
      <point x="94" y="14"/>
      <point x="101" y="20" type="curve" smooth="yes"/>
      <point x="264" y="167" type="line"/>
      <point x="396" y="20" type="line"/>
      <point x="400" y="14"/>
      <point x="406" y="11"/>
      <point x="413" y="11" type="curve" smooth="yes"/>
      <point x="423" y="11"/>
      <point x="437" y="19"/>
      <point x="454" y="34" type="curve" smooth="yes"/>
      <point x="459" y="39" type="line" smooth="yes"/>
      <point x="477" y="55"/>
      <point x="486" y="68"/>
      <point x="486" y="79" type="curve" smooth="yes"/>
      <point x="486" y="84"/>
      <point x="483" y="90"/>
      <point x="479" y="95" type="curve" smooth="yes"/>
      <point x="347" y="242" type="line"/>
      <point x="510" y="390" type="line"/>
      <point x="517" y="395"/>
      <point x="521" y="402"/>
      <point x="521" y="410" type="curve" smooth="yes"/>
      <point x="521" y="420"/>
      <point x="514" y="432"/>
      <point x="502" y="446" type="curve" smooth="yes"/>
      <point x="497" y="451" type="line" smooth="yes"/>
      <point x="484" y="466"/>
      <point x="472" y="474"/>
      <point x="462" y="474" type="curve" smooth="yes"/>
    </contour>
  </outline>
</glyph>
<glyph name="Oslash" format="1">
  <advance width="731"/>
  <unicode hex="00D8"/>
  <outline>
    <contour>
      <point x="140" y="708"/>
      <point x="41" y="496"/>
      <point x="41" y="284" type="curve" smooth="yes"/>
      <point x="41" y="215"/>
      <point x="54" y="157"/>
      <point x="80" y="112" type="curve"/>
      <point x="29" y="54" type="line" smooth="yes"/>
      <point x="22" y="47"/>
      <point x="19" y="40"/>
      <point x="19" y="34" type="curve" smooth="yes"/>
      <point x="19" y="26"/>
      <point x="23" y="19"/>
      <point x="31" y="12" type="curve" smooth="yes"/>
      <point x="47" y="-2" type="line" smooth="yes"/>
      <point x="54" y="-9"/>
      <point x="61" y="-12"/>
      <point x="67" y="-12" type="curve" smooth="yes"/>
      <point x="74" y="-12"/>
      <point x="82" y="-8"/>
      <point x="89" y="0" type="curve" smooth="yes"/>
      <point x="133" y="50" type="line"/>
      <point x="180" y="12"/>
      <point x="246" y="-8"/>
      <point x="328" y="-8" type="curve" smooth="yes"/>
      <point x="562" y="-8"/>
      <point x="689" y="143"/>
      <point x="689" y="414" type="curve" smooth="yes"/>
      <point x="689" y="497"/>
      <point x="670" y="564"/>
      <point x="632" y="613" type="curve"/>
      <point x="672" y="658" type="line" smooth="yes"/>
      <point x="679" y="665"/>
      <point x="682" y="672"/>
      <point x="682" y="678" type="curve" smooth="yes"/>
      <point x="682" y="685"/>
      <point x="678" y="693"/>
      <point x="670" y="700" type="curve" smooth="yes"/>
      <point x="654" y="714" type="line" smooth="yes"/>
      <point x="647" y="721"/>
      <point x="640" y="724"/>
      <point x="634" y="724" type="curve" smooth="yes"/>
      <point x="626" y="724"/>
      <point x="619" y="720"/>
      <point x="612" y="712" type="curve" smooth="yes"/>
      <point x="572" y="666" type="line"/>
      <point x="528" y="694"/>
      <point x="471" y="708"/>
      <point x="403" y="708" type="curve" smooth="yes"/>
    </contour>
    <contour>
      <point x="527" y="461"/>
      <point x="531" y="433"/>
      <point x="531" y="400" type="curve" smooth="yes"/>
      <point x="531" y="221"/>
      <point x="456" y="123"/>
      <point x="342" y="123" type="curve" smooth="yes"/>
      <point x="295" y="123"/>
      <point x="260" y="138"/>
      <point x="236" y="167" type="curve"/>
      <point x="519" y="485" type="line"/>
    </contour>
    <contour>
      <point x="422" y="576"/>
      <point x="450" y="568"/>
      <point x="471" y="553" type="curve"/>
      <point x="203" y="250" type="line"/>
      <point x="201" y="265"/>
      <point x="200" y="281"/>
      <point x="200" y="298" type="curve" smooth="yes"/>
      <point x="200" y="478"/>
      <point x="273" y="576"/>
      <point x="389" y="576" type="curve" smooth="yes"/>
    </contour>
    <contour>
      <point x="366" y="700" type="move" name="top"/>
    </contour>
  </outline>
</glyph>
<glyph name="ae" format="1">
  <advance width="829"/>
  <unicode hex="00E6"/>
  <outline>
    <contour>
      <point x="540" y="531"/>
      <point x="489" y="520"/>
      <point x="446" y="494" type="curve"/>
      <point x="412" y="518"/>
      <point x="357" y="531"/>
      <point x="288" y="531" type="curve" smooth="yes"/>
      <point x="187" y="531"/>
      <point x="90" y="493"/>
      <point x="90" y="458" type="curve" smooth="yes"/>
      <point x="90" y="435"/>
      <point x="113" y="382"/>
      <point x="133" y="382" type="curve" smooth="yes"/>
      <point x="145" y="382"/>
      <point x="204" y="414"/>
      <point x="265" y="414" type="curve" smooth="yes"/>
      <point x="306" y="414"/>
      <point x="334" y="411"/>
      <point x="352" y="389" type="curve"/>
      <point x="342" y="368"/>
      <point x="334" y="343"/>
      <point x="328" y="316" type="curve"/>
      <point x="64" y="314"/>
      <point x="25" y="209"/>
      <point x="25" y="122" type="curve" smooth="yes"/>
      <point x="25" y="43"/>
      <point x="77" y="-8"/>
      <point x="179" y="-8" type="curve" smooth="yes"/>
      <point x="264" y="-8"/>
      <point x="336" y="32"/>
      <point x="368" y="58" type="curve"/>
      <point x="406" y="16"/>
      <point x="467" y="-8"/>
      <point x="554" y="-8" type="curve" smooth="yes"/>
      <point x="609" y="-8"/>
      <point x="712" y="7"/>
      <point x="728" y="62" type="curve" smooth="yes"/>
      <point x="733" y="78"/>
      <point x="735" y="135"/>
      <point x="736" y="139" type="curve"/>
      <point x="736" y="153"/>
      <point x="732" y="153"/>
      <point x="728" y="153" type="curve" smooth="yes"/>
      <point x="717" y="153"/>
      <point x="653" y="109"/>
      <point x="573" y="109" type="curve" smooth="yes"/>
      <point x="511" y="109"/>
      <point x="468" y="130"/>
      <point x="468" y="225" type="curve"/>
      <point x="468" y="253" type="line"/>
      <point x="433" y="216" type="line"/>
      <point x="471" y="209"/>
      <point x="509" y="203"/>
      <point x="572" y="203" type="curve" smooth="yes"/>
      <point x="671" y="203"/>
      <point x="787" y="253"/>
      <point x="787" y="386" type="curve" smooth="yes"/>
      <point x="787" y="438"/>
      <point x="756" y="531"/>
      <point x="593" y="531" type="curve" smooth="yes"/>
    </contour>
    <contour>
      <point x="318" y="212" type="line" smooth="yes"/>
      <point x="318" y="191"/>
      <point x="320" y="171"/>
      <point x="323" y="152" type="curve"/>
      <point x="299" y="124"/>
      <point x="253" y="109"/>
      <point x="220" y="109" type="curve" smooth="yes"/>
      <point x="190" y="109"/>
      <point x="174" y="125"/>
      <point x="174" y="147" type="curve" smooth="yes"/>
      <point x="174" y="198"/>
      <point x="223" y="223"/>
      <point x="318" y="224" type="curve"/>
    </contour>
    <contour>
      <point x="618" y="414"/>
      <point x="643" y="400"/>
      <point x="643" y="367" type="curve" smooth="yes"/>
      <point x="643" y="338"/>
      <point x="617" y="302"/>
      <point x="523" y="302" type="curve" smooth="yes"/>
      <point x="475" y="302" type="line"/>
      <point x="489" y="364"/>
      <point x="521" y="414"/>
      <point x="583" y="414" type="curve" smooth="yes"/>
    </contour>
    <contour>
      <point x="415" y="523" type="move" name="top"/>
    </contour>
  </outline>
</glyph>
<glyph name="dotlessi" format="1">
  <advance width="265"/>
  <unicode hex="0131"/>
  <outline>
    <contour>
      <point x="130" y="525" type="line" smooth="yes"/>
      <point x="91" y="525"/>
      <point x="69" y="514"/>
      <point x="67" y="493" type="curve"/>
      <point x="67" y="493"/>
      <point x="29" y="147"/>
      <point x="29" y="119" type="curve" smooth="yes"/>
      <point x="29" y="29"/>
      <point x="72" y="-8"/>
      <point x="150" y="-8" type="curve" smooth="yes"/>
      <point x="185" y="-8"/>
      <point x="232" y="7"/>
      <point x="238" y="44" type="curve" smooth="yes"/>
      <point x="244" y="79"/>
      <point x="245" y="102"/>
      <point x="245" y="104" type="curve" smooth="yes"/>
      <point x="245" y="113"/>
      <point x="243" y="115"/>
      <point x="237" y="115" type="curve" smooth="yes"/>
      <point x="233" y="115"/>
      <point x="222" y="109"/>
      <point x="208" y="109" type="curve" smooth="yes"/>
      <point x="187" y="109"/>
      <point x="178" y="119"/>
      <point x="178" y="142" type="curve" smooth="yes"/>
      <point x="178" y="152"/>
      <point x="215" y="494"/>
      <point x="215" y="494" type="curve"/>
      <point x="215" y="510"/>
      <point x="198" y="525"/>
      <point x="158" y="525" type="curve" smooth="yes"/>
    </contour>
    <contour>
      <point x="193" y="0" type="move" name="ogonek"/>
    </contour>
    <contour>
      <point x="110" y="0" type="move" name="bottom"/>
    </contour>
    <contour>
      <point x="144" y="523" type="move" name="top"/>
    </contour>
  </outline>
</glyph>
<glyph name="Lslash" format="1">
  <advance width="486"/>
  <unicode hex="0141"/>
  <outline>
    <contour>
      <point x="167" y="702" type="line" smooth="yes"/>
      <point x="128" y="702"/>
      <point x="106" y="691"/>
      <point x="104" y="670" type="curve" smooth="yes"/>
      <point x="73" y="381" type="line"/>
      <point x="53" y="369" type="line" smooth="yes"/>
      <point x="35" y="358"/>
      <point x="20" y="344"/>
      <point x="20" y="303" type="curve" smooth="yes"/>
      <point x="20" y="291"/>
      <point x="22" y="283"/>
      <point x="29" y="283" type="curve" smooth="yes"/>
      <point x="33" y="283"/>
      <point x="38" y="285"/>
      <point x="45" y="289" type="curve" smooth="yes"/>
      <point x="65" y="300" type="line"/>
      <point x="37" y="32" type="line"/>
      <point x="37" y="8"/>
      <point x="46" y="0"/>
      <point x="73" y="0" type="curve" smooth="yes"/>
      <point x="413" y="0" type="line" smooth="yes"/>
      <point x="442" y="0"/>
      <point x="451" y="39"/>
      <point x="451" y="91" type="curve" smooth="yes"/>
      <point x="451" y="119"/>
      <point x="443" y="131"/>
      <point x="425" y="131" type="curve" smooth="yes"/>
      <point x="202" y="131" type="line"/>
      <point x="230" y="395" type="line"/>
      <point x="322" y="448" type="line" smooth="yes"/>
      <point x="340" y="458"/>
      <point x="355" y="473"/>
      <point x="355" y="514" type="curve" smooth="yes"/>
      <point x="355" y="526"/>
      <point x="353" y="534"/>
      <point x="346" y="534" type="curve" smooth="yes"/>
      <point x="342" y="534"/>
      <point x="337" y="532"/>
      <point x="330" y="528" type="curve" smooth="yes"/>
      <point x="238" y="475" type="line"/>
      <point x="259" y="671" type="line"/>
      <point x="259" y="700"/>
      <point x="219" y="702"/>
      <point x="202" y="702" type="curve" smooth="yes"/>
    </contour>
  </outline>
</glyph>
<glyph name="eng" format="1">
  <advance width="557"/>
  <unicode hex="014B"/>
  <outline>
    <contour>
      <point x="347" y="403" type="line"/>
      <point x="300" y="-52" type="line" smooth="yes"/>
      <point x="297" y="-82"/>
      <point x="285" y="-95"/>
      <point x="260" y="-95" type="curve" smooth="yes"/>
      <point x="240" y="-95"/>
      <point x="230" y="-90"/>
      <point x="225" y="-90" type="curve" smooth="yes"/>
      <point x="216" y="-90"/>
      <point x="207" y="-110"/>
      <point x="207" y="-173" type="curve" smooth="yes"/>
      <point x="207" y="-211"/>
      <point x="255" y="-212"/>
      <point x="285" y="-212" type="curve" smooth="yes"/>
      <point x="381" y="-212"/>
      <point x="437" y="-152"/>
      <point x="448" y="-50" type="curve" smooth="yes"/>
      <point x="495" y="404" type="line"/>
    </contour>
    <contour>
      <point x="286" y="531"/>
      <point x="207" y="470"/>
      <point x="188" y="423" type="curve"/>
      <point x="204" y="395" type="line"/>
      <point x="205" y="406"/>
      <point x="207" y="424"/>
      <point x="207" y="443" type="curve" smooth="yes"/>
      <point x="207" y="480"/>
      <point x="201" y="520"/>
      <point x="174" y="520" type="curve" smooth="yes"/>
      <point x="109" y="520"/>
      <point x="58" y="506"/>
      <point x="58" y="484" type="curve" smooth="yes"/>
      <point x="58" y="469"/>
      <point x="60" y="452"/>
      <point x="60" y="428" type="curve" smooth="yes"/>
      <point x="60" y="391"/>
      <point x="60" y="400"/>
      <point x="22" y="29" type="curve"/>
      <point x="22" y="13"/>
      <point x="39" y="-2"/>
      <point x="79" y="-2" type="curve" smooth="yes"/>
      <point x="107" y="-2" type="line" smooth="yes"/>
      <point x="146" y="-2"/>
      <point x="168" y="9"/>
      <point x="170" y="30" type="curve"/>
      <point x="170" y="30"/>
      <point x="191" y="216"/>
      <point x="202" y="348" type="curve"/>
      <point x="220" y="376"/>
      <point x="251" y="409"/>
      <point x="290" y="409" type="curve" smooth="yes"/>
      <point x="329" y="409"/>
      <point x="344" y="391"/>
      <point x="344" y="359" type="curve"/>
      <point x="495" y="404" type="line"/>
      <point x="495" y="491"/>
      <point x="452" y="531"/>
      <point x="363" y="531" type="curve" smooth="yes"/>
    </contour>
  </outline>
</glyph>
<glyph name="OE" format="1">
  <advance width="1021"/>
  <unicode hex="0152"/>
  <outline>
    <contour>
      <point x="178" y="708"/>
      <point x="41" y="556"/>
      <point x="41" y="282" type="curve" smooth="yes"/>
      <point x="41" y="94"/>
      <point x="138" y="-8"/>
      <point x="318" y="-8" type="curve" smooth="yes"/>
      <point x="385" y="-8"/>
      <point x="443" y="6"/>
      <point x="496" y="36" type="curve"/>
      <point x="496" y="35"/>
      <point x="496" y="33"/>
      <point x="496" y="32" type="curve" smooth="yes"/>
      <point x="496" y="8"/>
      <point x="505" y="0"/>
      <point x="532" y="0" type="curve" smooth="yes"/>
      <point x="900" y="0" type="line" smooth="yes"/>
      <point x="929" y="0"/>
      <point x="938" y="39"/>
      <point x="938" y="91" type="curve" smooth="yes"/>
      <point x="938" y="119"/>
      <point x="930" y="131"/>
      <point x="912" y="131" type="curve" smooth="yes"/>
      <point x="660" y="131" type="line"/>
      <point x="678" y="293" type="line"/>
      <point x="903" y="293" type="line" smooth="yes"/>
      <point x="932" y="293"/>
      <point x="941" y="332"/>
      <point x="941" y="384" type="curve" smooth="yes"/>
      <point x="941" y="412"/>
      <point x="933" y="424"/>
      <point x="915" y="424" type="curve" smooth="yes"/>
      <point x="691" y="424" type="line"/>
      <point x="707" y="569" type="line"/>
      <point x="959" y="569" type="line" smooth="yes"/>
      <point x="988" y="569"/>
      <point x="997" y="608"/>
      <point x="997" y="660" type="curve" smooth="yes"/>
      <point x="997" y="688"/>
      <point x="989" y="700"/>
      <point x="971" y="700" type="curve" smooth="yes"/>
      <point x="605" y="700" type="line" smooth="yes"/>
      <point x="574" y="700"/>
      <point x="563" y="685"/>
      <point x="560" y="651" type="curve" smooth="yes"/>
      <point x="554" y="588" type="line"/>
      <point x="593" y="635" type="line"/>
      <point x="544" y="684"/>
      <point x="477" y="708"/>
      <point x="393" y="708" type="curve" smooth="yes"/>
    </contour>
    <contour>
      <point x="483" y="576"/>
      <point x="531" y="515"/>
      <point x="531" y="400" type="curve" smooth="yes"/>
      <point x="531" y="221"/>
      <point x="456" y="123"/>
      <point x="342" y="123" type="curve" smooth="yes"/>
      <point x="248" y="123"/>
      <point x="200" y="184"/>
      <point x="200" y="298" type="curve" smooth="yes"/>
      <point x="200" y="478"/>
      <point x="273" y="576"/>
      <point x="389" y="576" type="curve" smooth="yes"/>
    </contour>
    <contour>
      <point x="511" y="700" type="move" name="top"/>
    </contour>
  </outline>
</glyph>
<glyph name="oe" format="1">
  <advance width="871"/>
  <unicode hex="0153"/>
  <outline>
    <contour>
      <point x="474" y="472" type="line"/>
      <point x="438" y="509"/>
      <point x="384" y="531"/>
      <point x="313" y="531" type="curve" smooth="yes"/>
      <point x="104" y="531"/>
      <point x="39" y="374"/>
      <point x="39" y="211" type="curve" smooth="yes"/>
      <point x="39" y="69"/>
      <point x="113" y="-8"/>
      <point x="256" y="-8" type="curve" smooth="yes"/>
      <point x="327" y="-8"/>
      <point x="386" y="15"/>
      <point x="432" y="53" type="curve"/>
    </contour>
    <contour>
      <point x="355" y="414"/>
      <point x="379" y="377"/>
      <point x="379" y="304" type="curve" smooth="yes"/>
      <point x="379" y="177"/>
      <point x="337" y="109"/>
      <point x="268" y="109" type="curve" smooth="yes"/>
      <point x="214" y="109"/>
      <point x="189" y="146"/>
      <point x="189" y="218" type="curve" smooth="yes"/>
      <point x="189" y="346"/>
      <point x="231" y="414"/>
      <point x="301" y="414" type="curve" smooth="yes"/>
    </contour>
    <component base="e" xOffset="341"/>
    <contour>
      <point x="436" y="523" type="move" name="top"/>
    </contour>
  </outline>
</glyph>
<glyph name="uni018F" format="1">
  <advance width="672"/>
  <unicode hex="018F"/>
  <outline>
    <contour>
      <point x="269" y="708"/>
      <point x="136" y="689"/>
      <point x="115" y="618" type="curve" smooth="yes"/>
      <point x="110" y="602"/>
      <point x="108" y="545"/>
      <point x="107" y="541" type="curve"/>
      <point x="107" y="527"/>
      <point x="111" y="527"/>
      <point x="115" y="527" type="curve" smooth="yes"/>
      <point x="131" y="527"/>
      <point x="215" y="591"/>
      <point x="320" y="591" type="curve" smooth="yes"/>
      <point x="409" y="591"/>
      <point x="471" y="562"/>
      <point x="475" y="435" type="curve"/>
      <point x="432" y="439"/>
      <point x="385" y="442"/>
      <point x="321" y="442" type="curve" smooth="yes"/>
      <point x="197" y="442"/>
      <point x="56" y="374"/>
      <point x="56" y="199" type="curve" smooth="yes"/>
      <point x="56" y="123"/>
      <point x="97" y="-6"/>
      <point x="300" y="-6" type="curve" smooth="yes"/>
      <point x="473" y="-6"/>
      <point x="625" y="118"/>
      <point x="625" y="433" type="curve" smooth="yes"/>
      <point x="625" y="603"/>
      <point x="537" y="708"/>
      <point x="339" y="708" type="curve" smooth="yes"/>
    </contour>
    <contour>
      <point x="449" y="209"/>
      <point x="402" y="111"/>
      <point x="310" y="111" type="curve" smooth="yes"/>
      <point x="245" y="111"/>
      <point x="200" y="143"/>
      <point x="200" y="218" type="curve" smooth="yes"/>
      <point x="200" y="271"/>
      <point x="236" y="343"/>
      <point x="370" y="343" type="curve" smooth="yes"/>
      <point x="468" y="343" type="line"/>
    </contour>
  </outline>
</glyph>
<glyph name="Aringacute" format="1">
  <advance width="613"/>
  <unicode hex="01FA"/>
  <outline>
    <contour>
      <point x="409" y="931"/>
      <point x="376" y="925"/>
      <point x="361" y="904" type="curve" smooth="yes"/>
      <point x="344" y="881"/>
      <point x="332" y="864"/>
      <point x="312" y="827" type="curve" smooth="yes"/>
      <point x="311" y="816"/>
      <point x="318" y="812"/>
      <point x="342" y="812" type="curve" smooth="yes"/>
      <point x="389" y="812"/>
      <point x="407" y="825"/>
      <point x="419" y="837" type="curve" smooth="yes"/>
      <point x="502" y="907"/>
      <point x="507" y="909"/>
      <point x="508" y="917" type="curve" smooth="yes"/>
      <point x="509" y="928"/>
      <point x="489" y="931"/>
      <point x="449" y="931" type="curve" smooth="yes"/>
    </contour>
    <contour>
      <point x="317" y="632" type="line"/>
      <point x="260" y="681" type="line"/>
      <point x="-31" y="38" type="line" smooth="yes"/>
      <point x="-35" y="30"/>
      <point x="-37" y="24"/>
      <point x="-37" y="18" type="curve" smooth="yes"/>
      <point x="-37" y="5"/>
      <point x="-18" y="-2"/>
      <point x="21" y="-2" type="curve" smooth="yes"/>
      <point x="61" y="-2" type="line" smooth="yes"/>
      <point x="85" y="-2"/>
      <point x="102" y="4"/>
      <point x="109" y="19" type="curve" smooth="yes"/>
      <point x="164" y="141" type="line"/>
      <point x="406" y="141" type="line"/>
      <point x="435" y="19" type="line" smooth="yes"/>
      <point x="439" y="3"/>
      <point x="459" y="-2"/>
      <point x="489" y="-2" type="curve" smooth="yes"/>
      <point x="533" y="-2" type="line" smooth="yes"/>
      <point x="568" y="-2"/>
      <point x="587" y="7"/>
      <point x="587" y="21" type="curve" smooth="yes"/>
      <point x="587" y="24"/>
      <point x="585" y="35"/>
      <point x="584" y="38" type="curve" smooth="yes"/>
      <point x="426" y="681" type="line"/>
      <point x="369" y="632" type="line"/>
    </contour>
    <contour>
      <point x="328" y="494"/>
      <point x="330" y="472"/>
      <point x="335" y="451" type="curve" smooth="yes"/>
      <point x="375" y="273" type="line"/>
      <point x="221" y="273" type="line"/>
      <point x="301" y="451" type="line" smooth="yes"/>
      <point x="310" y="471"/>
      <point x="317" y="494"/>
      <point x="323" y="515" type="curve"/>
      <point x="327" y="515" type="line"/>
    </contour>
    <component base="ring" xOffset="186" yOffset="47"/>
  </outline>
</glyph>
<glyph name="circumflex" format="1">
  <advance width="320"/>
  <unicode hex="02C6"/>
  <outline>
    <contour>
      <point x="158" y="718" type="line" smooth="yes"/>
      <point x="129" y="718"/>
      <point x="108" y="717"/>
      <point x="95" y="699" type="curve" smooth="yes"/>
      <point x="19" y="597" type="line" smooth="yes"/>
      <point x="14" y="591"/>
      <point x="12" y="586"/>
      <point x="12" y="582" type="curve" smooth="yes"/>
      <point x="12" y="576"/>
      <point x="19" y="572"/>
      <point x="31" y="572" type="curve" smooth="yes"/>
      <point x="55" y="572" type="line" smooth="yes"/>
      <point x="83" y="572"/>
      <point x="107" y="575"/>
      <point x="124" y="597" type="curve" smooth="yes"/>
      <point x="155" y="636" type="line"/>
      <point x="180" y="596" type="line" smooth="yes"/>
      <point x="192" y="577"/>
      <point x="214" y="572"/>
      <point x="244" y="572" type="curve" smooth="yes"/>
      <point x="266" y="572" type="line" smooth="yes"/>
      <point x="279" y="572"/>
      <point x="285" y="577"/>
      <point x="285" y="585" type="curve" smooth="yes"/>
      <point x="285" y="589"/>
      <point x="284" y="592"/>
      <point x="282" y="597" type="curve" smooth="yes"/>
      <point x="228" y="699" type="line" smooth="yes"/>
      <point x="218" y="717"/>
      <point x="198" y="718"/>
      <point x="169" y="718" type="curve" smooth="yes"/>
    </contour>
    <contour>
      <point x="181" y="782" type="move" name="tilde"/>
    </contour>
    <contour>
      <point x="343" y="597" type="move" name="top"/>
    </contour>
    <contour>
      <point x="149" y="523" type="move" name="_top"/>
    </contour>
  </outline>
</glyph>
<glyph name="breve" format="1">
  <advance width="320"/>
  <unicode hex="02D8"/>
  <outline>
    <contour>
      <point x="263" y="715"/>
      <point x="255" y="709"/>
      <point x="248" y="702" type="curve" smooth="yes"/>
      <point x="232" y="688"/>
      <point x="218" y="666"/>
      <point x="160" y="666" type="curve" smooth="yes"/>
      <point x="109" y="666"/>
      <point x="95" y="683"/>
      <point x="84" y="697" type="curve" smooth="yes"/>
      <point x="76" y="707"/>
      <point x="70" y="715"/>
      <point x="53" y="715" type="curve" smooth="yes"/>
      <point x="26" y="715"/>
      <point x="14" y="702"/>
      <point x="14" y="678" type="curve" smooth="yes"/>
      <point x="14" y="624"/>
      <point x="67" y="575"/>
      <point x="150" y="575" type="curve" smooth="yes"/>
      <point x="236" y="575"/>
      <point x="309" y="632"/>
      <point x="309" y="691" type="curve" smooth="yes"/>
      <point x="309" y="706"/>
      <point x="297" y="715"/>
      <point x="277" y="715" type="curve" smooth="yes"/>
    </contour>
    <contour>
      <point x="174" y="776" type="move" name="tilde"/>
    </contour>
    <contour>
      <point x="166" y="686" type="move" name="top"/>
    </contour>
    <contour>
      <point x="147" y="523" type="move" name="_top"/>
    </contour>
  </outline>
</glyph>
<glyph name="dotaccent" format="1">
  <advance width="320"/>
  <unicode hex="02D9"/>
  <outline>
    <contour>
      <point x="128" y="702"/>
      <point x="109" y="691"/>
      <point x="107" y="670" type="curve" smooth="yes"/>
      <point x="100" y="610" type="line"/>
      <point x="100" y="589"/>
      <point x="114" y="578"/>
      <point x="157" y="578" type="curve" smooth="yes"/>
      <point x="197" y="578"/>
      <point x="217" y="589"/>
      <point x="220" y="610" type="curve" smooth="yes"/>
      <point x="227" y="670" type="line"/>
      <point x="227" y="691"/>
      <point x="213" y="702"/>
      <point x="170" y="702" type="curve" smooth="yes"/>
    </contour>
    <contour>
      <point x="190" y="700" type="move" name="top"/>
    </contour>
    <contour>
      <point x="164" y="523" type="move" name="_top"/>
    </contour>
  </outline>
</glyph>
<glyph name="ogonek" format="1">
  <advance width="320"/>
  <unicode hex="02DB"/>
  <outline>
    <contour>
      <point x="71" y="14"/>
      <point x="53" y="-58"/>
      <point x="53" y="-94" type="curve" smooth="yes"/>
      <point x="53" y="-127"/>
      <point x="67" y="-183"/>
      <point x="161" y="-183" type="curve" smooth="yes"/>
      <point x="201" y="-183"/>
      <point x="249" y="-171"/>
      <point x="249" y="-129" type="curve" smooth="yes"/>
      <point x="249" y="-107"/>
      <point x="247" y="-99"/>
      <point x="238" y="-99" type="curve" smooth="yes"/>
      <point x="229" y="-99"/>
      <point x="210" y="-113"/>
      <point x="180" y="-113" type="curve" smooth="yes"/>
      <point x="158" y="-113"/>
      <point x="122" y="-110"/>
      <point x="122" y="-70" type="curve" smooth="yes"/>
      <point x="122" y="-34"/>
      <point x="140" y="-20"/>
      <point x="140" y="-3" type="curve" smooth="yes"/>
      <point x="140" y="7"/>
      <point x="135" y="14"/>
      <point x="121" y="14" type="curve" smooth="yes"/>
    </contour>
    <contour>
      <point x="140" y="0" type="move" name="_ogonek"/>
    </contour>
    <contour>
      <point x="96" y="-203" type="move" name="bottom"/>
    </contour>
  </outline>
</glyph>
<glyph name="tilde" format="1">
  <advance width="365"/>
  <unicode hex="02DC"/>
  <outline>
    <component base="tilde.alt" xOffset="-21" xScale="1.1"/>
    <contour>
      <point x="219" y="523" type="move" name="_top"/>
    </contour>
    <contour>
      <point x="239" y="700" type="move" name="top"/>
    </contour>
    <contour>
      <point x="224" y="595" type="move" name="_tilde"/>
    </contour>
  </outline>
</glyph>
<glyph name="gravecomb" format="1">
  <advance width="0"/>
  <unicode hex="0300"/>
  <outline>
    <component base="grave" xOffset="-165"/>
    <contour>
      <point x="48" y="700" type="move" name="top"/>
    </contour>
    <contour>
      <point x="29" y="523" type="move" name="_top"/>
    </contour>
  </outline>
</glyph>
<glyph name="hookabovecomb" format="1">
  <advance width="300"/>
  <unicode hex="0309"/>
  <outline>
    <contour>
      <point x="71" y="634"/>
      <point x="-1" y="613"/>
      <point x="-1" y="591" type="curve" smooth="yes"/>
      <point x="-1" y="581"/>
      <point x="18" y="570"/>
      <point x="56" y="570" type="curve" smooth="yes"/>
      <point x="72" y="570"/>
      <point x="158" y="622"/>
      <point x="158" y="674" type="curve" smooth="yes"/>
      <point x="158" y="717"/>
      <point x="121" y="751"/>
      <point x="53" y="751" type="curve" smooth="yes"/>
      <point x="18" y="751"/>
      <point x="-30" y="733"/>
      <point x="-30" y="720" type="curve" smooth="yes"/>
      <point x="-30" y="705"/>
      <point x="-13" y="678"/>
      <point x="-5" y="678" type="curve" smooth="yes"/>
      <point x="4" y="678"/>
      <point x="17" y="690"/>
      <point x="39" y="690" type="curve" smooth="yes"/>
      <point x="58" y="690"/>
      <point x="71" y="682"/>
      <point x="71" y="668" type="curve" smooth="yes"/>
    </contour>
    <contour>
      <point x="46" y="700" type="move" name="top"/>
    </contour>
    <contour>
      <point x="28" y="523" type="move" name="_top"/>
    </contour>
  </outline>
</glyph>
<glyph name="uni031B" format="1">
  <advance width="600"/>
  <unicode hex="031B"/>
  <outline>
    <contour>
      <point x="442" y="617" type="line" smooth="yes"/>
      <point x="434" y="612"/>
      <point x="429" y="605"/>
      <point x="429" y="598" type="curve" smooth="yes"/>
      <point x="429" y="585"/>
      <point x="450" y="568"/>
      <point x="450" y="550" type="curve" smooth="yes"/>
      <point x="450" y="523"/>
      <point x="433" y="510"/>
      <point x="399" y="510" type="curve"/>
      <point x="341" y="510" type="line"/>
      <point x="389" y="467" type="line"/>
      <point x="481" y="467"/>
      <point x="531" y="507"/>
      <point x="531" y="565" type="curve" smooth="yes"/>
      <point x="531" y="591"/>
      <point x="519" y="644"/>
      <point x="493" y="644" type="curve" smooth="yes"/>
      <point x="487" y="644"/>
      <point x="482" y="643"/>
      <point x="476" y="639" type="curve" smooth="yes"/>
    </contour>
    <contour>
      <point x="341" y="510" type="move" name="_horn"/>
    </contour>
    <contour>
      <point x="246" y="530" type="move" name="top"/>
    </contour>
  </outline>
</glyph>
<glyph name="uni0326" format="1">
  <advance width="353"/>
  <unicode hex="0326"/>
  <outline>
    <contour>
      <point x="152" y="-51" type="line" smooth="yes"/>
      <point x="110" y="-51"/>
      <point x="87" y="-68"/>
      <point x="87" y="-95" type="curve" smooth="yes"/>
      <point x="87" y="-175"/>
      <point x="52" y="-200"/>
      <point x="50" y="-218" type="curve" smooth="yes"/>
      <point x="49" y="-234"/>
      <point x="75" y="-240"/>
      <point x="93" y="-240" type="curve" smooth="yes"/>
      <point x="128" y="-240"/>
      <point x="216" y="-162"/>
      <point x="216" y="-95" type="curve" smooth="yes"/>
      <point x="216" y="-70"/>
      <point x="206" y="-51"/>
      <point x="171" y="-51" type="curve" smooth="yes"/>
    </contour>
    <contour>
      <point x="163" y="0" type="move" name="_bottom"/>
    </contour>
    <contour>
      <point x="147" y="-203" type="move" name="bottom"/>
    </contour>
  </outline>
</glyph>
<glyph name="mu" format="1">
  <advance width="566"/>
  <unicode hex="03BC"/>
  <outline>
    <contour>
      <point x="439" y="525" type="line" smooth="yes"/>
      <point x="400" y="525"/>
      <point x="378" y="514"/>
      <point x="376" y="493" type="curve"/>
      <point x="376" y="493"/>
      <point x="352" y="277"/>
      <point x="342" y="168" type="curve"/>
      <point x="324" y="143"/>
      <point x="294" y="114"/>
      <point x="256" y="114" type="curve" smooth="yes"/>
      <point x="217" y="114"/>
      <point x="202" y="132"/>
      <point x="202" y="163" type="curve" smooth="yes"/>
      <point x="202" y="176"/>
      <point x="236" y="494"/>
      <point x="236" y="494" type="curve"/>
      <point x="236" y="510"/>
      <point x="219" y="525"/>
      <point x="179" y="525" type="curve" smooth="yes"/>
      <point x="151" y="525" type="line" smooth="yes"/>
      <point x="112" y="525"/>
      <point x="90" y="514"/>
      <point x="88" y="493" type="curve" smooth="yes"/>
      <point x="17" y="-175" type="line"/>
      <point x="17" y="-191"/>
      <point x="34" y="-206"/>
      <point x="74" y="-206" type="curve" smooth="yes"/>
      <point x="102" y="-206" type="line" smooth="yes"/>
      <point x="141" y="-206"/>
      <point x="163" y="-195"/>
      <point x="165" y="-174" type="curve" smooth="yes"/>
      <point x="190" y="59" type="line"/>
      <point x="134" y="0" type="line"/>
      <point x="150" y="-6"/>
      <point x="167" y="-8"/>
      <point x="183" y="-8" type="curve" smooth="yes"/>
      <point x="263" y="-8"/>
      <point x="338" y="52"/>
      <point x="364" y="102" type="curve"/>
      <point x="339" y="124" type="line"/>
      <point x="339" y="116" type="line"/>
      <point x="339" y="30"/>
      <point x="380" y="-8"/>
      <point x="459" y="-8" type="curve" smooth="yes"/>
      <point x="494" y="-8"/>
      <point x="541" y="7"/>
      <point x="547" y="44" type="curve" smooth="yes"/>
      <point x="553" y="79"/>
      <point x="554" y="102"/>
      <point x="554" y="104" type="curve" smooth="yes"/>
      <point x="554" y="113"/>
      <point x="552" y="115"/>
      <point x="546" y="115" type="curve" smooth="yes"/>
      <point x="542" y="115"/>
      <point x="531" y="109"/>
      <point x="517" y="109" type="curve" smooth="yes"/>
      <point x="496" y="109"/>
      <point x="487" y="119"/>
      <point x="487" y="142" type="curve" smooth="yes"/>
      <point x="487" y="152"/>
      <point x="524" y="494"/>
      <point x="524" y="494" type="curve"/>
      <point x="524" y="510"/>
      <point x="507" y="525"/>
      <point x="467" y="525" type="curve" smooth="yes"/>
    </contour>
  </outline>
</glyph>
<glyph name="pi" format="1">
  <advance width="616"/>
  <unicode hex="03C0"/>
  <outline>
    <contour>
      <point x="189" y="523" type="line" smooth="yes"/>
      <point x="87" y="523"/>
      <point x="26" y="512"/>
      <point x="26" y="456" type="curve" smooth="yes"/>
      <point x="26" y="433"/>
      <point x="30" y="394"/>
      <point x="55" y="394" type="curve" smooth="yes"/>
      <point x="64" y="394"/>
      <point x="88" y="406"/>
      <point x="145" y="406" type="curve"/>
      <point x="126" y="284"/>
      <point x="80" y="129"/>
      <point x="35" y="31" type="curve"/>
      <point x="34" y="27"/>
      <point x="32" y="23"/>
      <point x="32" y="20" type="curve" smooth="yes"/>
      <point x="32" y="8"/>
      <point x="55" y="-2"/>
      <point x="93" y="-2" type="curve" smooth="yes"/>
      <point x="106" y="-2" type="line" smooth="yes"/>
      <point x="141" y="-2"/>
      <point x="169" y="7"/>
      <point x="179" y="27" type="curve" smooth="yes"/>
      <point x="223" y="113"/>
      <point x="271" y="282"/>
      <point x="290" y="406" type="curve"/>
      <point x="383" y="406" type="line"/>
      <point x="353" y="119" type="line" smooth="yes"/>
      <point x="352" y="107"/>
      <point x="350" y="94"/>
      <point x="350" y="80" type="curve" smooth="yes"/>
      <point x="350" y="40"/>
      <point x="360" y="-2"/>
      <point x="406" y="-2" type="curve" smooth="yes"/>
      <point x="433" y="-2" type="line" smooth="yes"/>
      <point x="476" y="-2"/>
      <point x="497" y="11"/>
      <point x="497" y="30" type="curve" smooth="yes"/>
      <point x="497" y="35"/>
      <point x="496" y="47"/>
      <point x="496" y="68" type="curve" smooth="yes"/>
      <point x="496" y="107"/>
      <point x="495" y="102"/>
      <point x="528" y="406" type="curve"/>
      <point x="575" y="406" type="line" smooth="yes"/>
      <point x="614" y="406"/>
      <point x="625" y="459"/>
      <point x="625" y="493" type="curve" smooth="yes"/>
      <point x="625" y="514"/>
      <point x="616" y="523"/>
      <point x="594" y="523" type="curve" smooth="yes"/>
    </contour>
  </outline>
</glyph>
<glyph name="endash" format="1">
  <advance width="500"/>
  <unicode hex="2013"/>
  <outline>
    <contour>
      <point x="34" y="319" type="line" smooth="yes"/>
      <point x="0" y="319"/>
      <point x="-3" y="270"/>
      <point x="-3" y="246" type="curve" smooth="yes"/>
      <point x="-3" y="222"/>
      <point x="5" y="212"/>
      <point x="23" y="212" type="curve" smooth="yes"/>
      <point x="467" y="212" type="line" smooth="yes"/>
      <point x="500" y="212"/>
      <point x="504" y="262"/>
      <point x="504" y="285" type="curve" smooth="yes"/>
      <point x="504" y="308"/>
      <point x="495" y="319"/>
      <point x="478" y="319" type="curve" smooth="yes"/>
    </contour>
  </outline>
</glyph>
<glyph name="emdash" format="1">
  <advance width="1000"/>
  <unicode hex="2014"/>
  <outline>
    <contour>
      <point x="37" y="319" type="line" smooth="yes"/>
      <point x="3" y="319"/>
      <point x="0" y="270"/>
      <point x="0" y="246" type="curve" smooth="yes"/>
      <point x="0" y="222"/>
      <point x="8" y="212"/>
      <point x="26" y="212" type="curve" smooth="yes"/>
      <point x="963" y="212" type="line" smooth="yes"/>
      <point x="996" y="212"/>
      <point x="1000" y="262"/>
      <point x="1000" y="285" type="curve" smooth="yes"/>
      <point x="1000" y="308"/>
      <point x="991" y="319"/>
      <point x="974" y="319" type="curve" smooth="yes"/>
    </contour>
  </outline>
</glyph>
<glyph name="quoteleft" format="1">
  <advance width="212"/>
  <unicode hex="2018"/>
  <outline>
    <contour>
      <point x="115" y="754"/>
      <point x="-1" y="600"/>
      <point x="-1" y="515" type="curve" smooth="yes"/>
      <point x="-1" y="492"/>
      <point x="15" y="475"/>
      <point x="55" y="475" type="curve" smooth="yes"/>
      <point x="74" y="475" type="line" smooth="yes"/>
      <point x="116" y="475"/>
      <point x="136" y="492"/>
      <point x="138" y="519" type="curve"/>
      <point x="148" y="616"/>
      <point x="176" y="666"/>
      <point x="192" y="699" type="curve" smooth="yes"/>
      <point x="199" y="713"/>
      <point x="204" y="724"/>
      <point x="204" y="734" type="curve" smooth="yes"/>
      <point x="204" y="749"/>
      <point x="179" y="754"/>
      <point x="162" y="754" type="curve" smooth="yes"/>
    </contour>
  </outline>
</glyph>
<glyph name="bullet" format="1">
  <advance width="336"/>
  <unicode hex="2022"/>
  <outline>
    <contour>
      <point x="94" y="459"/>
      <point x="34" y="386"/>
      <point x="34" y="313" type="curve" smooth="yes"/>
      <point x="34" y="246"/>
      <point x="85" y="194"/>
      <point x="154" y="194" type="curve" smooth="yes"/>
      <point x="239" y="194"/>
      <point x="301" y="261"/>
      <point x="301" y="340" type="curve" smooth="yes"/>
      <point x="301" y="407"/>
      <point x="249" y="459"/>
      <point x="181" y="459" type="curve" smooth="yes"/>
    </contour>
  </outline>
</glyph>
<glyph name="fraction" format="1">
  <advance width="264"/>
  <unicode hex="2044"/>
  <outline>
    <contour>
      <point x="357" y="700" type="line" smooth="yes"/>
      <point x="336" y="700"/>
      <point x="321" y="691"/>
      <point x="310" y="674" type="curve" smooth="yes"/>
      <point x="-117" y="26" type="line" smooth="yes"/>
      <point x="-122" y="19"/>
      <point x="-124" y="14"/>
      <point x="-124" y="9" type="curve" smooth="yes"/>
      <point x="-124" y="2"/>
      <point x="-117" y="0"/>
      <point x="-104" y="0" type="curve" smooth="yes"/>
      <point x="-87" y="0" type="line" smooth="yes"/>
      <point x="-67" y="0"/>
      <point x="-53" y="7"/>
      <point x="-40" y="26" type="curve" smooth="yes"/>
      <point x="387" y="674" type="line" smooth="yes"/>
      <point x="392" y="681"/>
      <point x="394" y="685"/>
      <point x="394" y="690" type="curve" smooth="yes"/>
      <point x="394" y="696"/>
      <point x="387" y="700"/>
      <point x="374" y="700" type="curve" smooth="yes"/>
    </contour>
  </outline>
</glyph>
<glyph name="Euro" format="1">
  <advance width="600"/>
  <unicode hex="20AC"/>
  <outline>
    <contour>
      <point x="217" y="708"/>
      <point x="115" y="603"/>
      <point x="74" y="459" type="curve"/>
      <point x="38" y="459" type="line" smooth="yes"/>
      <point x="13" y="459"/>
      <point x="5" y="437"/>
      <point x="5" y="407" type="curve" smooth="yes"/>
      <point x="5" y="391"/>
      <point x="13" y="384"/>
      <point x="28" y="384" type="curve" smooth="yes"/>
      <point x="58" y="384" type="line"/>
      <point x="55" y="359"/>
      <point x="52" y="334"/>
      <point x="51" y="308" type="curve"/>
      <point x="22" y="308" type="line" smooth="yes"/>
      <point x="-3" y="308"/>
      <point x="-11" y="286"/>
      <point x="-11" y="256" type="curve" smooth="yes"/>
      <point x="-11" y="240"/>
      <point x="-3" y="233"/>
      <point x="12" y="233" type="curve" smooth="yes"/>
      <point x="52" y="233" type="line"/>
      <point x="65" y="68"/>
      <point x="158" y="-8"/>
      <point x="336" y="-8" type="curve" smooth="yes"/>
      <point x="377" y="-8"/>
      <point x="506" y="3"/>
      <point x="515" y="52" type="curve" smooth="yes"/>
      <point x="524" y="100"/>
      <point x="525" y="140"/>
      <point x="525" y="147" type="curve" smooth="yes"/>
      <point x="525" y="160"/>
      <point x="519" y="162"/>
      <point x="513" y="162" type="curve" smooth="yes"/>
      <point x="502" y="162"/>
      <point x="441" y="123"/>
      <point x="350" y="123" type="curve" smooth="yes"/>
      <point x="275" y="123"/>
      <point x="231" y="160"/>
      <point x="216" y="233" type="curve"/>
      <point x="434" y="233" type="line" smooth="yes"/>
      <point x="468" y="233"/>
      <point x="484" y="271"/>
      <point x="484" y="295" type="curve" smooth="yes"/>
      <point x="484" y="304"/>
      <point x="483" y="308"/>
      <point x="470" y="308" type="curve" smooth="yes"/>
      <point x="210" y="308" type="line"/>
      <point x="210" y="335"/>
      <point x="212" y="361"/>
      <point x="215" y="384" type="curve"/>
      <point x="450" y="384" type="line" smooth="yes"/>
      <point x="484" y="384"/>
      <point x="500" y="422"/>
      <point x="500" y="446" type="curve" smooth="yes"/>
      <point x="500" y="455"/>
      <point x="499" y="459"/>
      <point x="486" y="459" type="curve" smooth="yes"/>
      <point x="234" y="459" type="line"/>
      <point x="263" y="537"/>
      <point x="320" y="576"/>
      <point x="399" y="576" type="curve" smooth="yes"/>
      <point x="470" y="576"/>
      <point x="506" y="548"/>
      <point x="515" y="548" type="curve" smooth="yes"/>
      <point x="540" y="548"/>
      <point x="590" y="617"/>
      <point x="590" y="644" type="curve" smooth="yes"/>
      <point x="590" y="683"/>
      <point x="488" y="708"/>
      <point x="416" y="708" type="curve" smooth="yes"/>
    </contour>
  </outline>
</glyph>
<glyph name="uni20B2" format="1">
  <advance width="672"/>
  <unicode hex="20B2"/>
  <outline>
    <contour>
      <point x="378" y="707" type="line"/>
      <point x="381" y="738" type="line" smooth="yes"/>
      <point x="384" y="759"/>
      <point x="376" y="768"/>
      <point x="355" y="768" type="curve" smooth="yes"/>
      <point x="337" y="768"/>
      <point x="327" y="759"/>
      <point x="324" y="738" type="curve" smooth="yes"/>
      <point x="321" y="706" type="line"/>
      <point x="246" y="-7" type="line"/>
      <point x="242" y="-51" type="line" smooth="yes"/>
      <point x="239" y="-72"/>
      <point x="247" y="-81"/>
      <point x="268" y="-81" type="curve" smooth="yes"/>
      <point x="286" y="-81"/>
      <point x="296" y="-72"/>
      <point x="299" y="-51" type="curve" smooth="yes"/>
      <point x="303" y="-6" type="line"/>
    </contour>
    <contour>
      <point x="175" y="708"/>
      <point x="41" y="565"/>
      <point x="41" y="276" type="curve" smooth="yes"/>
      <point x="41" y="82"/>
      <point x="136" y="-8"/>
      <point x="336" y="-8" type="curve" smooth="yes"/>
      <point x="406" y="-8"/>
      <point x="569" y="2"/>
      <point x="577" y="71" type="curve" smooth="yes"/>
      <point x="587" y="167"/>
      <point x="608" y="349"/>
      <point x="608" y="358" type="curve"/>
      <point x="608" y="381"/>
      <point x="598" y="389"/>
      <point x="571" y="389" type="curve" smooth="yes"/>
      <point x="407" y="389" type="line" smooth="yes"/>
      <point x="378" y="389"/>
      <point x="369" y="350"/>
      <point x="369" y="298" type="curve" smooth="yes"/>
      <point x="369" y="270"/>
      <point x="377" y="258"/>
      <point x="395" y="258" type="curve" smooth="yes"/>
      <point x="442" y="258" type="line"/>
      <point x="428" y="130" type="line"/>
      <point x="401" y="125"/>
      <point x="378" y="123"/>
      <point x="350" y="123" type="curve" smooth="yes"/>
      <point x="249" y="123"/>
      <point x="200" y="183"/>
      <point x="200" y="298" type="curve" smooth="yes"/>
      <point x="200" y="483"/>
      <point x="271" y="576"/>
      <point x="399" y="576" type="curve" smooth="yes"/>
      <point x="495" y="576"/>
      <point x="532" y="544"/>
      <point x="544" y="544" type="curve" smooth="yes"/>
      <point x="569" y="544"/>
      <point x="619" y="613"/>
      <point x="619" y="640" type="curve" smooth="yes"/>
      <point x="619" y="681"/>
      <point x="502" y="708"/>
      <point x="416" y="708" type="curve" smooth="yes"/>
    </contour>
  </outline>
</glyph>
<glyph name="uni2113" format="1">
  <advance width="400"/>
  <unicode hex="2113"/>
  <outline>
    <contour>
      <point x="198" y="290" type="line"/>
      <point x="326" y="381"/>
      <point x="421" y="524"/>
      <point x="421" y="642" type="curve" smooth="yes"/>
      <point x="421" y="708"/>
      <point x="389" y="755"/>
      <point x="312" y="755" type="curve" smooth="yes"/>
      <point x="218" y="755"/>
      <point x="96" y="725"/>
      <point x="65" y="427" type="curve" smooth="yes"/>
      <point x="48" y="272" type="line"/>
      <point x="29" y="259"/>
      <point x="10" y="246"/>
      <point x="-10" y="234" type="curve" smooth="yes"/>
      <point x="-23" y="226"/>
      <point x="-29" y="212"/>
      <point x="-29" y="199" type="curve" smooth="yes"/>
      <point x="-29" y="194"/>
      <point x="-28" y="189"/>
      <point x="-26" y="185" type="curve" smooth="yes"/>
      <point x="-21" y="174"/>
      <point x="-14" y="166"/>
      <point x="-3" y="166" type="curve" smooth="yes"/>
      <point x="2" y="166"/>
      <point x="8" y="168"/>
      <point x="14" y="172" type="curve" smooth="yes"/>
      <point x="39" y="188" type="line"/>
      <point x="36" y="154" type="line" smooth="yes"/>
      <point x="35" y="143"/>
      <point x="34" y="132"/>
      <point x="34" y="122" type="curve" smooth="yes"/>
      <point x="34" y="33"/>
      <point x="81" y="-8"/>
      <point x="165" y="-8" type="curve" smooth="yes"/>
      <point x="205" y="-8"/>
      <point x="291" y="-4"/>
      <point x="297" y="51" type="curve" smooth="yes"/>
      <point x="298" y="59"/>
      <point x="294" y="123"/>
      <point x="274" y="123" type="curve" smooth="yes"/>
      <point x="262" y="123"/>
      <point x="233" y="109"/>
      <point x="215" y="109" type="curve" smooth="yes"/>
      <point x="193" y="109"/>
      <point x="183" y="118"/>
      <point x="183" y="140" type="curve" smooth="yes"/>
      <point x="183" y="143"/>
      <point x="183" y="147"/>
      <point x="184" y="152" type="curve" smooth="yes"/>
    </contour>
    <contour>
      <point x="335" y="663"/>
      <point x="344" y="649"/>
      <point x="344" y="627" type="curve" smooth="yes"/>
      <point x="344" y="555"/>
      <point x="280" y="447"/>
      <point x="209" y="381" type="curve"/>
      <point x="237" y="651"/>
      <point x="275" y="663"/>
      <point x="314" y="663" type="curve" smooth="yes"/>
    </contour>
  </outline>
</glyph>
<glyph name="estimated" format="1">
  <advance width="768"/>
  <unicode hex="212E"/>
  <outline>
    <contour>
      <point x="653" y="151"/>
      <point x="641" y="147"/>
      <point x="627" y="131" type="curve" smooth="yes"/>
      <point x="577" y="79"/>
      <point x="479" y="48"/>
      <point x="399" y="48" type="curve"/>
      <point x="222" y="48"/>
      <point x="82" y="184"/>
      <point x="82" y="355" type="curve"/>
      <point x="82" y="516"/>
      <point x="218" y="657"/>
      <point x="389" y="657" type="curve"/>
      <point x="550" y="657"/>
      <point x="691" y="516"/>
      <point x="691" y="355" type="curve"/>
      <point x="741" y="355" type="line"/>
      <point x="741" y="548"/>
      <point x="582" y="707"/>
      <point x="389" y="707" type="curve"/>
      <point x="191" y="707"/>
      <point x="27" y="548"/>
      <point x="27" y="355" type="curve"/>
      <point x="27" y="157"/>
      <point x="196" y="-7"/>
      <point x="399" y="-7" type="curve"/>
      <point x="501" y="-7"/>
      <point x="597" y="32"/>
      <point x="665" y="97" type="curve" smooth="yes"/>
      <point x="680" y="111"/>
      <point x="680" y="127"/>
      <point x="667" y="139" type="curve" smooth="yes"/>
    </contour>
    <contour>
      <point x="48" y="355" type="line"/>
      <point x="728" y="355" type="line"/>
      <point x="728" y="405" type="line"/>
      <point x="48" y="405" type="line"/>
    </contour>
    <contour>
      <point x="56" y="237" type="line"/>
      <point x="207" y="98" type="line"/>
      <point x="207" y="612" type="line"/>
      <point x="56" y="465" type="line"/>
    </contour>
    <contour>
      <point x="566" y="612" type="line"/>
      <point x="566" y="362" type="line"/>
      <point x="717" y="363" type="line"/>
      <point x="717" y="465" type="line"/>
    </contour>
  </outline>
</glyph>
<glyph name="uni2153" format="1">
  <advance width="746"/>
  <unicode hex="2153"/>
  <outline>
    <contour>
      <point x="558" y="700" type="line" smooth="yes"/>
      <point x="538" y="700"/>
      <point x="522" y="692"/>
      <point x="510" y="674" type="curve" smooth="yes"/>
      <point x="83" y="26" type="line" smooth="yes"/>
      <point x="78" y="19"/>
      <point x="76" y="14"/>
      <point x="76" y="9" type="curve" smooth="yes"/>
      <point x="76" y="2"/>
      <point x="83" y="0"/>
      <point x="96" y="0" type="curve" smooth="yes"/>
      <point x="113" y="0" type="line" smooth="yes"/>
      <point x="133" y="0"/>
      <point x="147" y="7"/>
      <point x="160" y="26" type="curve" smooth="yes"/>
      <point x="587" y="674" type="line"/>
      <point x="592" y="680"/>
      <point x="595" y="686"/>
      <point x="595" y="690" type="curve" smooth="yes"/>
      <point x="595" y="696"/>
      <point x="588" y="700"/>
      <point x="575" y="700" type="curve" smooth="yes"/>
    </contour>
    <contour>
      <point x="64" y="678" type="line" smooth="yes"/>
      <point x="48" y="675"/>
      <point x="46" y="664"/>
      <point x="46" y="647" type="curve" smooth="yes"/>
      <point x="46" y="631"/>
      <point x="49" y="611"/>
      <point x="61" y="611" type="curve"/>
      <point x="141" y="624" type="line"/>
      <point x="108" y="312" type="line"/>
      <point x="108" y="300"/>
      <point x="116" y="293"/>
      <point x="141" y="293" type="curve" smooth="yes"/>
      <point x="157" y="293" type="line" smooth="yes"/>
      <point x="181" y="293"/>
      <point x="193" y="300"/>
      <point x="194" y="312" type="curve" smooth="yes"/>
      <point x="234" y="690" type="line"/>
      <point x="234" y="697"/>
      <point x="221" y="704"/>
      <point x="212" y="704" type="curve"/>
    </contour>
    <contour>
      <point x="510" y="413"/>
      <point x="451" y="399"/>
      <point x="451" y="369" type="curve" smooth="yes"/>
      <point x="451" y="353"/>
      <point x="464" y="326"/>
      <point x="475" y="326" type="curve" smooth="yes"/>
      <point x="486" y="326"/>
      <point x="502" y="344"/>
      <point x="547" y="344" type="curve" smooth="yes"/>
      <point x="575" y="344"/>
      <point x="589" y="329"/>
      <point x="589" y="305" type="curve" smooth="yes"/>
      <point x="589" y="271"/>
      <point x="565" y="248"/>
      <point x="523" y="248" type="curve" smooth="yes"/>
      <point x="512" y="248" type="line" smooth="yes"/>
      <point x="494" y="248"/>
      <point x="489" y="228"/>
      <point x="489" y="201" type="curve" smooth="yes"/>
      <point x="489" y="186"/>
      <point x="494" y="180"/>
      <point x="504" y="180" type="curve" smooth="yes"/>
      <point x="521" y="180" type="line" smooth="yes"/>
      <point x="566" y="180"/>
      <point x="584" y="162"/>
      <point x="584" y="130" type="curve" smooth="yes"/>
      <point x="584" y="88"/>
      <point x="558" y="63"/>
      <point x="520" y="63" type="curve" smooth="yes"/>
      <point x="470" y="63"/>
      <point x="446" y="86"/>
      <point x="438" y="86" type="curve" smooth="yes"/>
      <point x="432" y="86"/>
      <point x="424" y="74"/>
      <point x="424" y="31" type="curve" smooth="yes"/>
      <point x="424" y="-2"/>
      <point x="496" y="-5"/>
      <point x="526" y="-5" type="curve" smooth="yes"/>
      <point x="608" y="-5"/>
      <point x="672" y="47"/>
      <point x="672" y="134" type="curve" smooth="yes"/>
      <point x="672" y="175"/>
      <point x="654" y="206"/>
      <point x="614" y="221" type="curve"/>
      <point x="614" y="226" type="line"/>
      <point x="652" y="241"/>
      <point x="679" y="277"/>
      <point x="679" y="323" type="curve" smooth="yes"/>
      <point x="679" y="379"/>
      <point x="637" y="413"/>
      <point x="569" y="413" type="curve" smooth="yes"/>
    </contour>
  </outline>
</glyph>
<glyph name="oneeighth" format="1">
  <advance width="746"/>
  <unicode hex="215B"/>
  <outline>
    <contour>
      <point x="558" y="700" type="line" smooth="yes"/>
      <point x="538" y="700"/>
      <point x="522" y="692"/>
      <point x="510" y="674" type="curve" smooth="yes"/>
      <point x="83" y="26" type="line" smooth="yes"/>
      <point x="78" y="19"/>
      <point x="76" y="14"/>
      <point x="76" y="9" type="curve" smooth="yes"/>
      <point x="76" y="2"/>
      <point x="83" y="0"/>
      <point x="96" y="0" type="curve" smooth="yes"/>
      <point x="113" y="0" type="line" smooth="yes"/>
      <point x="133" y="0"/>
      <point x="147" y="7"/>
      <point x="160" y="26" type="curve" smooth="yes"/>
      <point x="587" y="674" type="line"/>
      <point x="592" y="680"/>
      <point x="595" y="686"/>
      <point x="595" y="690" type="curve" smooth="yes"/>
      <point x="595" y="696"/>
      <point x="588" y="700"/>
      <point x="575" y="700" type="curve" smooth="yes"/>
    </contour>
    <contour>
      <point x="64" y="678" type="line" smooth="yes"/>
      <point x="48" y="675"/>
      <point x="46" y="664"/>
      <point x="46" y="647" type="curve" smooth="yes"/>
      <point x="46" y="631"/>
      <point x="49" y="611"/>
      <point x="61" y="611" type="curve"/>
      <point x="141" y="624" type="line"/>
      <point x="108" y="312" type="line"/>
      <point x="108" y="300"/>
      <point x="116" y="293"/>
      <point x="141" y="293" type="curve" smooth="yes"/>
      <point x="157" y="293" type="line" smooth="yes"/>
      <point x="181" y="293"/>
      <point x="193" y="300"/>
      <point x="194" y="312" type="curve" smooth="yes"/>
      <point x="234" y="690" type="line"/>
      <point x="234" y="697"/>
      <point x="221" y="704"/>
      <point x="212" y="704" type="curve"/>
    </contour>
    <component base="eight" xOffset="405" xScale="0.59" yScale="0.59"/>
  </outline>
</glyph>
<glyph name="arrowdown" format="1">
  <advance width="529"/>
  <unicode hex="2193"/>
  <outline>
    <contour>
      <point x="292" y="711" type="line" smooth="yes"/>
      <point x="261" y="711"/>
      <point x="247" y="700"/>
      <point x="245" y="679" type="curve" smooth="yes"/>
      <point x="193" y="185" type="line"/>
      <point x="24" y="377" type="line" smooth="yes"/>
      <point x="18" y="383"/>
      <point x="15" y="387"/>
      <point x="11" y="387" type="curve" smooth="yes"/>
      <point x="6" y="387"/>
      <point x="3" y="380"/>
      <point x="2" y="368" type="curve" smooth="yes"/>
      <point x="-7" y="272" type="line"/>
      <point x="-7" y="256"/>
      <point x="-2" y="243"/>
      <point x="9" y="231" type="curve" smooth="yes"/>
      <point x="210" y="5" type="line" smooth="yes"/>
      <point x="214" y="0"/>
      <point x="219" y="-2"/>
      <point x="227" y="-2" type="curve" smooth="yes"/>
      <point x="235" y="-2"/>
      <point x="240" y="0"/>
      <point x="246" y="5" type="curve" smooth="yes"/>
      <point x="496" y="232" type="line" smooth="yes"/>
      <point x="512" y="247"/>
      <point x="520" y="262"/>
      <point x="522" y="283" type="curve"/>
      <point x="525" y="314"/>
      <point x="531" y="372"/>
      <point x="531" y="376" type="curve" smooth="yes"/>
      <point x="531" y="384"/>
      <point x="530" y="388"/>
      <point x="526" y="388" type="curve" smooth="yes"/>
      <point x="523" y="388"/>
      <point x="518" y="384"/>
      <point x="511" y="378" type="curve" smooth="yes"/>
      <point x="300" y="184" type="line"/>
      <point x="352" y="679" type="line"/>
      <point x="352" y="699"/>
      <point x="343" y="711"/>
      <point x="311" y="711" type="curve" smooth="yes"/>
    </contour>
  </outline>
</glyph>
<glyph name="partialdiff" format="1">
  <advance width="514"/>
  <unicode hex="2202"/>
  <outline>
    <contour>
      <point x="135" y="734"/>
      <point x="87" y="680"/>
      <point x="87" y="649" type="curve" smooth="yes"/>
      <point x="87" y="626"/>
      <point x="114" y="585"/>
      <point x="134" y="585" type="curve" smooth="yes"/>
      <point x="150" y="585"/>
      <point x="175" y="611"/>
      <point x="225" y="611" type="curve" smooth="yes"/>
      <point x="303" y="611"/>
      <point x="350" y="556"/>
      <point x="350" y="405" type="curve" smooth="yes"/>
      <point x="350" y="379"/>
      <point x="349" y="351"/>
      <point x="346" y="320" type="curve"/>
      <point x="374" y="375" type="line"/>
      <point x="363" y="410"/>
      <point x="297" y="429"/>
      <point x="256" y="429" type="curve" smooth="yes"/>
      <point x="106" y="429"/>
      <point x="2" y="303"/>
      <point x="2" y="171" type="curve" smooth="yes"/>
      <point x="2" y="64"/>
      <point x="77" y="-10"/>
      <point x="194" y="-10" type="curve" smooth="yes"/>
      <point x="381" y="-10"/>
      <point x="494" y="161"/>
      <point x="494" y="410" type="curve" smooth="yes"/>
      <point x="494" y="610"/>
      <point x="403" y="734"/>
      <point x="251" y="734" type="curve" smooth="yes"/>
    </contour>
    <contour>
      <point x="284" y="304"/>
      <point x="308" y="295"/>
      <point x="334" y="273" type="curve"/>
      <point x="310" y="161"/>
      <point x="266" y="114"/>
      <point x="207" y="114" type="curve" smooth="yes"/>
      <point x="168" y="114"/>
      <point x="144" y="139"/>
      <point x="144" y="185" type="curve" smooth="yes"/>
      <point x="144" y="246"/>
      <point x="190" y="304"/>
      <point x="249" y="304" type="curve" smooth="yes"/>
    </contour>
  </outline>
</glyph>
<glyph name="product" format="1">
  <advance width="750"/>
  <unicode hex="220F"/>
  <outline>
    <contour>
      <point x="88" y="700" type="line" smooth="yes"/>
      <point x="59" y="700"/>
      <point x="50" y="662"/>
      <point x="50" y="610" type="curve" smooth="yes"/>
      <point x="50" y="582"/>
      <point x="58" y="570"/>
      <point x="76" y="570" type="curve" smooth="yes"/>
      <point x="155" y="570" type="line"/>
      <point x="88" y="-72" type="line"/>
      <point x="88" y="-94"/>
      <point x="99" y="-104"/>
      <point x="144" y="-104" type="curve" smooth="yes"/>
      <point x="168" y="-104" type="line" smooth="yes"/>
      <point x="209" y="-104"/>
      <point x="230" y="-93"/>
      <point x="232" y="-72" type="curve" smooth="yes"/>
      <point x="299" y="570" type="line"/>
      <point x="505" y="570" type="line"/>
      <point x="438" y="-72" type="line"/>
      <point x="438" y="-94"/>
      <point x="449" y="-104"/>
      <point x="494" y="-104" type="curve" smooth="yes"/>
      <point x="518" y="-104" type="line" smooth="yes"/>
      <point x="559" y="-104"/>
      <point x="580" y="-93"/>
      <point x="582" y="-72" type="curve" smooth="yes"/>
      <point x="649" y="570" type="line"/>
      <point x="733" y="570" type="line" smooth="yes"/>
      <point x="762" y="570"/>
      <point x="771" y="608"/>
      <point x="771" y="660" type="curve" smooth="yes"/>
      <point x="771" y="688"/>
      <point x="763" y="700"/>
      <point x="745" y="700" type="curve" smooth="yes"/>
    </contour>
  </outline>
</glyph>
<glyph name="radical" format="1">
  <advance width="618"/>
  <unicode hex="221A"/>
  <outline>
    <contour>
      <point x="608" y="814" type="line" smooth="yes"/>
      <point x="575" y="814"/>
      <point x="555" y="804"/>
      <point x="548" y="783" type="curve" smooth="yes"/>
      <point x="330" y="153" type="line" smooth="yes"/>
      <point x="319" y="121"/>
      <point x="303" y="38"/>
      <point x="303" y="38" type="curve"/>
      <point x="298" y="38" type="line"/>
      <point x="298" y="38"/>
      <point x="293" y="103"/>
      <point x="281" y="152" type="curve" smooth="yes"/>
      <point x="226" y="371" type="line" smooth="yes"/>
      <point x="222" y="386"/>
      <point x="212" y="394"/>
      <point x="199" y="394" type="curve" smooth="yes"/>
      <point x="190" y="394"/>
      <point x="180" y="389"/>
      <point x="50" y="341" type="curve" smooth="yes"/>
      <point x="31" y="334"/>
      <point x="22" y="323"/>
      <point x="22" y="307" type="curve" smooth="yes"/>
      <point x="22" y="304"/>
      <point x="23" y="300"/>
      <point x="33" y="263" type="curve" smooth="yes"/>
      <point x="37" y="247"/>
      <point x="44" y="239"/>
      <point x="58" y="239" type="curve" smooth="yes"/>
      <point x="63" y="239"/>
      <point x="70" y="241"/>
      <point x="116" y="257" type="curve"/>
      <point x="216" y="-126" type="line" smooth="yes"/>
      <point x="221" y="-147"/>
      <point x="242" y="-156"/>
      <point x="273" y="-156" type="curve" smooth="yes"/>
      <point x="303" y="-156" type="line" smooth="yes"/>
      <point x="336" y="-156"/>
      <point x="356" y="-146"/>
      <point x="363" y="-125" type="curve" smooth="yes"/>
      <point x="674" y="771"/>
      <point x="679" y="788"/>
      <point x="679" y="794" type="curve" smooth="yes"/>
      <point x="679" y="811"/>
      <point x="656" y="814"/>
      <point x="637" y="814" type="curve" smooth="yes"/>
    </contour>
  </outline>
</glyph>
<glyph name="infinity" format="1">
  <advance width="788"/>
  <unicode hex="221E"/>
  <outline>
    <contour>
      <point x="527" y="448"/>
      <point x="471" y="420"/>
      <point x="399" y="352" type="curve"/>
      <point x="360" y="403"/>
      <point x="312" y="448"/>
      <point x="237" y="448" type="curve" smooth="yes"/>
      <point x="120" y="448"/>
      <point x="46" y="370"/>
      <point x="46" y="261" type="curve" smooth="yes"/>
      <point x="46" y="174"/>
      <point x="109" y="111"/>
      <point x="194" y="111" type="curve" smooth="yes"/>
      <point x="256" y="111"/>
      <point x="306" y="136"/>
      <point x="384" y="209" type="curve"/>
      <point x="427" y="157"/>
      <point x="479" y="111"/>
      <point x="559" y="111" type="curve" smooth="yes"/>
      <point x="665" y="111"/>
      <point x="743" y="194"/>
      <point x="743" y="301" type="curve" smooth="yes"/>
      <point x="743" y="389"/>
      <point x="679" y="448"/>
      <point x="586" y="448" type="curve" smooth="yes"/>
    </contour>
    <contour>
      <point x="268" y="337"/>
      <point x="296" y="311"/>
      <point x="324" y="276" type="curve"/>
      <point x="282" y="241"/>
      <point x="250" y="225"/>
      <point x="224" y="225" type="curve" smooth="yes"/>
      <point x="194" y="225"/>
      <point x="173" y="245"/>
      <point x="173" y="274" type="curve" smooth="yes"/>
      <point x="173" y="311"/>
      <point x="198" y="337"/>
      <point x="231" y="337" type="curve" smooth="yes"/>
    </contour>
    <contour>
      <point x="598" y="337"/>
      <point x="615" y="318"/>
      <point x="615" y="289" type="curve" smooth="yes"/>
      <point x="615" y="252"/>
      <point x="586" y="225"/>
      <point x="553" y="225" type="curve" smooth="yes"/>
      <point x="517" y="225"/>
      <point x="490" y="247"/>
      <point x="465" y="278" type="curve"/>
      <point x="506" y="321"/>
      <point x="535" y="337"/>
      <point x="570" y="337" type="curve" smooth="yes"/>
    </contour>
  </outline>
</glyph>
<glyph name="notequal" format="1">
  <advance width="560"/>
  <unicode hex="2260"/>
  <outline>
    <contour>
      <point x="435" y="450" type="line" smooth="yes"/>
      <point x="414" y="450"/>
      <point x="399" y="441"/>
      <point x="386" y="424" type="curve" smooth="yes"/>
      <point x="346" y="374" type="line"/>
      <point x="84" y="374" type="line" smooth="yes"/>
      <point x="50" y="374"/>
      <point x="47" y="325"/>
      <point x="47" y="301" type="curve" smooth="yes"/>
      <point x="47" y="277"/>
      <point x="55" y="267"/>
      <point x="73" y="267" type="curve" smooth="yes"/>
      <point x="261" y="267" type="line"/>
      <point x="203" y="193" type="line"/>
      <point x="65" y="193" type="line" smooth="yes"/>
      <point x="31" y="193"/>
      <point x="28" y="144"/>
      <point x="28" y="120" type="curve" smooth="yes"/>
      <point x="28" y="96"/>
      <point x="36" y="86"/>
      <point x="54" y="86" type="curve" smooth="yes"/>
      <point x="118" y="86" type="line"/>
      <point x="75" y="32" type="line" smooth="yes"/>
      <point x="70" y="25"/>
      <point x="67" y="20"/>
      <point x="67" y="15" type="curve" smooth="yes"/>
      <point x="67" y="9"/>
      <point x="73" y="6"/>
      <point x="86" y="6" type="curve" smooth="yes"/>
      <point x="131" y="6" type="line" smooth="yes"/>
      <point x="152" y="6"/>
      <point x="167" y="15"/>
      <point x="180" y="32" type="curve" smooth="yes"/>
      <point x="223" y="86" type="line"/>
      <point x="474" y="86" type="line" smooth="yes"/>
      <point x="507" y="86"/>
      <point x="511" y="136"/>
      <point x="511" y="159" type="curve" smooth="yes"/>
      <point x="511" y="182"/>
      <point x="502" y="193"/>
      <point x="485" y="193" type="curve" smooth="yes"/>
      <point x="308" y="193" type="line"/>
      <point x="366" y="267" type="line"/>
      <point x="493" y="267" type="line" smooth="yes"/>
      <point x="526" y="267"/>
      <point x="530" y="317"/>
      <point x="530" y="340" type="curve" smooth="yes"/>
      <point x="530" y="363"/>
      <point x="521" y="374"/>
      <point x="504" y="374" type="curve" smooth="yes"/>
      <point x="451" y="374" type="line"/>
      <point x="491" y="424" type="line" smooth="yes"/>
      <point x="496" y="431"/>
      <point x="499" y="436"/>
      <point x="499" y="440" type="curve" smooth="yes"/>
      <point x="499" y="447"/>
      <point x="493" y="450"/>
      <point x="480" y="450" type="curve" smooth="yes"/>
    </contour>
  </outline>
</glyph>
<glyph name="lessequal" format="1">
  <advance width="566"/>
  <unicode hex="2264"/>
  <outline>
    <contour>
      <point x="524" y="578"/>
      <point x="520" y="577"/>
      <point x="516" y="576" type="curve" smooth="yes"/>
      <point x="78" y="417" type="line" smooth="yes"/>
      <point x="51" y="407"/>
      <point x="43" y="374"/>
      <point x="43" y="347" type="curve" smooth="yes"/>
      <point x="43" y="330"/>
      <point x="51" y="321"/>
      <point x="67" y="314" type="curve" smooth="yes"/>
      <point x="468" y="134" type="line" smooth="yes"/>
      <point x="472" y="132"/>
      <point x="475" y="131"/>
      <point x="478" y="131" type="curve" smooth="yes"/>
      <point x="503" y="131"/>
      <point x="505" y="185"/>
      <point x="505" y="202" type="curve" smooth="yes"/>
      <point x="505" y="225"/>
      <point x="498" y="241"/>
      <point x="480" y="249" type="curve" smooth="yes"/>
      <point x="200" y="365" type="line"/>
      <point x="504" y="461" type="line"/>
      <point x="538" y="474"/>
      <point x="543" y="524"/>
      <point x="543" y="553" type="curve" smooth="yes"/>
      <point x="543" y="570"/>
      <point x="538" y="578"/>
      <point x="527" y="578" type="curve" smooth="yes"/>
    </contour>
    <contour>
      <point x="48" y="107" type="line" smooth="yes"/>
      <point x="14" y="107"/>
      <point x="11" y="58"/>
      <point x="11" y="34" type="curve" smooth="yes"/>
      <point x="11" y="10"/>
      <point x="19" y="0"/>
      <point x="37" y="0" type="curve" smooth="yes"/>
      <point x="454" y="0" type="line" smooth="yes"/>
      <point x="487" y="0"/>
      <point x="491" y="50"/>
      <point x="491" y="73" type="curve" smooth="yes"/>
      <point x="491" y="96"/>
      <point x="482" y="107"/>
      <point x="465" y="107" type="curve" smooth="yes"/>
    </contour>
  </outline>
</glyph>
<glyph name="uniFB01" format="1">
  <advance width="563"/>
  <unicode hex="FB01"/>
  <outline>
    <contour>
      <point x="168" y="760"/>
      <point x="109" y="700"/>
      <point x="100" y="598" type="curve" smooth="yes"/>
      <point x="93" y="523" type="line"/>
      <point x="72" y="523" type="line" smooth="yes"/>
      <point x="43" y="523"/>
      <point x="34" y="488"/>
      <point x="34" y="442" type="curve" smooth="yes"/>
      <point x="34" y="417"/>
      <point x="42" y="406"/>
      <point x="60" y="406" type="curve" smooth="yes"/>
      <point x="80" y="406" type="line"/>
      <point x="41" y="29" type="line"/>
      <point x="41" y="13"/>
      <point x="58" y="-2"/>
      <point x="98" y="-2" type="curve" smooth="yes"/>
      <point x="126" y="-2" type="line" smooth="yes"/>
      <point x="165" y="-2"/>
      <point x="187" y="9"/>
      <point x="189" y="30" type="curve" smooth="yes"/>
      <point x="228" y="406" type="line"/>
      <point x="258" y="406" type="line" smooth="yes"/>
      <point x="297" y="406"/>
      <point x="316" y="466"/>
      <point x="316" y="503" type="curve" smooth="yes"/>
      <point x="316" y="517"/>
      <point x="314" y="523"/>
      <point x="300" y="523" type="curve" smooth="yes"/>
      <point x="240" y="523" type="line"/>
      <point x="249" y="600" type="line" smooth="yes"/>
      <point x="252" y="629"/>
      <point x="263" y="643"/>
      <point x="289" y="643" type="curve" smooth="yes"/>
      <point x="309" y="643"/>
      <point x="314" y="638"/>
      <point x="322" y="638" type="curve" smooth="yes"/>
      <point x="339" y="638"/>
      <point x="359" y="697"/>
      <point x="359" y="714" type="curve" smooth="yes"/>
      <point x="359" y="752"/>
      <point x="311" y="760"/>
      <point x="263" y="760" type="curve" smooth="yes"/>
    </contour>
    <contour>
      <point x="432" y="525" type="line" smooth="yes"/>
      <point x="393" y="525"/>
      <point x="371" y="514"/>
      <point x="369" y="493" type="curve"/>
      <point x="369" y="493"/>
      <point x="331" y="147"/>
      <point x="331" y="119" type="curve" smooth="yes"/>
      <point x="331" y="29"/>
      <point x="374" y="-8"/>
      <point x="452" y="-8" type="curve" smooth="yes"/>
      <point x="487" y="-8"/>
      <point x="534" y="7"/>
      <point x="540" y="44" type="curve" smooth="yes"/>
      <point x="546" y="79"/>
      <point x="547" y="102"/>
      <point x="547" y="104" type="curve" smooth="yes"/>
      <point x="547" y="113"/>
      <point x="545" y="115"/>
      <point x="539" y="115" type="curve" smooth="yes"/>
      <point x="535" y="115"/>
      <point x="524" y="109"/>
      <point x="510" y="109" type="curve" smooth="yes"/>
      <point x="489" y="109"/>
      <point x="480" y="119"/>
      <point x="480" y="142" type="curve" smooth="yes"/>
      <point x="480" y="152"/>
      <point x="517" y="494"/>
      <point x="517" y="494" type="curve"/>
      <point x="517" y="510"/>
      <point x="500" y="525"/>
      <point x="460" y="525" type="curve" smooth="yes"/>
    </contour>
    <contour>
      <point x="456" y="754" type="line" smooth="yes"/>
      <point x="417" y="754"/>
      <point x="395" y="743"/>
      <point x="393" y="722" type="curve" smooth="yes"/>
      <point x="384" y="640" type="line"/>
      <point x="384" y="624"/>
      <point x="401" y="609"/>
      <point x="441" y="609" type="curve" smooth="yes"/>
      <point x="469" y="609" type="line" smooth="yes"/>
      <point x="508" y="609"/>
      <point x="530" y="620"/>
      <point x="532" y="641" type="curve" smooth="yes"/>
      <point x="541" y="723" type="line"/>
      <point x="541" y="739"/>
      <point x="524" y="754"/>
      <point x="484" y="754" type="curve" smooth="yes"/>
    </contour>
  </outline>
</glyph>
<glyph name="uniFB02" format="1">
  <advance width="591"/>
  <unicode hex="FB02"/>
  <outline>
    <contour>
      <point x="168" y="760"/>
      <point x="109" y="700"/>
      <point x="100" y="598" type="curve" smooth="yes"/>
      <point x="93" y="523" type="line"/>
      <point x="72" y="523" type="line" smooth="yes"/>
      <point x="43" y="523"/>
      <point x="34" y="488"/>
      <point x="34" y="442" type="curve" smooth="yes"/>
      <point x="34" y="417"/>
      <point x="42" y="406"/>
      <point x="60" y="406" type="curve" smooth="yes"/>
      <point x="80" y="406" type="line"/>
      <point x="41" y="29" type="line"/>
      <point x="41" y="13"/>
      <point x="58" y="-2"/>
      <point x="98" y="-2" type="curve" smooth="yes"/>
      <point x="126" y="-2" type="line" smooth="yes"/>
      <point x="165" y="-2"/>
      <point x="187" y="9"/>
      <point x="189" y="30" type="curve" smooth="yes"/>
      <point x="228" y="406" type="line"/>
      <point x="258" y="406" type="line" smooth="yes"/>
      <point x="297" y="406"/>
      <point x="316" y="466"/>
      <point x="316" y="503" type="curve" smooth="yes"/>
      <point x="316" y="517"/>
      <point x="314" y="523"/>
      <point x="300" y="523" type="curve" smooth="yes"/>
      <point x="240" y="523" type="line"/>
      <point x="249" y="600" type="line" smooth="yes"/>
      <point x="252" y="629"/>
      <point x="263" y="643"/>
      <point x="289" y="643" type="curve" smooth="yes"/>
      <point x="309" y="643"/>
      <point x="314" y="638"/>
      <point x="322" y="638" type="curve" smooth="yes"/>
      <point x="339" y="638"/>
      <point x="359" y="697"/>
      <point x="359" y="714" type="curve" smooth="yes"/>
      <point x="359" y="752"/>
      <point x="311" y="760"/>
      <point x="263" y="760" type="curve" smooth="yes"/>
    </contour>
    <contour>
      <point x="448" y="755" type="line" smooth="yes"/>
      <point x="411" y="755"/>
      <point x="399" y="745"/>
      <point x="396" y="725" type="curve"/>
      <point x="396" y="725"/>
      <point x="333" y="150"/>
      <point x="333" y="119" type="curve" smooth="yes"/>
      <point x="333" y="29"/>
      <point x="376" y="-8"/>
      <point x="454" y="-8" type="curve" smooth="yes"/>
      <point x="489" y="-8"/>
      <point x="536" y="7"/>
      <point x="542" y="44" type="curve" smooth="yes"/>
      <point x="548" y="79"/>
      <point x="549" y="102"/>
      <point x="549" y="104" type="curve" smooth="yes"/>
      <point x="549" y="113"/>
      <point x="547" y="115"/>
      <point x="541" y="115" type="curve" smooth="yes"/>
      <point x="537" y="115"/>
      <point x="526" y="109"/>
      <point x="512" y="109" type="curve" smooth="yes"/>
      <point x="491" y="109"/>
      <point x="482" y="119"/>
      <point x="482" y="142" type="curve" smooth="yes"/>
      <point x="482" y="146"/>
      <point x="543" y="728"/>
      <point x="543" y="728" type="curve"/>
      <point x="543" y="744"/>
      <point x="532" y="755"/>
      <point x="496" y="755" type="curve" smooth="yes"/>
    </contour>
  </outline>
</glyph>
<glyph name="acute.alt" format="1">
  <advance width="320"/>
  <outline>
    <contour>
      <point x="147" y="699"/>
      <point x="115" y="693"/>
      <point x="104" y="672" type="curve" smooth="yes"/>
      <point x="67" y="599"/>
      <point x="57" y="582"/>
      <point x="57" y="573" type="curve" smooth="yes"/>
      <point x="57" y="563"/>
      <point x="62" y="560"/>
      <point x="76" y="560" type="curve" smooth="yes"/>
      <point x="111" y="560"/>
      <point x="125" y="567"/>
      <point x="134" y="575" type="curve" smooth="yes"/>
      <point x="211" y="651"/>
      <point x="220" y="667"/>
      <point x="220" y="676" type="curve" smooth="yes"/>
      <point x="220" y="694"/>
      <point x="207" y="699"/>
      <point x="182" y="699" type="curve" smooth="yes"/>
    </contour>
    <contour>
      <point x="150" y="700" type="move" name="top"/>
    </contour>
    <contour>
      <point x="103" y="565" type="move" name="_top"/>
    </contour>
  </outline>
</glyph>
<glyph name="acute.loclPLK" format="1">
  <advance width="320"/>
  <outline>
    <contour>
      <point x="152" y="734"/>
      <point x="115" y="730"/>
      <point x="104" y="707" type="curve" smooth="yes"/>
      <point x="71" y="634"/>
      <point x="57" y="599"/>
      <point x="57" y="588" type="curve" smooth="yes"/>
      <point x="57" y="578"/>
      <point x="64" y="575"/>
      <point x="86" y="575" type="curve" smooth="yes"/>
      <point x="133" y="575"/>
      <point x="154" y="587"/>
      <point x="164" y="600" type="curve" smooth="yes"/>
      <point x="234" y="692"/>
      <point x="250" y="708"/>
      <point x="250" y="721" type="curve" smooth="yes"/>
      <point x="250" y="731"/>
      <point x="230" y="734"/>
      <point x="192" y="734" type="curve" smooth="yes"/>
    </contour>
    <contour>
      <point x="101" y="523" type="move" name="_top"/>
    </contour>
  </outline>
</glyph>
<glyph name="baraccentlong" format="1">
  <advance width="517"/>
  <outline>
    <contour>
      <point x="-45" y="365" type="line" smooth="yes"/>
      <point x="-79" y="365"/>
      <point x="-82" y="321"/>
      <point x="-82" y="300" type="curve" smooth="yes"/>
      <point x="-82" y="279"/>
      <point x="-74" y="270"/>
      <point x="-56" y="270" type="curve" smooth="yes"/>
      <point x="560" y="270" type="line" smooth="yes"/>
      <point x="593" y="270"/>
      <point x="597" y="314"/>
      <point x="597" y="335" type="curve" smooth="yes"/>
      <point x="597" y="355"/>
      <point x="588" y="365"/>
      <point x="571" y="365" type="curve" smooth="yes"/>
    </contour>
    <contour>
      <point x="263" y="317" type="move" name="_center"/>
    </contour>
  </outline>
</glyph>
<glyph name="baraccentmedium" format="1">
  <advance width="417"/>
  <outline>
    <contour>
      <point x="35" y="365" type="line" smooth="yes"/>
      <point x="1" y="365"/>
      <point x="-2" y="321"/>
      <point x="-2" y="300" type="curve" smooth="yes"/>
      <point x="-2" y="279"/>
      <point x="6" y="270"/>
      <point x="24" y="270" type="curve" smooth="yes"/>
      <point x="380" y="270" type="line" smooth="yes"/>
      <point x="413" y="270"/>
      <point x="417" y="314"/>
      <point x="417" y="335" type="curve" smooth="yes"/>
      <point x="417" y="355"/>
      <point x="408" y="365"/>
      <point x="391" y="365" type="curve" smooth="yes"/>
    </contour>
    <contour>
      <point x="208" y="317" type="move" name="_center"/>
    </contour>
  </outline>
</glyph>
<glyph name="breve.alt" format="1">
  <advance width="320"/>
  <outline>
    <contour>
      <point x="263" y="706"/>
      <point x="255" y="700"/>
      <point x="248" y="693" type="curve" smooth="yes"/>
      <point x="232" y="675"/>
      <point x="218" y="657"/>
      <point x="160" y="657" type="curve" smooth="yes"/>
      <point x="109" y="657"/>
      <point x="95" y="673"/>
      <point x="84" y="688" type="curve" smooth="yes"/>
      <point x="76" y="698"/>
      <point x="70" y="706"/>
      <point x="53" y="706" type="curve" smooth="yes"/>
      <point x="26" y="706"/>
      <point x="14" y="693"/>
      <point x="14" y="669" type="curve" smooth="yes"/>
      <point x="14" y="622"/>
      <point x="67" y="574"/>
      <point x="150" y="574" type="curve" smooth="yes"/>
      <point x="236" y="574"/>
      <point x="309" y="629"/>
      <point x="309" y="682" type="curve" smooth="yes"/>
      <point x="309" y="697"/>
      <point x="297" y="706"/>
      <point x="277" y="706" type="curve" smooth="yes"/>
    </contour>
    <contour>
      <point x="172" y="745" type="move" name="tilde"/>
    </contour>
    <contour>
      <point x="165" y="695" type="move" name="top"/>
    </contour>
    <contour>
      <point x="145" y="523" type="move" name="_top"/>
    </contour>
  </outline>
</glyph>
<glyph name="grave.alt" format="1">
  <advance width="320"/>
  <outline>
    <contour>
      <point x="115" y="700"/>
      <point x="98" y="697"/>
      <point x="98" y="684" type="curve" smooth="yes"/>
      <point x="98" y="676"/>
      <point x="105" y="669"/>
      <point x="165" y="586" type="curve" smooth="yes"/>
      <point x="174" y="574"/>
      <point x="187" y="561"/>
      <point x="224" y="561" type="curve" smooth="yes"/>
      <point x="248" y="561"/>
      <point x="257" y="565"/>
      <point x="257" y="577" type="curve" smooth="yes"/>
      <point x="257" y="586"/>
      <point x="249" y="608"/>
      <point x="229" y="673" type="curve" smooth="yes"/>
      <point x="222" y="694"/>
      <point x="187" y="700"/>
      <point x="147" y="700" type="curve" smooth="yes"/>
    </contour>
    <contour>
      <point x="220" y="700" type="move" name="top"/>
    </contour>
    <contour>
      <point x="214" y="565" type="move" name="_top"/>
    </contour>
  </outline>
</glyph>
<glyph name="hookabovecomb.alt" format="1">
  <advance width="300"/>
  <outline>
    <contour>
      <point x="46" y="615"/>
      <point x="35" y="610"/>
      <point x="12" y="600" type="curve" smooth="yes"/>
      <point x="2" y="596"/>
      <point x="-9" y="588"/>
      <point x="-9" y="580" type="curve" smooth="yes"/>
      <point x="-9" y="569"/>
      <point x="5" y="559"/>
      <point x="32" y="559" type="curve" smooth="yes"/>
      <point x="39" y="559"/>
      <point x="63" y="572"/>
      <point x="76" y="580" type="curve" smooth="yes"/>
      <point x="97" y="593"/>
      <point x="116" y="609"/>
      <point x="116" y="633" type="curve" smooth="yes"/>
      <point x="116" y="673"/>
      <point x="89" y="699"/>
      <point x="31" y="699" type="curve" smooth="yes"/>
      <point x="-4" y="699"/>
      <point x="-52" y="684"/>
      <point x="-52" y="671" type="curve" smooth="yes"/>
      <point x="-52" y="656"/>
      <point x="-35" y="629"/>
      <point x="-27" y="629" type="curve" smooth="yes"/>
      <point x="-18" y="629"/>
      <point x="-5" y="646"/>
      <point x="25" y="646" type="curve" smooth="yes"/>
      <point x="36" y="646"/>
      <point x="46" y="640"/>
      <point x="46" y="629" type="curve" smooth="yes"/>
    </contour>
    <contour>
      <point x="45" y="700" type="move" name="top"/>
    </contour>
    <contour>
      <point x="32" y="562" type="move" name="_top"/>
    </contour>
  </outline>
</glyph>
<glyph name="quotesingle.loclGUA" format="1">
  <advance width="180"/>
  <outline>
    <contour>
      <point x="134" y="700" type="line" smooth="yes"/>
      <point x="92" y="700"/>
      <point x="72" y="683"/>
      <point x="69" y="656" type="curve"/>
      <point x="47" y="403" type="line"/>
      <point x="45" y="387"/>
      <point x="71" y="381"/>
      <point x="89" y="381" type="curve" smooth="yes"/>
      <point x="115" y="383"/>
      <point x="198" y="550"/>
      <point x="198" y="656" type="curve" smooth="yes"/>
      <point x="198" y="681"/>
      <point x="188" y="700"/>
      <point x="153" y="700" type="curve" smooth="yes"/>
    </contour>
  </outline>
</glyph>
<glyph name="tilde.alt" format="1">
  <advance width="365"/>
  <outline>
    <contour>
      <point x="107" y="694"/>
      <point x="72" y="660"/>
      <point x="60" y="624" type="curve" smooth="yes"/>
      <point x="55" y="610"/>
      <point x="56" y="590"/>
      <point x="78" y="583" type="curve" smooth="yes"/>
      <point x="88" y="580" type="line" smooth="yes"/>
      <point x="101" y="576"/>
      <point x="111" y="576"/>
      <point x="125" y="595" type="curve" smooth="yes"/>
      <point x="136" y="609"/>
      <point x="147" y="611"/>
      <point x="155" y="611" type="curve" smooth="yes"/>
      <point x="185" y="609"/>
      <point x="252" y="582"/>
      <point x="283" y="582" type="curve" smooth="yes"/>
      <point x="335" y="582"/>
      <point x="370" y="616"/>
      <point x="382" y="652" type="curve" smooth="yes"/>
      <point x="387" y="666"/>
      <point x="386" y="686"/>
      <point x="364" y="693" type="curve" smooth="yes"/>
      <point x="354" y="696" type="line" smooth="yes"/>
      <point x="341" y="700"/>
      <point x="331" y="700"/>
      <point x="317" y="681" type="curve" smooth="yes"/>
      <point x="306" y="667"/>
      <point x="295" y="665"/>
      <point x="287" y="665" type="curve" smooth="yes"/>
      <point x="257" y="667"/>
      <point x="190" y="694"/>
      <point x="159" y="694" type="curve" smooth="yes"/>
    </contour>
    <contour>
      <point x="216" y="523" type="move" name="_top"/>
    </contour>
    <contour>
      <point x="223" y="600" type="move" name="_tilde"/>
    </contour>
  </outline>
</glyph>
